<?xml version="1.0" standalone="no"?>
<!DOCTYPE svg PUBLIC "-//W3C//DTD SVG 1.1//EN" "http://www.w3.org/Graphics/SVG/1.1/DTD/svg11.dtd" >
<svg>
<metadata>
Created by FontForge 20120731 at Thu Jan 24 07:39:24 2019
 By www-data
Copyright (c) 2018, hati
</metadata>
<defs>
<font id="mickeykw" horiz-adv-x="559" >
  <font-face 
    font-family="mickeykw"
    font-weight="400"
    font-stretch="normal"
    units-per-em="1000"
    panose-1="2 0 5 3 0 0 0 0 0 0"
    ascent="800"
    descent="-200"
    x-height="544"
    cap-height="666"
    bbox="-161 -203 1003 1114"
    underline-thickness="50"
    underline-position="-100"
    unicode-range="U+0020-00FF"
  />
<missing-glyph horiz-adv-x="364" 
d="M33 0v666h265v-666h-265zM66 33h199v600h-199v-600z" />
    <glyph glyph-name=".notdef" horiz-adv-x="364" 
d="M33 0v666h265v-666h-265zM66 33h199v600h-199v-600z" />
    <glyph glyph-name=".null" horiz-adv-x="0" 
 />
    <glyph glyph-name="nonmarkingreturn" horiz-adv-x="333" 
 />
    <glyph glyph-name="space" unicode=" " horiz-adv-x="235" 
 />
    <glyph glyph-name="exclam" unicode="!" horiz-adv-x="239" 
d="M201 767q2 -106 8.5 -242t7.5 -242q-67 -1 -185 -3q-2 106 -8.5 242t-8.5 242q67 1 186 3zM208 189q1 -29 4.5 -83.5t5.5 -80.5q-63 0 -185 -1q-1 1 -11 164q32 1 186 1z" />
    <glyph glyph-name="quotedbl" unicode="&#x22;" horiz-adv-x="517" 
d="M456 780q1 -27 -22.5 -162.5t-21.5 -162.5h-63h-63q-2 27 -8 162t-8 162q32 0 186 1zM208 780q1 -27 -22.5 -162.5t-21.5 -162.5h-63h-63q-2 27 -8 162t-8 162q32 0 186 1z" />
    <glyph glyph-name="numbersign" unicode="#" horiz-adv-x="652" 
d="M293 86q-55 -117 -79 -167q-58 28 -166 81q16 34 45 94q-39 2 -70 3q-1 69 -2 185q63 -10 153 -17q14 30 56 118q-49 3 -86 5q-1 68 -2 184q69 -11 168 -18q59 123 84 176l1 -1h1l1 -1h1l1 -1h1l1 -1h1l1 -1h1l1 -1h1l1 -1h1l1 -1h1l1 -1h1l1 -1h1l1 -1h1l1 -1h1l1 -1h1
l1 -1h1l1 -1h1l1 -1h1l1 -1h1l1 -1h1l1 -1h1l1 -1h1l1 -1h1l1 -1h1h1l1 -1h1l1 -1h1l1 -1h1l1 -1h1l1 -1h1l1 -1h1l1 -1h1l1 -1h1l1 -1h1l1 -1h1l1 -1h1l1 -1h1l1 -1h1l1 -1h1l1 -1h1l1 -1h1l1 -1h1l1 -1h1l1 -1h1l1 -1h1l1 -1h1l1 -1h1l1 -1h1l1 -1h1l1 -1h1l1 -1h1l1 -1h1
l1 -1h1l1 -1h1l1 -1h1l1 -1h1l1 -1h1l1 -1h1h1l1 -1h1l1 -1h1l1 -1h1l1 -1h1l1 -1h1l1 -1h1l1 -1h1l1 -1h1l1 -1h1l1 -1h1l1 -1h1l1 -1h1l1 -1h1l1 -1h1l1 -1h1l1 -1h1l1 -1h1l1 -1h1l1 -1h1l1 -1h1l1 -1h1l1 -1h1l1 -1h1l1 -1h1l1 -1h1l1 -1h1l1 -1q-17 -36 -49 -103
q27 0 55 -1q50 106 73 154q62 -31 166 -82q-14 -28 -36 -74h84q1 -71 2 -185q-65 4 -170 8q-17 -36 -53 -113h100q0 -21 1.5 -61.5t2 -61.5t-1.5 -62q-69 4 -185 9q-64 -134 -90 -189q-57 28 -166 81q19 39 55 116q-31 1 -54 2zM373 256q27 -1 55 -2q8 18 17.5 37.5t21 44
t17.5 37.5q-33 1 -54 2q-10 -21 -57 -119z" />
    <glyph glyph-name="dollar" unicode="$" horiz-adv-x="445" 
d="M318 700q10 -28 31.5 -86t32.5 -88q-59 -22 -60 -22q-82 -27 -109 -75l44 -22l43 -21.5t37 -20.5t34.5 -24t26.5 -26.5t22.5 -32.5t12 -38t5.5 -47q0 -30 -7 -66q-31 -80 -115 -118q16 -108 20 -128q-62 -4 -180 -11q-3 20 7 99q-12 -2 -35 -5.5t-35 -5.5
q-4 33 -12.5 94.5t-11.5 89.5q12 2 34 4t40 4t33 6q3 1 21 5t25.5 6.5t17.5 10t14 18.5q-32 16 -78.5 39.5t-88.5 45t-78 39.5v25v28.5t2 24.5q11 84 65 150q-10 211 -11 228q32 0 186 1q1 -25 -14 -112q38 17 81 31z" />
    <glyph glyph-name="percent" unicode="%" horiz-adv-x="405" 
d="M376 279h2q59 0 101 -41q46 -42 46 -107q0 -63 -43.5 -106t-106.5 -43q-32 0 -62 14t-51 39q-35 39 -35 95q0 57 35 96q44 53 111 53h3zM37 799h2q59 0 100 -41q47 -42 47 -107q0 -63 -43.5 -106.5t-106.5 -43.5q-32 0 -62.5 14.5t-50.5 39.5q-35 39 -35 95t35 96
q44 53 111 53h3zM480 711q-43 -78 -121 -220.5t-156.5 -285.5t-121.5 -220q-60 33 -162 89q51 92 198.5 362t199.5 364q59 -33 163 -89z" />
    <glyph glyph-name="ampersand" unicode="&#x26;" 
d="M267 402q14 0 24.5 10t10.5 25q0 14 -10.5 24.5t-23.5 10.5h-1h-1q-14 0 -24.5 -10t-10.5 -25q0 -14 10.5 -24.5t25.5 -10.5zM370 124q-48 70 -97 70h-1h-1h-1q-19 0 -34 -14.5t-15 -34.5q0 -21 14.5 -36t35.5 -15q51 0 99 30zM484 253q21 38 39 83l165 -65
q-39 -109 -107 -190q8 -16 21 -47.5t20 -46.5l-161 -81q-9 32 -19 61q-79 -42 -167 -42q-47 0 -91.5 21.5t-77.5 58.5q-51 58 -51 142q0 80 52 143q2 2 7 5.5t7.5 6t0.5 5.5q-2 2 -3 4q-47 52 -47 127q0 73 47 130q27 33 66.5 52t82.5 19h2h2h1h1q75 0 135 -55
q30 -27 46 -65t16 -79q0 -16 -11.5 -37t-23.5 -35t-17.5 -31t7.5 -26l1 -1l2 -2q29 -23 55 -55z" />
    <glyph glyph-name="quotesingle" unicode="'" horiz-adv-x="233" 
d="M208 780q1 -27 -22.5 -162.5t-21.5 -162.5h-63h-63q-2 27 -8 162t-8 162q32 0 186 1z" />
    <glyph glyph-name="parenleft" unicode="(" horiz-adv-x="355" 
d="M275 0q-111 0 -186 98t-75 240q0 80 33 174t92 163.5t124 70.5l46 -172q-31 0 -53.5 -33t-33.5 -84.5t-11 -111.5q0 -78 28 -136t71 -58z" />
    <glyph glyph-name="parenright" unicode=")" horiz-adv-x="379" 
d="M81 694q111 0 186 -98t75 -240q0 -80 -33 -174t-92 -163.5t-124 -70.5l-46 172q31 0 53.5 33t33.5 84.5t11 111.5q0 78 -28 136t-71 58z" />
    <glyph glyph-name="asterisk" unicode="*" horiz-adv-x="583" 
d="M409 360q44 -35 1 0l1 -1l1 -1l1 -1h1l1 -1l1 -1l1 -1l1 -1h1l1 -1l1 -1l1 -1l1 -1h1l1 -1l1 -1l1 -1l1 -1h1l1 -1l1 -1l1 -1l1 -1h1l1 -1l1 -1l1 -1l1 -1h1l1 -1l1 -1l1 -1l1 -1h1l1 -1l1 -1l1 -1l1 -1l2 -1l1 -1l1 -1h1l1 -1l1 -1l1 -1l1 -1h1l1 -1l1 -1l1 -1l1 -1h1
l1 -1l1 -1l1 -1l1 -1h1l1 -1l1 -1l1 -1l1 -1h1l1 -1l1 -1l1 -1l1 -1h1l1 -1l1 -1l1 -1l1 -1h1l1 -1l1 -1l1 -1l1 -1h1l1 -1l1 -1l1 -1l1 -1h1l1 -1l1 -1l1 -1l1 -1h1l1 -1l1 -1l1 -1h1l1 -1l1 -1l1 -1l1 -1h1l1 -1l1 -1l1 -1l1 -1h1l1 -1l1 -1l1 -1l1 -1h1l1 -1l1 -1l1 -1
l1 -1h1l1 -1l1 -1l1 -1l1 -1h1l1 -1l1 -1l1 -1l1 -1h1l1 -1l1 -1l1 -1l1 -1h1l1 -1l1 -1l1 -1l2 -1q-42 -36 -115 -98q-34 27 -69 55v-102l-150 -14v93l-68 -58q-44 35 -118 95q69 59 154 131q-16 13 -71.5 57t-85.5 68q38 32 115 98q37 -30 74 -59v77l150 14v-99
q29 24 58 49q43 -34 119 -94q-52 -44 -126 -108z" />
    <glyph glyph-name="plus" unicode="+" horiz-adv-x="583" 
d="M386 451q121 2 180 3q1 -58 3 -161h-1h-1h-1h-1h-1h-1h-1h-1h-1h-1h-1h-1h-1h-1h-1h-1l-1 -1h-1h-1h-1h-1h-1h-1h-1h-1h-1h-1h-1h-1h-1h-1h-1h-1h-1h-1h-1h-1h-1h-1h-1h-1h-1h-1h-1h-1h-1h-1h-1h-1h-1h-1h-1h-1h-1h-1h-1h-1h-1h-1h-1h-1h-1h-1h-1h-1h-1h-1h-1h-1h-1h-1
h-1h-1h-1h-1h-1h-1l-1 -1h-1h-1h-1h-1h-1h-1h-1h-1h-1h-2h-1h-1h-1h-1h-1h-1h-1h-1h-1h-1h-1h-1h-1h-1h-1h-1h-1h-1h-1h-1h-1h-1h-1h-1h-1h-1h-1h-1h-1h-1h-1h-1h-1h-1h-1h-1h-1h-1h-1h-1h-1h-1h-1h-1h-1h-1h-1h-1h-1h-1l-1 -1h-1h-1h-1h-1h-1h-1h-1h-1h-1h-1h-1h-1h-1h-1
h-1h-1h-1h-1h-1h-1h-1h-1h-1h-1h-1h-1h-1h-1h-1h-1h-1h-1h-1h-1h-1h-1h-1h-1h-1h-2q2 -109 4 -217q-59 -1 -162 -3q-1 102 -3 217q-107 -2 -213 -3q-1 58 -3 161q71 1 213 4q-2 118 -3 176q58 1 162 3z" />
    <glyph glyph-name="comma" unicode="," horiz-adv-x="375" 
d="M69 272zM354 136q0 -70 -38.5 -125t-96.5 -82.5t-123 -27.5q-38 0 -74 11l56 179q4 -2 9 -2q22 0 47 25t34 50l183 7q3 -18 3 -35z" />
    <glyph glyph-name="hyphen" unicode="-" horiz-adv-x="457" 
d="M394 273q-67 -2 -191.5 -5.5t-178.5 -4.5q-1 63 -2 185l370 11q1 -69 2 -186z" />
    <glyph glyph-name="period" unicode="." horiz-adv-x="239" 
d="M208 189q1 -29 4.5 -83.5t5.5 -80.5q-63 0 -185 -1q-1 1 -11 164q32 1 186 1z" />
    <glyph glyph-name="slash" unicode="/" horiz-adv-x="405" 
d="M480 711q-43 -78 -121 -220.5t-156.5 -285.5t-121.5 -220q-60 33 -162 89q51 92 198.5 362t199.5 364q59 -33 163 -89z" />
    <glyph glyph-name="zero" unicode="0" 
d="M280 692h3q53 0 101.5 -19t81.5 -56q93 -105 93 -277q0 -79 -37 -152.5t-103 -121t-141 -47.5q-118 0 -198 92t-80 227q0 64 20 140.5t53 116.5q37 45 90.5 71t111.5 26h2h3zM280 204q39 0 60.5 43t21.5 103q0 62 -21.5 109t-58.5 47h-1h-1h-3q-36 0 -58 -49t-22 -112
q0 -56 23.5 -98.5t59.5 -42.5z" />
    <glyph glyph-name="one" unicode="1" horiz-adv-x="237" 
d="M207 666q1 -91 3 -204t4 -231t3 -204q-67 -1 -185 -2q-3 140 -7 400q-42 41 -114 113l110 124q66 2 186 4z" />
    <glyph glyph-name="two" unicode="2" horiz-adv-x="571" 
d="M-3 529q152 92 260 92q94 0 142 -66.5t48 -171.5q0 -15 -2.5 -31t-6 -29.5t-11.5 -31.5t-12.5 -29t-16.5 -30.5t-17 -28t-19.5 -29t-18.5 -26t-20 -27t-18 -23.5q187 8 233 9q5 -123 8 -185l-620 -26q14 28 68.5 97t109 136t98.5 138t44 107q0 53 -65 53q-77 0 -246 -73
q16 46 62 175z" />
    <glyph glyph-name="three" unicode="3" horiz-adv-x="556" 
d="M126 237h7q77 0 157.5 12t80.5 27q0 14 -82 27l-61 9l-8 156l60 16q34 10 34 37q0 24 -27.5 44t-70.5 20q-50 0 -106 -31l-26 186q70 18 135 18q131 0 213 -65.5t82 -160.5q0 -60 -34 -120q47 -6 74.5 -50t27.5 -104q0 -48 -17.5 -90.5t-57.5 -73.5t-96 -34
q-125 -8 -332 -8z" />
    <glyph glyph-name="four" unicode="4" horiz-adv-x="495" 
d="M338 717v-1v-1v-1l-1 -1v-1v-1v-1l-1 -1v-1v-1v-1l-1 -1v-1v-1v-1v-1l-1 -1v-1v-1v-1l-1 -1v-1v-1v-1l-1 -1v-1v-1v-1l-1 -1v-1v-1v-1v-1l-1 -1v-1v-1v-1l-1 -1v-1v-1v-1l-1 -1v-1v-1v-1v-1l-1 -1v-1v-1v-1l-1 -1v-1v-1v-1l-1 -1v-1v-1v-1l-1 -1v-1v-1v-1v-1l-1 -1v-1v-1
v-1l-1 -1v-1v-1v-1l-1 -1v-1v-1v-1l-1 -1v-1v-1v-1v-1l-1 -1v-1v-1v-1l-1 -1v-1v-1v-1l-1 -1v-1v-1v-1l-1 -1v-1v-1v-1v-1l-1 -1v-1v-1v-1l-1 -1v-1v-1v-1l-1 -1v-1v-1v-1v-1l-1 -1v-1v-1v-1l-1 -1v-1v-1v-1l-1 -1v-1v-1v-1l-1 -1v-1v-1v-1v-1l-1 -1v-1v-1v-1l-1 -1v-1v-1
v-1l-1 -1v-1v-1v-1l-1 -1v-1v-1v-1v-1l-1 -1v-1v-1v-1l-1 -1v-1v-1v-1l-1 -1v-1v-1v-1v-1l-1 -1v-1v-1v-1l-1 -1v-1v-1v-1l-1 -1v-1v-1v-1l-1 -1v-1v-1v-1v-1l-1 -1v-1v-1v-1l-1 -1v-1v-1v-1l-1 -1v-1v-1v-1l-1 -1v-1v-1v-1v-1l-1 -1v-1v-1v-1l-1 -1v-1v-1v-1l-1 -1v-1v-1
v-1v-1l-1 -1v-1v-1v-1l-1 -1v-1v-1v-1l-1 -1v-1v-1v-1l-1 -1v-1v-1v-1v-1l-1 -1v-1v-1v-1l-1 -1v-1v-1v-1l-1 -1v-1v-1v-1l-1 -1v-1v-1v-1v-1l-1 -1v-1v-1v-1l-1 -1v-1v-1v-1l-1 -1v-1v-1v-1l-1 -1v-1v-1v-1v-1l-1 -1v-1v-1v-1l-1 -1v-1v-1v-1l-1 -1v-1v-1v-1v-1l-1 -1v-1
v-1v-1l-1 -1v-1v-1v-1l-1 -1v-1v-1v-1l-1 -1v-1v-1v-1v-1l-1 -1v-1v-1v-1l-1 -1v-1v-1v-1l-1 -1v-1v-1v-1l-1 -1v-1v-1v-1v-1l-1 -1v-1v-1v-1l-1 -1v-1v-1v-1l-1 -1v-1v-1v-1v-1l-1 -1v-1v-1v-1l-1 -1v-1v-1v-1l-1 -1v-1v-1v-1l-1 -1v-1v-1v-1v-1l-1 -1v-1v-1v-1l-1 -1v-1
v-1v-1l-1 -1v-1v-1v-1l-1 -1v-1v-1v-1v-1l-1 -1v-1v-1v-1l-1 -1v-1v-1v-1l-1 -1v-1v-1v-1v-1l-1 -1v-1v-1v-1l-1 -1v-1v-1v-1l-1 -1v-1v-1v-1l-1 -1v-1v-1v-1v-1l-1 -1v-1v-1v-1l-1 -1v-1v-1v-1l-1 -1v-1v-1v-1l-1 -1v-1v-1v-1v-1l-1 -1v-1v-1v-1l-1 -1v-1v-1v-1l-1 -1v-1
v-1v-1l-1 -1v-1v-1v-1v-1l-1 -1v-1v-1v-1l-1 -1v-1v-1v-1l-1 -1v-1v-1v-1v-1l-1 -1v-1v-1v-1l-1 -1v-1v-1v-1l-1 -1v-1v-1v-1l-1 -1v-1v-1v-1v-1l-1 -1v-1v-1v-1l-1 -1v-1v-1v-1l-1 -1v-1v-1v-1l-1 -1v-1v-1v-1v-1l-1 -1v-1v-1v-1l-1 -1v-1v-1v-1l-1 -1v-1v-1v-1v-1l-1 -1
v-1v-1v-1l-1 -1v-1v-1v-1l-1 -2h56q-2 94 -4 149q67 1 186 3q2 -77 3 -154q10 -1 20 -1q-1 -31 -1.5 -92.5t-0.5 -92.5h-14q2 -85 3 -170q-67 -1 -185 -3q-2 77 -4 175q-134 2 -237 3q68 424 106 659q66 3 185 7z" />
    <glyph glyph-name="five" unicode="5" horiz-adv-x="445" 
d="M-35 660q145 7 485 25q1 -59 5 -188q-44 -2 -164 -6.5t-164 -6.5l8 -109h43.5h43t39 -1t38 -4t33 -7.5t32.5 -12.5t27.5 -19.5t26 -27t21.5 -35.5q14 -27 24 -62q2 -21 -0.5 -41.5t-6.5 -37.5t-15 -35t-19 -31t-25 -30t-27.5 -27t-32 -27t-32 -24.5t-35.5 -25t-34 -24.5
q-18 28 -53 79t-51 75q8 6 40.5 27.5t49.5 33.5q2 2 16.5 13.5t20 17.5t11 17t4.5 22q-36 0 -88 0.5t-99.5 1t-87.5 0.5q-3 8 -12.5 21.5t-15 25t-5.5 23.5q-1 57 0 193t-1 207z" />
    <glyph glyph-name="six" unicode="6" horiz-adv-x="572" 
d="M231 456q46 20 92 20q67 0 125.5 -38t91.5 -95t33 -114q0 -73 -58 -120.5t-178 -47.5q-62 0 -119.5 24.5t-99.5 69.5q-42 42 -65 98t-23 116q0 99 53 177.5t141 114.5q22 9 49.5 14t45 6t53 2t47.5 1q0 -28 1.5 -85.5t2.5 -87.5q-19 0 -56 -1h-7q-72 0 -107 -32
q-12 -9 -22 -22zM233 285q42 -51 109 -51q40 0 40 24q0 18 -22 34t-54 16q-36 0 -73 -23z" />
    <glyph glyph-name="seven" unicode="7" horiz-adv-x="495" 
d="M48 -12q119 267 179 400h-1h-1h-1h-1h-1l-1 1h-1h-1h-1h-1h-1h-1h-1h-1h-1h-1h-1l-1 1h-1h-1h-1h-1h-1h-1h-1h-1h-1h-1l-1 1h-1h-1h-1h-1h-1h-1h-1h-1h-1h-1h-1l-1 1h-1h-1h-1h-1h-1h-1h-1h-1h-1h-1l-1 1h-1h-1h-1h-1h-1h-1h-1h-1h-1h-1l-1 1h-1h-1h-1h-1h-1h-1h-1h-1h-1
h-1h-1l-1 1h-1h-1h-1h-1h-1h-1h-1h-1h-1h-1l-1 1h-1h-1h-1h-1h-1h-1h-1h-1h-1h-1h-1l-1 1h-1h-1h-1h-1h-1h-1h-1h-1h-1h-1l-1 1h-1h-1h-1h-1h-1h-1h-1h-1h-1h-1h-1l-1 1h-1h-1h-1h-1h-1h-1h-1h-1h-1h-1l-1 1h-1h-1h-1h-1h-1h-1h-1h-1h-1h-1h-1l-1 1h-1h-1h-1h-1h-1h-1h-1h-1
h-1h-1l-1 1h-1h-1h-1h-1h-1h-1h-1h-1h-1h-1h-1l-1 1h-1h-1h-1h-1h-1h-1h-1h-1h-1h-1l-1 1h-1h-1h-1h-1h-1h-1h-1h-1h-1h-1l-1 1h-1h-1h-1h-1h-1h-1h-1h-1h-1h-1h-1l-1 1h-1h-1h-1h-1h-1h-1h-1h-1h-1h-1l-1 1h-1h-1h-1h-1h-1h-1h-1h-1h-1h-1h-1l-1 1h-1h-1h-1h-1h-1h-1h-1h-1
h-1h-1l-1 1h-1h-1h-1h-1h-1h-1h-1h-1h-2h-1l-1 1h-1h-1h-1h-1h-1h-1q14 29 42 84t41 82q290 -38 428 -56q-175 -399 -267 -607q-62 28 -170 75z" />
    <glyph glyph-name="eight" unicode="8" 
d="M271 94q21 0 35.5 14.5t14.5 36.5q0 19 -14.5 34t-33.5 15h-1h-1h-1q-19 0 -34 -14.5t-15 -34.5q0 -21 14.5 -36t35.5 -15zM267 402q14 0 24.5 10t10.5 25q0 14 -10.5 24.5t-23.5 10.5h-1h-1q-14 0 -24.5 -10t-10.5 -25q0 -14 10.5 -24.5t25.5 -10.5zM272 639h1h1
q75 0 135 -55q30 -27 46 -65t16 -79q0 -74 -45 -129l3 -3q33 -30 51 -72.5t18 -87.5q0 -94 -64.5 -158.5t-158.5 -64.5q-47 0 -91.5 21.5t-77.5 58.5q-51 58 -51 142q0 80 52 143q7 9 15 17q-2 2 -3 4q-47 52 -47 127q0 73 47 130q27 33 66.5 52t82.5 19h2h2z" />
    <glyph glyph-name="nine" unicode="9" horiz-adv-x="572" 
d="M365 267q-46 -20 -92 -20q-67 0 -125.5 38t-91.5 95t-33 114q0 73 58 120.5t178 47.5q62 0 119.5 -24.5t99.5 -69.5q42 -42 65 -98t23 -116q0 -99 -53 -177.5t-141 -114.5q-22 -9 -49.5 -14t-45 -6t-53 -2t-47.5 -1q0 28 -1.5 85.5t-2.5 87.5q19 0 56 1h7q72 0 107 32
q12 9 22 22zM363 438q-42 51 -109 51q-40 0 -40 -24q0 -18 22 -34t54 -16q36 0 73 23z" />
    <glyph glyph-name="colon" unicode=":" horiz-adv-x="239" 
d="M200 492q2 -29 5.5 -84t4.5 -80q-63 0 -185 -1l-11 164q32 0 186 1zM208 189q1 -29 4.5 -83.5t5.5 -80.5q-63 0 -185 -1q-1 1 -11 164q32 1 186 1z" />
    <glyph glyph-name="semicolon" unicode=";" horiz-adv-x="345" 
d="M313 492q2 -29 5.5 -84t4.5 -80q-63 0 -185 -1l-11 164q32 0 186 1zM324 136q0 -70 -38.5 -125t-96.5 -82.5t-123 -27.5q-38 0 -74 11l56 179q4 -2 9 -2q22 0 47 25t34 50l183 7q3 -18 3 -35z" />
    <glyph glyph-name="less" unicode="&#x3c;" horiz-adv-x="766" 
d="M776 295q-6 -18 -25.5 -80.5t-30.5 -96.5q-118 37 -365 115.5t-375 119.5q111 55 333.5 165t334.5 164q20 -42 82 -166q-44 -21 -129 -63t-126 -63h1h1l1 -1h1h1l1 -1h1h1l1 -1h1h1h1l1 -1h1h1l1 -1h1h1l1 -1h1h1l1 -1h1h1l1 -1h1h1l1 -1h1h1l1 -1h1h1h1l1 -1h1h1l1 -1h1
h1l1 -1h1h1l1 -1h1h1l1 -1h1h1l1 -1h1h1l1 -1h1h1h1l1 -1h1h1l1 -1h1h1l1 -1h1h1l1 -1h1h1l1 -1h1h1l1 -1h1h1l1 -1h1h1h1l1 -1h1h1l1 -1h1h1l1 -1h1h1l1 -1h1h1l1 -1h1h1l1 -1h1h1l1 -1h1h1h1l1 -1h1h1l1 -1h1h1l1 -1h1h1l1 -1h1h1l1 -1h1h1l1 -1h1h1l1 -1h1h1h1l1 -1h1h1
l1 -1h1h1l1 -1h1h1l1 -1h1h1l1 -1h1h1l1 -1h1h1l1 -1h1h1h1l1 -1h1h1l1 -1h1h1l1 -1h1h1l1 -1h1h1l1 -1h1h1l1 -1h1h1h1l1 -1h1h1l1 -1h1h1l1 -1h1h1l1 -1h1h1l1 -1h1h1l1 -1h1h1l1 -1h1h1h1l1 -1h1h1l1 -1h1h1l1 -1h1h1l1 -1h1h1l1 -1h1h1l1 -1h1h1l1 -1h1h1h1l1 -1h1h1
l1 -1h1h1l1 -1h1h1l1 -1h1h1l1 -1h1h1l1 -1h1h1l1 -1h1h1h1l1 -1h1h1l1 -1h1h1l1 -1h1h1l1 -1h1h1l1 -1h1h1l1 -1h1h1l1 -1h1h1h1l1 -1h1h1l1 -1h1h1l1 -1h1h1l1 -1h1h1l1 -1h1h1l1 -1h1h1l1 -1h1h1h1l1 -1h1h1l1 -1h1h1l1 -1h1h1l1 -1h1h1l1 -1h1h1l1 -1h1h1l1 -1h1h1h1
l1 -1h1h1l1 -1h1h1z" />
    <glyph glyph-name="equal" unicode="=" horiz-adv-x="652" 
d="M618 108q-80 -2 -297.5 -5.5t-297.5 -5.5q-1 69 -2 185q80 2 297.5 5.5t297.5 4.5q1 -70 2 -184zM618 364q-80 -2 -297.5 -5.5t-297.5 -4.5q-1 68 -2 184q80 2 297.5 5.5t297.5 4.5q1 -70 2 -184z" />
    <glyph glyph-name="greater" unicode="&#x3e;" horiz-adv-x="766" 
d="M-4 516q8 17 35 76.5t42 92.5q112 -51 348 -158.5t358 -162.5q-117 -42 -351 -124.5t-351 -124.5q-17 49 -62 175q46 17 135.5 48.5t133.5 46.5q-64 29 -99.5 45t-89.5 40.5t-99 45.5z" />
    <glyph glyph-name="question" unicode="?" horiz-adv-x="413" 
d="M19 236q-3 43 -4 74t2 57.5t5.5 43t13.5 32.5t18.5 24.5t28 21t34 19t44.5 21.5t52 26q-3 10 -13 17.5t-17.5 10t-25.5 6.5t-21 5q-21 3 -59.5 8t-47.5 6q3 29 11 90.5t13 93.5q11 -2 41 -6.5t42.5 -6.5t40 -7.5t40.5 -9.5t36.5 -12t36 -15.5t30.5 -19t29.5 -25
t22.5 -30.5t19 -37q7 -36 7 -66q0 -27 -5 -50t-11.5 -40t-21.5 -33.5t-26.5 -27t-35 -25t-38 -22t-45.5 -23.5q-14 -7 -21 -11q-3 -13 -1 -30.5t4 -26t5.5 -19.5l3.5 -11zM208 146q1 -29 4.5 -83.5t5.5 -80.5q-63 0 -185 -1q-1 1 -11 164q32 1 186 1z" />
    <glyph glyph-name="at" unicode="@" horiz-adv-x="745" 
d="M347 385q2 6 2 11q0 21 -19 28q-5 2 -10 2q-21 0 -28 -17v-1l-1 -1q-2 -5 -2 -10q0 -21 19 -28q5 -2 11 -2q20 0 28 18zM724 238q-44 -82 -117 -107q-27 -9 -56 -9q-37 0 -72 14q-64 26 -96 88q-1 2 -2 7t-2.5 8t-3.5 2q-3 -1 -5 -2q-24 -8 -50 -8q-33 0 -65 13
q-57 24 -86 79q-20 37 -20 79q0 32 12 61q0 1 0.5 1.5t0.5 1t0.5 1.5l0.5 1q24 59 87 88q32 15 69 15q33 0 64 -12q30 -13 49.5 -44.5t29 -69.5t18 -75t21.5 -66.5t33 -37.5q7 -3 14 -3q22 0 42 26q21 26 21 63q0 68 -29.5 125.5t-77 94.5t-106.5 57t-121 20
q-43 0 -82 -16.5t-70.5 -49.5t-50 -88t-18.5 -125q0 -27 7 -56.5t28.5 -66.5t55.5 -66.5t93.5 -52t137.5 -26.5q-5 -12 -18.5 -46.5t-21 -56.5t-11.5 -38q-83 4 -155 34t-119 72.5t-81 93.5t-49 97.5t-15 84.5q0 88 20.5 161t56.5 123.5t83.5 85.5t101 51.5t111.5 16.5
q70 0 138 -18t128.5 -54.5t106 -87t72 -120.5t26.5 -151q0 -61 -28 -112z" />
    <glyph glyph-name="A" unicode="A" horiz-adv-x="683" 
d="M343 705q23 -44 102 -190.5t131 -243t104 -189.5q-52 -28 -163 -88q-34 60 -64 114q-14 -7 -41.5 -21.5t-40.5 -21.5q-13 25 -40.5 76t-40.5 77q-20 -37 -61 -112t-62 -113q-19 10 -51.5 28t-60 32.5t-51.5 27.5q281 518 339 624zM342 314l-21 -39t-21 -38q33 18 65 35
q-16 29 -23 42z" />
    <glyph glyph-name="B" unicode="B" horiz-adv-x="556" 
d="M533 309v-1q2 -16 2 -32q0 -123 -156 -194q-73 -30 -194 -30q-51 0 -129 6l-15 284l-15 2l-3 72l13 4l-15 287q137 7 169 8q300 -1 310 -190q2 -15 2 -30q0 -44 -22 -83q38 -42 53 -103zM216 529l4 -61l60 16q22 6 34 16q-17 26 -98 29zM228 312l4 -75q43 4 77 17
q27 11 39 26q-20 17 -59 23z" />
    <glyph glyph-name="C" unicode="C" horiz-adv-x="506" 
d="M330 728q7 -34 19 -96.5t17 -86.5q-36 -7 -87 -16q-37 -3 -54.5 -36.5t-17.5 -80.5q0 -76 44 -128q17 -22 49 -22q22 0 44 10q17 9 34.5 20.5t38.5 27t33 22.5l1 -1l1 -1v-1l1 -1l1 -1l1 -1v-1l1 -1l1 -1v-1l1 -1l1 -1v-1l1 -1l1 -1v-1l1 -1l1 -1l1 -1v-1l1 -1l1 -1v-1
l1 -1l1 -1v-1l1 -1l1 -1v-1l1 -1l1 -1v-1l1 -1l1 -1l1 -1v-1l1 -1l1 -1v-1l1 -1l1 -1v-1l1 -1l1 -1v-1l1 -1l1 -1l1 -1v-1l1 -1l1 -1v-1l1 -1l1 -1v-1l1 -1l1 -1v-1l1 -1l1 -1l1 -1v-1l1 -1l1 -1v-1l1 -1l1 -1v-1l1 -1l1 -1v-1l1 -1l1 -1v-1l1 -1l1 -1l1 -1v-1l1 -1l1 -1
l1 -1v-1l1 -1l1 -1v-1l1 -1l1 -1v-1l1 -1l1 -1v-1l1 -1l1 -1l1 -1v-1l1 -1l1 -1v-1l1 -1l1 -1v-1l1 -1l1 -1v-1l1 -1l1 -1l1 -1v-1l1 -1l1 -1v-1l1 -1l1 -1v-1l1 -1l1 -1v-1l1 -1l1 -1v-1l1 -1l1 -1l1 -1v-1l1 -1l1 -1v-1l1 -1l1 -1v-1l1 -1l1 -1v-1l1 -1l1 -1l1 -1v-1l1 -1
l1 -1v-1l1 -1l1 -1v-1l1 -1l1 -1v-1l1 -1l1 -1l1 -1v-1l1 -1l1 -1q-7 -5 -47 -33t-56 -37.5t-48.5 -24t-60.5 -19.5q-21 -5 -43 -5q-74 0 -143 48q-67 49 -102 129t-35 168q0 81 33 151t96 109q25 15 51.5 24t73 17.5t55.5 10.5z" />
    <glyph glyph-name="D" unicode="D" horiz-adv-x="542" 
d="M188 717q162 0 254 -81t92 -229q0 -97 -41 -176t-122 -128.5t-188 -50.5l-92 -9l-70 662q17 1 55 5t63 5.5t49 1.5zM226 530l30 -282q52 13 72 56.5t20 113.5q-3 39 -38.5 73.5t-83.5 38.5z" />
    <glyph glyph-name="E" unicode="E" horiz-adv-x="581" 
d="M473 620l25 -184l-306 -40l12 -39l170 48l50 -179l-189 -53v-23l299 42l26 -183l-511 -73v293l-100 322z" />
    <glyph glyph-name="F" unicode="F" horiz-adv-x="512" 
d="M21 736h471v-185h-270q1 -11 2.5 -33t2.5 -33h173v-186h-166v-234h-186v319q-5 69 -15 195t-12 157z" />
    <glyph glyph-name="G" unicode="G" horiz-adv-x="636" 
d="M194 369q0 -62 44.5 -104.5t104.5 -42.5q36 0 66 16q-2 7 -5.5 22t-5.5 23q-39 -5 -118 -13q-3 29 -10 90.5t-10 93.5q54 6 153.5 17t126.5 14q12 -50 37.5 -154.5t38.5 -158.5l-28 -28q-98 -108 -250 -108q-66 0 -128 26.5t-107 74.5q-46 45 -70.5 105.5t-24.5 125.5
q0 106 57.5 190.5t151.5 122.5q24 10 53.5 15.5t48 6.5t57 2t50.5 1q1 -30 2.5 -92t2.5 -93q-20 -1 -61 -2h-7q-78 0 -115 -34q-26 -20 -40 -51t-14 -65z" />
    <glyph glyph-name="H" unicode="H" horiz-adv-x="541" 
d="M213 689q15 -147 23 -228q54 1 78 1q-2 40 -5.5 114.5t-4.5 93.5q128 6 186 9q2 -45 13.5 -284t17.5 -366q-99 -5 -185 -9q-5 88 -13 256h-44.5h-44.5q-4 -36 -14 -114.5t-15 -119.5q-23 2 -58 6.5t-67 8.5t-59 7q4 34 13 101q17 135 25 202q-6 59 -17 167t-13 136
q122 13 184 19z" />
    <glyph glyph-name="I" unicode="I" horiz-adv-x="237" 
d="M207 666q1 -91 3 -204t4 -231t3 -204q-67 -1 -185 -2l-11 637q66 2 186 4z" />
    <glyph glyph-name="J" unicode="J" horiz-adv-x="543" 
d="M266 -99q-107 0 -164 67.5t-57 179.5q0 27 4 79.5t5 58.5q30 -3 92 -7t93 -7l-7 -88q0 -7 -0.5 -20.5t-0.5 -20.5q0 -37 16 -52q11 -4 23 -4q22 0 41.5 11t25.5 30q-5 76 -16 216.5t-13 175.5q-46 -3 -136.5 -10t-136.5 -10q-5 61 -14 185h1h1h1h1h1h1h1h1h1h1l1 1h1h1h1
h1h1h1h1h1h1h1h1h1l1 1h1h1h1h1h1h1h1h1h1h1h1h1l1 1h1h1h1h1h1h1h1h1h1h1h1h1l1 1h1h1h1h1h1h1h1h1h1h1h1h1h1l1 1h1h1h1h1h1h1h1h1h1h1h1h1l1 1h1h1h1h1h1h1h1h1h1h1h1h1l1 1h1h1h1h1h1h1h1h1h1h1h1h1l1 1h1h1h1h1h1h1h1h1h1h1h1h1h1l1 1h1h1h1h1h1h1h1h1h1h1h1h1l1 1h1h1
h1h1h1h1h1h1h1h1h1h1l1 1h1h1h1h1h1h1h1h1h1h1h1h1l1 1h1h1h1h1h1h1h1h1h1h1h1h1h1l1 1h1h1h1h1h1h1h1h1h1h1h1h1l1 1h1h1h1h1h1h1h1h1h1h1h1h1l1 1h1h1h1h1h1h1h1h1h1h1h1h1h1l1 1h1h1h1h1h1h1h1h1h1h1h1h1l1 1h1h1h1h1h1h1h1h1h1h1h1h1l1 1h1h1h1h1h1h1h1h1h1h1h1h1l1 1h1
h1h1h1h1h1h1h1h1h1h1h1h1l1 1h1h1h1h1h1h1h1h1h1h1h1h1l1 1h1h1h1h1h1h1h1h1h1h1h1h1l1 1h1h1h1h1h1h1h1h1h1h1h1h1l1 1h1h1h1h1h1h1h1h1h1h1h1h1h1l1 1h1h1h1h1h1h1h1h1h1h1h1h1l1 1h1h1h1h1h1h1h1h1h1h1h1h1l1 1h1h1h1h1h1h1h1h1h1h1h1h1l1 1h1h1h1h1h1h1h1h1h1h1h1h1h1
l1 1h1h1h1h1h1h1h1h1h1h1h1h1l1 1h1h1h1h1h1h1h1h1h1h1h1h1l1 1h1h1h1h1h1h1h1h1h1h1h1h1h1l1 1h1h1h1h1h1h1h1h1h1h1h1h1l1 1h1h1h1h1h1h1h1h1h1h1h1h1l1 1h1h1h1h1h1h1h1h1h1h1h1h1l1 1h1h1h1h1h1h1h1h1h2l21 -273q14 -184 21 -275q2 -18 2 -35q0 -70 -38.5 -125
t-96.5 -82.5t-122 -27.5z" />
    <glyph glyph-name="K" unicode="K" horiz-adv-x="573" 
d="M207 750q4 -39 11 -116q8 -85 12 -127q20 12 35 22q22 35 65.5 105t65.5 105q61 -37 158 -96q-9 -15 -51 -82.5t-64 -103.5q103 -204 160 -317q-80 -39 -167 -82q-22 45 -68 135.5t-69 135.5q-50 -30 -56 -34l-1 -1v-1v-1v-1v-1v-1v-1v-1v-1l-1 -1v-1v-1v-1v-1v-1v-1v-1
v-1l-1 -1v-1v-1v-1v-1v-1v-1v-1v-1l-1 -1v-1v-1v-1v-1v-1v-1v-1v-1l-1 -1v-1v-1v-1v-1v-1v-1v-1v-1l-1 -1v-1v-1v-1v-1v-1v-1v-1v-1l-1 -1v-1v-1v-1v-1v-1v-1v-1v-1l-1 -1v-1v-1v-1v-1v-1v-1v-1v-1l-1 -1v-1v-1v-1v-1v-1v-1v-1v-1l-1 -1v-1v-1v-1v-1v-1v-1v-1v-1l-1 -1v-1
v-1v-1v-1v-1v-1v-1v-1l-1 -1v-1v-1v-1v-1v-1v-1v-1v-1l-1 -1v-1v-1v-1v-1v-1v-1v-1v-1l-1 -1v-1v-1v-1v-1v-1v-1v-1v-1l-1 -1v-1v-1v-1v-1v-1v-1v-1v-1l-1 -1v-1v-1v-1v-1v-1v-1v-1l-1 -1v-1v-1v-1v-1v-1v-1v-1v-1l-1 -1v-1v-1v-1v-2v-1v-1v-1v-1l-1 -1v-1v-1v-1v-1v-1v-1
v-1v-1l-1 -1v-1v-1v-1v-1v-1v-1v-1v-1l-1 -1v-1v-1v-1v-1v-1v-1v-1v-1l-1 -1v-1v-1v-1v-1v-1v-1v-1v-1l-1 -1v-1v-1v-1v-1v-1v-1v-1v-1l-1 -1v-1v-1v-1v-1v-1v-1v-1v-1l-1 -1v-1v-1v-1v-1v-1v-1v-1v-1l-1 -1v-1v-1v-1v-1v-1v-1v-1v-1l-1 -1v-1v-1v-1v-1v-1v-1v-1v-1l-1 -1
v-1v-1v-1v-1v-1v-1v-1v-1l-1 -1v-1v-1v-1v-1v-1v-1v-1v-1l-1 -1v-1v-1v-1v-1v-1v-1v-1v-1l-1 -1v-1v-1v-1v-1v-1v-1v-1v-1l-1 -1v-1v-1v-1v-1v-1v-1v-1v-1l-1 -1v-1v-1v-1v-1v-1v-1v-1l-1 -1q-67 7 -184 20q6 57 18.5 167.5t18.5 163.5q-7 74 -19.5 211.5t-15.5 172.5
q30 3 91.5 8.5t92.5 8.5z" />
    <glyph glyph-name="L" unicode="L" horiz-adv-x="495" 
d="M206 720q13 -324 19 -486q86 -1 261 -3q-1 -31 -1.5 -92.5t-0.5 -92.5q-294 3 -437 5q-17 426 -26 662h1h1h1l1 1h1h1h1h1h1h1h1h1h1h1h1h1h1h1h1h1h1h1h1h1h1h1h1h1h1l1 1h1h1h1h1h1h1h1h1h1h1h1h1h1h1h1h1h1h1h1h1h1h1h1h1h1l1 1h1h1h1h1h1h1h1h1h1h1h1h1h1h1h1h1h1h1
h1h1h1h1h1h1h1l1 1h1h1h1h1h1h1h1h1h1h1h1h1h1h1h1h1h1h1h1h1h1h1h1h1h1l1 1h1h1h1h1h1h1h1h1h1h1h1h1h1h1h1h1h1h1h1h1h1h1h1h1h1h1l1 1h1h1h1h1h1h1h1h1h1h1h1h1h1h1h1h1h1h1h1h1h1h1h1h1h1l1 1h1h1h1h1h1h1h1h1h1h1h1h1h1h1h1h1h1h1h1h1h1h1h1h1z" />
    <glyph glyph-name="M" unicode="M" horiz-adv-x="605" 
d="M450 687q16 -38 93 -228t118 -291q-115 -47 -172 -70l-1 1v1v1l-1 1v1l-1 1v1v1l-1 1v1l-1 1v1v1l-1 1v1l-1 1v1v1l-1 1v1l-1 1v1v1l-1 1v1l-1 1v1v1l-1 1v1l-1 1v1l-1 1v1v1l-1 1v1l-1 1v1v1l-1 1v1l-1 1v1v1l-1 1v1l-1 1v1v1l-1 1v1l-1 1v1v1l-1 1v1l-1 1v1v1l-1 1v1
l-1 1v1v1l-1 1v1l-1 1v1l-1 1v1v1l-1 1v1l-1 1v1v1l-1 1v1l-1 1v1v1l-1 1v1l-1 1v1v1l-1 1v1l-1 1v1v1l-1 1v1l-1 1v1v1l-1 1v1l-1 1v1v1l-1 1v1l-1 1v1v1l-1 1v1l-1 1v1l-1 1v1v1l-1 1v1l-1 1v1v1l-1 1v1l-1 1v1v1l-1 1v1l-1 1v1v1l-1 1l-1 2v1v1l-1 1v1l-1 1v1v1l-1 1v1
l-1 1v1v1l-1 1v1l-1 1v1v1l-1 1v1l-1 1v1v1l-1 1v1l-1 1v1l-1 1v1v1l-1 1v1l-1 1v1v1l-1 1v1l-1 1v1v1l-1 1v1l-1 1v1v1l-1 1v1l-1 1v1v1l-1 1v1l-1 1v1v1l-1 1v1l-1 1v1v1l-1 1v1l-1 1v1l-1 1v1v1l-1 1v1l-1 1v1v1l-1 1v1l-1 1v1v1l-1 1v1l-1 1v1v1l-1 1v1l-1 1v1v1l-1 1v1
l-1 1v1v1l-1 1v1l-1 1v1v1l-1 1v1l-1 1v1l-1 1v1v1l-1 1v1l-1 1v1v1l-1 1v1l-1 1v1v1l-1 1v1l-1 1v1v1l-1 1v1l-1 1v1v1l-1 1v1l-1 1v1v1l-1 1v1l-1 2q-16 -15 -46.5 -45t-45.5 -45q-62 54 -92 81q-12 -41 -37 -127t-38 -130q-47 14 -178 52l156 537q76 -67 182 -160
q107 103 167 162z" />
    <glyph glyph-name="N" unicode="N" horiz-adv-x="581" 
d="M28 643q104 -82 347 -272q58 182 86 266q45 -15 176 -57v-1l-1 -1v-1v-1l-1 -1v-1v-1l-1 -1v-1v-1l-1 -1v-1v-1v-1l-1 -1v-1v-1l-1 -1v-1v-1l-1 -1v-1v-1l-1 -1v-1v-1l-1 -1v-1v-1l-1 -1v-1v-1l-1 -1v-1v-1l-1 -1v-1v-1l-1 -1v-1v-1l-1 -1v-1v-1v-1l-1 -1v-1v-1l-1 -1v-1
v-1l-1 -1v-1v-1l-1 -1v-1v-1l-1 -1v-1v-1l-1 -1v-1v-1l-1 -1v-1v-1l-1 -1v-1v-1l-1 -1v-1v-1l-1 -1v-1v-1l-1 -1v-1v-1v-1l-1 -1v-1v-1l-1 -1v-1v-1l-1 -1v-1v-1l-1 -1v-1v-1l-1 -1v-1v-1l-1 -1v-1v-1l-1 -1v-1v-1l-1 -1v-1v-1l-1 -1v-1v-1l-1 -1v-1v-1v-1l-1 -1v-1v-1
l-1 -1v-1v-1l-1 -1v-1v-1l-1 -1v-1v-1l-1 -1v-1v-1l-1 -1v-1v-1l-1 -1v-1v-1l-1 -1v-1v-1l-1 -1v-1v-1l-1 -1v-1v-1v-1l-1 -1v-1v-1l-1 -1v-1v-1l-1 -1v-1v-1l-1 -1v-1v-1l-1 -1v-1v-1l-1 -1v-1v-1l-1 -1v-1v-1l-1 -1v-1v-1l-1 -1v-1v-1l-1 -1v-1v-1l-1 -1v-1v-1v-1l-1 -1
v-1v-1l-1 -1v-1v-1l-1 -1v-1v-1l-1 -1v-1v-1l-1 -1v-1v-1l-1 -1v-1v-1l-1 -1v-1v-1l-1 -1v-1v-1l-1 -1v-1v-1l-1 -1v-1v-1v-1l-1 -1v-1v-1l-1 -1v-1v-1l-1 -1v-1v-1l-1 -1v-1v-1l-1 -1v-1v-1l-1 -1v-1v-1l-1 -1v-1v-1l-1 -1v-1v-1l-1 -1v-1v-1l-1 -1v-1v-1v-1l-1 -1v-1v-1
l-1 -1v-1v-1l-1 -1v-1v-1l-1 -1v-1v-1l-1 -1v-1v-1l-1 -1v-1v-1l-1 -1v-1v-1l-1 -1v-1v-1l-1 -1v-1v-1l-1 -1v-1v-1l-1 -1v-1v-1v-1l-1 -1v-1v-1l-1 -1v-1v-1l-1 -1v-1v-1l-1 -1v-1v-1l-1 -1v-1v-1l-1 -1v-1v-1l-1 -1v-1v-1l-1 -1v-1v-1l-1 -1v-1v-1l-1 -1v-1v-1v-1l-1 -1
v-1v-1l-1 -1v-1v-1l-1 -1v-1v-1l-1 -1v-1v-1l-1 -1v-1v-1l-1 -1v-1v-1l-1 -1v-1v-1l-1 -1v-1v-1l-1 -1v-1v-1l-1 -1v-1v-1l-1 -1v-1v-1v-1l-1 -1v-1v-1l-1 -1v-1v-1l-1 -1v-1v-1l-1 -1v-1v-1l-1 -1v-1v-1l-1 -1v-1v-1l-1 -1v-1v-1l-1 -1v-1v-1l-1 -1v-1v-1l-1 -1v-1v-1
l-1 -1v-1v-1l-1 -1v-1v-1v-1l-1 -1v-1v-1l-1 -1v-1v-1l-1 -1v-1v-1l-1 -1v-1v-1l-1 -1v-1v-1l-1 -1v-1v-1l-1 -1v-1v-1l-1 -1v-1v-1l-1 -1v-1v-1l-1 -1v-1v-1l-1 -1v-1v-1v-1l-1 -1v-1v-1l-1 -1v-1v-1l-1 -1v-1v-1l-1 -1v-1v-1l-1 -1v-1v-1l-1 -1v-1v-1l-1 -1v-1v-1l-1 -1
v-1v-1l-1 -1v-1v-1l-1 -1v-1v-1v-1l-1 -1v-1v-1l-1 -1v-1v-1l-1 -1v-1v-1l-1 -1v-1v-1l-1 -1v-1v-1l-1 -1v-1v-1l-1 -1v-1v-1l-1 -1v-1v-1l-1 -1v-1v-1l-1 -1v-1v-1v-1l-1 -1v-1v-1l-1 -1v-1v-1l-1 -1v-1v-1l-1 -1v-1v-1l-1 -1v-1v-1l-1 -1v-1v-1l-1 -1v-1v-1l-1 -1v-1v-1
l-1 -1v-1v-1l-1 -1v-1v-1l-1 -1v-1v-1v-1l-1 -1v-1v-1l-1 -1v-1v-1l-1 -1v-1v-1l-1 -1v-1v-1l-1 -1v-1l-1 -2q-235 185 -260 204q-2 -118 -2 -177q-31 0 -93 1t-93 1q2 184 7 553z" />
    <glyph glyph-name="O" unicode="O" 
d="M280 614h3q107 0 183 -74q40 -37 62 -88.5t22 -106.5q0 -115 -79 -193.5t-193 -78.5q-59 0 -114 26t-92 71q-63 71 -63 173q0 103 64 175q37 45 90.5 70.5t111.5 25.5h5zM280 258q34 0 59.5 25t25.5 62q0 33 -25 58.5t-58 25.5h-2h-3q-32 0 -57.5 -24.5t-25.5 -59.5
t24.5 -61t61.5 -26z" />
    <glyph glyph-name="P" unicode="P" horiz-adv-x="538" 
d="M390 656q7 -7 23 -22t28 -27t22 -24q65 -75 65 -160q0 -26 -7 -50q-7 -28 -25 -59.5t-30.5 -47.5t-40.5 -50q-20 -3 -206 -23q0 -31 -0.5 -92.5t-1.5 -92.5q-62 1 -185 3q2 177 3 255q-2 71 -7.5 201t-6.5 162q113 8 369 27zM317 465q-29 -3 -103 -8q0 -13 1 -39t2 -39
q31 4 102 12q12 9 12 29q0 25 -14 45z" />
    <glyph glyph-name="Q" unicode="Q" horiz-adv-x="672" 
d="M327 696h4q63 0 121 -25t101 -71q44 -42 67 -100t23 -121q0 -114 -69 -195q17 -24 51 -73.5t52 -74.5l-152 -106q-20 28 -56 79.5t-47 68.5q-46 -14 -95 -14q-62 0 -119 22.5t-99 64.5q-47 43 -73 103.5t-26 125.5q0 20 3 40q11 113 101.5 194.5t203.5 81.5h9zM323 510
q-50 0 -88.5 -37.5t-38.5 -92.5q0 -45 30 -82.5t75 -45.5q-42 60 -79 113q84 59 152 106l82 -109q1 9 1 19q0 51 -38 90.5t-88 39.5q-3 0 -5 -1h-3z" />
    <glyph glyph-name="R" unicode="R" horiz-adv-x="598" 
d="M387 601q3 -2 20 -18.5t21.5 -21t18 -18.5t20 -22.5t15.5 -21t15 -24.5q28 -48 28 -105t-27 -105q31 -28 89.5 -80t85.5 -77q-17 -19 -39.5 -44t-44.5 -50t-39 -44q-130 116 -205 183q-44 -4 -103 -9q-8 -40 -24 -116t-23 -111q-29 6 -89.5 18.5t-91.5 19.5q10 50 29 143
t28 133q-12 61 -34.5 175.5t-32.5 165.5q54 4 383 29zM314 409q-31 -2 -88 -6q2 -11 7 -35.5t7 -37.5h1h1h1h1h1l1 1h1h1h1h1h1h1h1h1h1h1h1l1 1h1h1h1h1h1h1h1h1h1h1h1l1 1h1h1h1h1h1h1h2h1h1h1l1 1h1h1h1h1h1h1h1h1h1h1h1l1 1h1h1h1h1h1h1h1h1h1h1h1l1 1h1h1h1h1h1h1h1h1
h2q13 8 13 29q0 25 -15 44z" />
    <glyph glyph-name="S" unicode="S" horiz-adv-x="445" 
d="M318 700q10 -28 31.5 -86t32.5 -88q-11 -4 -31.5 -11.5t-28.5 -10.5q-82 -27 -109 -75l44 -22l43 -21.5t37 -20.5t34.5 -24t26.5 -26.5t22.5 -32.5t12 -38t5.5 -47q0 -30 -7 -66q-8 -20 -19 -37t-22.5 -30t-29 -24.5t-30.5 -19.5t-36 -15.5t-36.5 -12t-41 -9.5t-40 -7.5
t-42.5 -7t-41 -6.5q-4 33 -12.5 94.5t-11.5 89.5q10 2 48 6.5t59 7.5q3 1 21 5t25.5 6.5t17.5 10t14 18.5q-32 16 -78.5 39.5t-88.5 45t-78 39.5q2 76 2 78q8 57 35 105.5t69.5 84.5t92 62.5t110.5 45.5z" />
    <glyph glyph-name="T" unicode="T" horiz-adv-x="520" 
d="M-46 681q132 -5 620 -21q-1 -33 -3.5 -95t-3.5 -91q-43 2 -130 5t-130 4q2 -64 5.5 -146t6.5 -165t5 -146q-141 -5 -185 -7q-3 83 -10 250q-5 147 -8 220l-174 7q1 31 3.5 92.5t3.5 92.5z" />
    <glyph glyph-name="U" unicode="U" horiz-adv-x="642" 
d="M436 544h1h1h1h1h1h1h1h1h1l1 -1h1h1h1h1h1h1h1h1h1h1h1h1h1h1h1h1h1h1h1h1h1h1l1 -1h1h1h1h1h1h1h1h1h1h1h1h1h1h1h1h1h1h1h1h1h1h1l1 -1h1h1h1h1h1h1h1h1h1h1h1h1h1h1h1h1h1h1h1h1h1h1l1 -1h1h1h1h1h1h1h1h1h1h1h1h1h1h1h1h1h1h1h1h1h1h1l1 -1h1h1h1h1h1h1h1h1h1h1h1h1
h1h1h1h1h1h1h1h1h1h1l1 -1h1h1h1h1h1h1h1h1h1h1h1h1h1h1h1h1h1h1h1h1h1h1l1 -1h1h1h1h1h1h1h1h1h1h1h1h1h1h1h1h1h1h1h1h1h1h1l1 -1h1h1h1h1h1h1h1h1h1h1h1h1h1h1q-2 -60 -7.5 -180t-7.5 -180q0 -68 -40 -127t-103 -86q-62 -25 -137 -25q-45 0 -92 9q-71 15 -125 66.5
t-62 120.5q-6 76 -14.5 216.5t-11.5 179.5q31 2 185 12q4 -59 11 -171.5t11 -164.5q1 -6 1 -19t2 -23t7 -17q29 -24 86 -24q88 0 95 49q4 70 9.5 198.5t7.5 173.5z" />
    <glyph glyph-name="V" unicode="V" horiz-adv-x="440" 
d="M339 695q16 -8 74.5 -38t90.5 -46q-57 -111 -175 -342t-179 -350q-35 119 -107 356.5t-108 356.5q54 17 178 54q14 -47 41.5 -137.5t40.5 -134.5q96 187 144 281z" />
    <glyph glyph-name="W" unicode="W" horiz-adv-x="659" 
d="M550 613q29 -11 87 -32t88 -31q-42 -116 -125 -347t-124 -347q-110 166 -164 248q-24 -33 -72 -100.5t-72 -101.5q-77 181 -233 542q57 24 171 73q17 -40 51 -119.5t51 -118.5l54 75q37 53 56 79q75 -114 108 -165q21 58 62 172.5t62 172.5z" />
    <glyph glyph-name="X" unicode="X" horiz-adv-x="714" 
d="M213 647q25 -31 78 -96t80 -99q30 34 86.5 98t63.5 72q92 -82 139 -123q-27 -31 -84 -95t-86 -98q33 -41 101 -124.5t102 -125.5q-24 -19 -72 -58t-72 -59q-9 12 -183 225q-34 -40 -102.5 -119t-101.5 -119q-24 21 -70.5 61t-70.5 60q151 176 226 263q-18 23 -55.5 69
t-66.5 82t-56 69q102 83 144 117z" />
    <glyph glyph-name="Y" unicode="Y" horiz-adv-x="453" 
d="M443 718l66 -72q40 -44 59 -65q-42 -39 -124.5 -115t-122.5 -113q2 -267 4 -403q-131 -1 -186 -2q-3 267 -4 401q-83 66 -250 199l1 1v1l1 1l1 1l1 1l1 1v1l1 1l1 1l1 1v1l1 1l1 1l1 1l1 1v1l1 1l1 1l1 1l1 1v1l1 1l1 1l1 1l1 1v1l1 1l1 1l1 1l1 1v1l1 1l1 1l1 1l1 1v1
l1 1l1 1l1 1l1 1v1l1 1l1 1l1 1l1 1v1l1 1l1 1l1 1l1 1v1l1 1l1 1l1 1l1 1v1l1 1l1 1l1 1l1 1v1l1 1l1 1l1 1l1 1v1l1 1l1 1l1 1l1 1v1l1 1l1 1l1 1v1l1 1l1 1l1 1l1 1v1l1 1l1 1l1 1l1 1v1l1 1l1 1l1 1l1 1v1l1 1l1 1l1 1l1 1v1l1 1l1 1l1 1l1 1v1l1 1l1 1l1 1l1 1v1l1 1
l1 1l1 1l1 1v1l1 1l1 1l1 1l1 1v1l1 1l1 1l1 1l1 1v1l1 1l1 1l1 1l1 1v1l1 1l1 1l1 1l1 1v1l1 1l1 1l1 1l1 1v1l1 1l1 1l1 1l1 1v1l1 1l1 1l1 1v1l1 1q35 -27 109.5 -86.5t113.5 -90.5q74 67 220 202z" />
    <glyph glyph-name="Z" unicode="Z" horiz-adv-x="555" 
d="M92 651q71 -25 224.5 -79t234.5 -83q-42 -57 -124 -169t-122 -165q187 8 233 9q5 -123 8 -185l-620 -26q13 18 137.5 187t189.5 257l-1 1h-1h-1l-1 1h-1h-1l-1 1h-1l-1 1h-1h-1l-1 1h-1h-1l-1 1h-1h-1l-1 1h-1h-1l-1 1h-1h-1l-1 1h-1l-1 1h-1h-1l-1 1h-1h-1l-1 1h-1h-1
l-1 1h-1h-1l-1 1h-1h-1l-1 1h-1l-1 1h-1h-1l-1 1h-1h-1l-1 1h-1h-1l-1 1h-1h-1l-1 1h-1h-1l-1 1h-1h-1l-1 1h-1l-1 1h-1h-1l-1 1h-1h-1l-1 1h-1h-1l-1 1h-1h-1l-1 1h-1h-1l-1 1h-1l-1 1h-1h-1l-1 1h-1h-1l-1 1h-1h-1l-1 1h-1h-1l-1 1h-1h-1l-1 1h-1l-1 1h-1h-1l-1 1h-1h-1
l-1 1h-1h-1l-1 1h-1h-1l-1 1h-1l-1 1h-1h-1l-1 1h-1h-1l-1 1h-1h-1l-1 1h-1h-1l-1 1h-1l-1 1h-1h-1l-1 1h-1h-1l-1 1h-1h-1l-1 1h-1h-1l-1 1h-1h-1l-1 1h-1h-1l-1 1h-1l-1 1h-1h-1l-1 1h-1h-1l-1 1h-1h-1l-1 1h-1h-1l-1 1h-1h-1l-1 1h-1l-1 1h-1h-1l-1 1h-1h-1l-1 1h-1h-1
l-1 1h-1h-1l-1 1h-1h-1l-1 1h-1l-1 1h-1h-1l-1 1h-1h-1l-1 1h-1h-1l-1 1h-1h-1l-1 1h-1h-1l-1 1h-1l-1 1h-1h-1l-1 1h-1h-1l-1 1h-1h-1l-1 1h-1h-1l-1 1h-1h-1l-1 1h-1l-1 1h-1h-1l-1 1h-1h-1l-1 1h-1h-1l-2 1q17 46 62 175z" />
    <glyph glyph-name="bracketleft" unicode="[" horiz-adv-x="359" 
d="M32 785h290v-205h-105q3 -82 4 -266.5t4 -266.5q44 0 44 -1t44 -2q-1 -31 -1.5 -92.5t-0.5 -92.5q-73 1 -132 2q-61 2 -132 3q-15 381 -15 921z" />
    <glyph glyph-name="backslash" unicode="\" horiz-adv-x="405" 
d="M480 43q-104 -56 -163 -89q-52 94 -199.5 364t-198.5 362q102 56 162 89q52 -93 199.5 -362.5t199.5 -363.5z" />
    <glyph glyph-name="bracketright" unicode="]" horiz-adv-x="359" 
d="M322 -141h-290v205h105q-3 81 -4 266t-4 266q-44 1 -44 2t-44 1q1 31 1.5 93t0.5 93q73 -1 132 -2.5t132 -2.5q15 -381 15 -921z" />
    <glyph glyph-name="asciicircum" unicode="^" horiz-adv-x="345" 
d="M119 827q22 -18 106.5 -126t105.5 -125q-20 -23 -42 -46.5t-42 -46.5q-19 15 -162 132q-143 -117 -162 -132q-20 23 -42 46.5t-42 46.5q18 14 62 69.5l88 111t62 70.5h68z" />
    <glyph glyph-name="underscore" unicode="_" horiz-adv-x="587" 
d="M564 -66q-52 -1 -159.5 -4t-215.5 -6t-159 -4q-1 62 -2 185q65 2 270.5 7.5t263.5 7.5q1 -69 2 -186z" />
    <glyph glyph-name="grave" unicode="`" horiz-adv-x="345" 
d="M119 827q22 -18 106.5 -126t105.5 -125q-20 -23 -42 -46.5t-42 -46.5q-22 17 -126 102.5t-125 102.5q31 36 123 139z" />
    <glyph glyph-name="a" unicode="a" horiz-adv-x="683" 
d="M343 705q23 -44 102 -190.5t131 -243t104 -189.5q-52 -28 -163 -88q-34 60 -64 114q-14 -7 -41.5 -21.5t-40.5 -21.5q-13 25 -40.5 76t-40.5 77q-20 -37 -61 -112t-62 -113q-19 10 -51.5 28t-60 32.5t-51.5 27.5q281 518 339 624zM342 314l-21 -39t-21 -38q33 18 65 35
q-16 29 -23 42z" />
    <glyph glyph-name="b" unicode="b" horiz-adv-x="556" 
d="M533 309v-1q2 -16 2 -32q0 -123 -156 -194q-73 -30 -194 -30q-51 0 -129 6l-15 284l-15 2l-3 72l13 4l-15 287q137 7 169 8q300 -1 310 -190q2 -15 2 -30q0 -44 -22 -83q38 -42 53 -103zM216 529l4 -61l60 16q22 6 34 16q-17 26 -98 29zM228 312l4 -75q43 4 77 17
q27 11 39 26q-20 17 -59 23z" />
    <glyph glyph-name="c" unicode="c" horiz-adv-x="506" 
d="M330 728q7 -34 19 -96.5t17 -86.5q-36 -7 -87 -16q-37 -3 -54.5 -36.5t-17.5 -80.5q0 -76 44 -128q17 -22 49 -22q22 0 44 10q17 9 34.5 20.5t38.5 27t33 22.5l1 -1l1 -1v-1l1 -1l1 -1l1 -1v-1l1 -1l1 -1v-1l1 -1l1 -1v-1l1 -1l1 -1v-1l1 -1l1 -1l1 -1v-1l1 -1l1 -1v-1
l1 -1l1 -1v-1l1 -1l1 -1v-1l1 -1l1 -1v-1l1 -1l1 -1l1 -1v-1l1 -1l1 -1v-1l1 -1l1 -1v-1l1 -1l1 -1v-1l1 -1l1 -1l1 -1v-1l1 -1l1 -1v-1l1 -1l1 -1v-1l1 -1l1 -1v-1l1 -1l1 -1l1 -1v-1l1 -1l1 -1v-1l1 -1l1 -1v-1l1 -1l1 -1v-1l1 -1l1 -1v-1l1 -1l1 -1l1 -1v-1l1 -1l1 -1
l1 -1v-1l1 -1l1 -1v-1l1 -1l1 -1v-1l1 -1l1 -1v-1l1 -1l1 -1l1 -1v-1l1 -1l1 -1v-1l1 -1l1 -1v-1l1 -1l1 -1v-1l1 -1l1 -1l1 -1v-1l1 -1l1 -1v-1l1 -1l1 -1v-1l1 -1l1 -1v-1l1 -1l1 -1v-1l1 -1l1 -1l1 -1v-1l1 -1l1 -1v-1l1 -1l1 -1v-1l1 -1l1 -1v-1l1 -1l1 -1l1 -1v-1l1 -1
l1 -1v-1l1 -1l1 -1v-1l1 -1l1 -1v-1l1 -1l1 -1l1 -1v-1l1 -1l1 -1q-7 -5 -47 -33t-56 -37.5t-48.5 -24t-60.5 -19.5q-21 -5 -43 -5q-74 0 -143 48q-67 49 -102 129t-35 168q0 81 33 151t96 109q25 15 51.5 24t73 17.5t55.5 10.5z" />
    <glyph glyph-name="d" unicode="d" horiz-adv-x="542" 
d="M188 717q162 0 254 -81t92 -229q0 -97 -41 -176t-122 -128.5t-188 -50.5l-92 -9l-70 662q17 1 55 5t63 5.5t49 1.5zM226 530l30 -282q52 13 72 56.5t20 113.5q-3 39 -38.5 73.5t-83.5 38.5z" />
    <glyph glyph-name="e" unicode="e" horiz-adv-x="581" 
d="M473 620l25 -184l-306 -40l12 -39l170 48l50 -179l-189 -53v-23l299 42l26 -183l-511 -73v293l-100 322z" />
    <glyph glyph-name="f" unicode="f" horiz-adv-x="512" 
d="M21 736h471v-185h-270q1 -11 2.5 -33t2.5 -33h173v-186h-166v-234h-186v319q-5 69 -15 195t-12 157z" />
    <glyph glyph-name="g" unicode="g" horiz-adv-x="636" 
d="M194 369q0 -62 44.5 -104.5t104.5 -42.5q36 0 66 16q-2 7 -5.5 22t-5.5 23q-39 -5 -118 -13q-3 29 -10 90.5t-10 93.5q54 6 153.5 17t126.5 14q12 -50 37.5 -154.5t38.5 -158.5l-28 -28q-98 -108 -250 -108q-66 0 -128 26.5t-107 74.5q-46 45 -70.5 105.5t-24.5 125.5
q0 106 57.5 190.5t151.5 122.5q24 10 53.5 15.5t48 6.5t57 2t50.5 1q1 -30 2.5 -92t2.5 -93q-20 -1 -61 -2h-7q-78 0 -115 -34q-26 -20 -40 -51t-14 -65z" />
    <glyph glyph-name="h" unicode="h" horiz-adv-x="541" 
d="M213 689q15 -147 23 -228q54 1 78 1q-2 40 -5.5 114.5t-4.5 93.5q128 6 186 9q2 -45 13.5 -284t17.5 -366q-99 -5 -185 -9q-5 88 -13 256h-44.5h-44.5q-4 -36 -14 -114.5t-15 -119.5q-23 2 -58 6.5t-67 8.5t-59 7q4 34 13 101q17 135 25 202q-6 59 -17 167t-13 136
q122 13 184 19z" />
    <glyph glyph-name="i" unicode="i" horiz-adv-x="237" 
d="M207 666q1 -91 3 -204t4 -231t3 -204q-67 -1 -185 -2l-11 637q66 2 186 4z" />
    <glyph glyph-name="j" unicode="j" horiz-adv-x="543" 
d="M266 -99q-107 0 -164 67.5t-57 179.5q0 27 4 79.5t5 58.5q30 -3 92 -7t93 -7l-7 -88q0 -7 -0.5 -20.5t-0.5 -20.5q0 -37 16 -52q11 -4 23 -4q22 0 41.5 11t25.5 30q-5 76 -16 216.5t-13 175.5q-46 -3 -136.5 -10t-136.5 -10q-5 61 -14 185h1h1h1h1h1h1h1h1h1h1l1 1h1h1h1
h1h1h1h1h1h1h1h1h1l1 1h1h1h1h1h1h1h1h1h1h1h1h1l1 1h1h1h1h1h1h1h1h1h1h1h1h1l1 1h1h1h1h1h1h1h1h1h1h1h1h1h1l1 1h1h1h1h1h1h1h1h1h1h1h1h1l1 1h1h1h1h1h1h1h1h1h1h1h1h1l1 1h1h1h1h1h1h1h1h1h1h1h1h1l1 1h1h1h1h1h1h1h1h1h1h1h1h1h1l1 1h1h1h1h1h1h1h1h1h1h1h1h1l1 1h1h1
h1h1h1h1h1h1h1h1h1h1l1 1h1h1h1h1h1h1h1h1h1h1h1h1l1 1h1h1h1h1h1h1h1h1h1h1h1h1h1l1 1h1h1h1h1h1h1h1h1h1h1h1h1l1 1h1h1h1h1h1h1h1h1h1h1h1h1l1 1h1h1h1h1h1h1h1h1h1h1h1h1h1l1 1h1h1h1h1h1h1h1h1h1h1h1h1l1 1h1h1h1h1h1h1h1h1h1h1h1h1l1 1h1h1h1h1h1h1h1h1h1h1h1h1l1 1h1
h1h1h1h1h1h1h1h1h1h1h1h1l1 1h1h1h1h1h1h1h1h1h1h1h1h1l1 1h1h1h1h1h1h1h1h1h1h1h1h1l1 1h1h1h1h1h1h1h1h1h1h1h1h1l1 1h1h1h1h1h1h1h1h1h1h1h1h1h1l1 1h1h1h1h1h1h1h1h1h1h1h1h1l1 1h1h1h1h1h1h1h1h1h1h1h1h1l1 1h1h1h1h1h1h1h1h1h1h1h1h1l1 1h1h1h1h1h1h1h1h1h1h1h1h1h1
l1 1h1h1h1h1h1h1h1h1h1h1h1h1l1 1h1h1h1h1h1h1h1h1h1h1h1h1l1 1h1h1h1h1h1h1h1h1h1h1h1h1h1l1 1h1h1h1h1h1h1h1h1h1h1h1h1l1 1h1h1h1h1h1h1h1h1h1h1h1h1l1 1h1h1h1h1h1h1h1h1h1h1h1h1l1 1h1h1h1h1h1h1h1h1h2l21 -273q14 -184 21 -275q2 -18 2 -35q0 -70 -38.5 -125
t-96.5 -82.5t-122 -27.5z" />
    <glyph glyph-name="k" unicode="k" horiz-adv-x="573" 
d="M207 750q4 -39 11 -116q8 -85 12 -127q20 12 35 22q22 35 65.5 105t65.5 105q61 -37 158 -96q-9 -15 -51 -82.5t-64 -103.5q103 -204 160 -317q-80 -39 -167 -82q-22 45 -68 135.5t-69 135.5q-50 -30 -56 -34l-1 -1v-1v-1v-1v-1v-1v-1v-1v-1l-1 -1v-1v-1v-1v-1v-1v-1v-1
v-1l-1 -1v-1v-1v-1v-1v-1v-1v-1v-1l-1 -1v-1v-1v-1v-1v-1v-1v-1v-1l-1 -1v-1v-1v-1v-1v-1v-1v-1v-1l-1 -1v-1v-1v-1v-1v-1v-1v-1v-1l-1 -1v-1v-1v-1v-1v-1v-1v-1v-1l-1 -1v-1v-1v-1v-1v-1v-1v-1v-1l-1 -1v-1v-1v-1v-1v-1v-1v-1v-1l-1 -1v-1v-1v-1v-1v-1v-1v-1v-1l-1 -1v-1
v-1v-1v-1v-1v-1v-1v-1l-1 -1v-1v-1v-1v-1v-1v-1v-1v-1l-1 -1v-1v-1v-1v-1v-1v-1v-1v-1l-1 -1v-1v-1v-1v-1v-1v-1v-1v-1l-1 -1v-1v-1v-1v-1v-1v-1v-1v-1l-1 -1v-1v-1v-1v-1v-1v-1v-1l-1 -1v-1v-1v-1v-1v-1v-1v-1v-1l-1 -1v-1v-1v-1v-2v-1v-1v-1v-1l-1 -1v-1v-1v-1v-1v-1v-1
v-1v-1l-1 -1v-1v-1v-1v-1v-1v-1v-1v-1l-1 -1v-1v-1v-1v-1v-1v-1v-1v-1l-1 -1v-1v-1v-1v-1v-1v-1v-1v-1l-1 -1v-1v-1v-1v-1v-1v-1v-1v-1l-1 -1v-1v-1v-1v-1v-1v-1v-1v-1l-1 -1v-1v-1v-1v-1v-1v-1v-1v-1l-1 -1v-1v-1v-1v-1v-1v-1v-1v-1l-1 -1v-1v-1v-1v-1v-1v-1v-1v-1l-1 -1
v-1v-1v-1v-1v-1v-1v-1v-1l-1 -1v-1v-1v-1v-1v-1v-1v-1v-1l-1 -1v-1v-1v-1v-1v-1v-1v-1v-1l-1 -1v-1v-1v-1v-1v-1v-1v-1v-1l-1 -1v-1v-1v-1v-1v-1v-1v-1v-1l-1 -1v-1v-1v-1v-1v-1v-1v-1l-1 -1q-67 7 -184 20q6 57 18.5 167.5t18.5 163.5q-7 74 -19.5 211.5t-15.5 172.5
q30 3 91.5 8.5t92.5 8.5z" />
    <glyph glyph-name="l" unicode="l" horiz-adv-x="495" 
d="M206 720q13 -324 19 -486q86 -1 261 -3q-1 -31 -1.5 -92.5t-0.5 -92.5q-294 3 -437 5q-17 426 -26 662h1h1h1l1 1h1h1h1h1h1h1h1h1h1h1h1h1h1h1h1h1h1h1h1h1h1h1h1h1h1l1 1h1h1h1h1h1h1h1h1h1h1h1h1h1h1h1h1h1h1h1h1h1h1h1h1h1l1 1h1h1h1h1h1h1h1h1h1h1h1h1h1h1h1h1h1h1
h1h1h1h1h1h1h1l1 1h1h1h1h1h1h1h1h1h1h1h1h1h1h1h1h1h1h1h1h1h1h1h1h1h1l1 1h1h1h1h1h1h1h1h1h1h1h1h1h1h1h1h1h1h1h1h1h1h1h1h1h1h1l1 1h1h1h1h1h1h1h1h1h1h1h1h1h1h1h1h1h1h1h1h1h1h1h1h1h1l1 1h1h1h1h1h1h1h1h1h1h1h1h1h1h1h1h1h1h1h1h1h1h1h1h1z" />
    <glyph glyph-name="m" unicode="m" horiz-adv-x="605" 
d="M450 687q16 -38 93 -228t118 -291q-115 -47 -172 -70l-1 1v1v1l-1 1v1l-1 1v1v1l-1 1v1l-1 1v1v1l-1 1v1l-1 1v1v1l-1 1v1l-1 1v1v1l-1 1v1l-1 1v1v1l-1 1v1l-1 1v1l-1 1v1v1l-1 1v1l-1 1v1v1l-1 1v1l-1 1v1v1l-1 1v1l-1 1v1v1l-1 1v1l-1 1v1v1l-1 1v1l-1 1v1v1l-1 1v1
l-1 1v1v1l-1 1v1l-1 1v1l-1 1v1v1l-1 1v1l-1 1v1v1l-1 1v1l-1 1v1v1l-1 1v1l-1 1v1v1l-1 1v1l-1 1v1v1l-1 1v1l-1 1v1v1l-1 1v1l-1 1v1v1l-1 1v1l-1 1v1v1l-1 1v1l-1 1v1l-1 1v1v1l-1 1v1l-1 1v1v1l-1 1v1l-1 1v1v1l-1 1v1l-1 1v1v1l-1 1l-1 2v1v1l-1 1v1l-1 1v1v1l-1 1v1
l-1 1v1v1l-1 1v1l-1 1v1v1l-1 1v1l-1 1v1v1l-1 1v1l-1 1v1l-1 1v1v1l-1 1v1l-1 1v1v1l-1 1v1l-1 1v1v1l-1 1v1l-1 1v1v1l-1 1v1l-1 1v1v1l-1 1v1l-1 1v1v1l-1 1v1l-1 1v1v1l-1 1v1l-1 1v1l-1 1v1v1l-1 1v1l-1 1v1v1l-1 1v1l-1 1v1v1l-1 1v1l-1 1v1v1l-1 1v1l-1 1v1v1l-1 1v1
l-1 1v1v1l-1 1v1l-1 1v1v1l-1 1v1l-1 1v1l-1 1v1v1l-1 1v1l-1 1v1v1l-1 1v1l-1 1v1v1l-1 1v1l-1 1v1v1l-1 1v1l-1 1v1v1l-1 1v1l-1 1v1v1l-1 1v1l-1 2q-16 -15 -46.5 -45t-45.5 -45q-62 54 -92 81q-12 -41 -37 -127t-38 -130q-47 14 -178 52l156 537q76 -67 182 -160
q107 103 167 162z" />
    <glyph glyph-name="n" unicode="n" horiz-adv-x="581" 
d="M28 643q104 -82 347 -272q58 182 86 266q45 -15 176 -57v-1l-1 -1v-1v-1l-1 -1v-1v-1l-1 -1v-1v-1l-1 -1v-1v-1v-1l-1 -1v-1v-1l-1 -1v-1v-1l-1 -1v-1v-1l-1 -1v-1v-1l-1 -1v-1v-1l-1 -1v-1v-1l-1 -1v-1v-1l-1 -1v-1v-1l-1 -1v-1v-1l-1 -1v-1v-1v-1l-1 -1v-1v-1l-1 -1v-1
v-1l-1 -1v-1v-1l-1 -1v-1v-1l-1 -1v-1v-1l-1 -1v-1v-1l-1 -1v-1v-1l-1 -1v-1v-1l-1 -1v-1v-1l-1 -1v-1v-1l-1 -1v-1v-1v-1l-1 -1v-1v-1l-1 -1v-1v-1l-1 -1v-1v-1l-1 -1v-1v-1l-1 -1v-1v-1l-1 -1v-1v-1l-1 -1v-1v-1l-1 -1v-1v-1l-1 -1v-1v-1l-1 -1v-1v-1v-1l-1 -1v-1v-1
l-1 -1v-1v-1l-1 -1v-1v-1l-1 -1v-1v-1l-1 -1v-1v-1l-1 -1v-1v-1l-1 -1v-1v-1l-1 -1v-1v-1l-1 -1v-1v-1l-1 -1v-1v-1v-1l-1 -1v-1v-1l-1 -1v-1v-1l-1 -1v-1v-1l-1 -1v-1v-1l-1 -1v-1v-1l-1 -1v-1v-1l-1 -1v-1v-1l-1 -1v-1v-1l-1 -1v-1v-1l-1 -1v-1v-1l-1 -1v-1v-1v-1l-1 -1
v-1v-1l-1 -1v-1v-1l-1 -1v-1v-1l-1 -1v-1v-1l-1 -1v-1v-1l-1 -1v-1v-1l-1 -1v-1v-1l-1 -1v-1v-1l-1 -1v-1v-1l-1 -1v-1v-1v-1l-1 -1v-1v-1l-1 -1v-1v-1l-1 -1v-1v-1l-1 -1v-1v-1l-1 -1v-1v-1l-1 -1v-1v-1l-1 -1v-1v-1l-1 -1v-1v-1l-1 -1v-1v-1l-1 -1v-1v-1v-1l-1 -1v-1v-1
l-1 -1v-1v-1l-1 -1v-1v-1l-1 -1v-1v-1l-1 -1v-1v-1l-1 -1v-1v-1l-1 -1v-1v-1l-1 -1v-1v-1l-1 -1v-1v-1l-1 -1v-1v-1l-1 -1v-1v-1v-1l-1 -1v-1v-1l-1 -1v-1v-1l-1 -1v-1v-1l-1 -1v-1v-1l-1 -1v-1v-1l-1 -1v-1v-1l-1 -1v-1v-1l-1 -1v-1v-1l-1 -1v-1v-1l-1 -1v-1v-1v-1l-1 -1
v-1v-1l-1 -1v-1v-1l-1 -1v-1v-1l-1 -1v-1v-1l-1 -1v-1v-1l-1 -1v-1v-1l-1 -1v-1v-1l-1 -1v-1v-1l-1 -1v-1v-1l-1 -1v-1v-1l-1 -1v-1v-1v-1l-1 -1v-1v-1l-1 -1v-1v-1l-1 -1v-1v-1l-1 -1v-1v-1l-1 -1v-1v-1l-1 -1v-1v-1l-1 -1v-1v-1l-1 -1v-1v-1l-1 -1v-1v-1l-1 -1v-1v-1
l-1 -1v-1v-1l-1 -1v-1v-1v-1l-1 -1v-1v-1l-1 -1v-1v-1l-1 -1v-1v-1l-1 -1v-1v-1l-1 -1v-1v-1l-1 -1v-1v-1l-1 -1v-1v-1l-1 -1v-1v-1l-1 -1v-1v-1l-1 -1v-1v-1l-1 -1v-1v-1v-1l-1 -1v-1v-1l-1 -1v-1v-1l-1 -1v-1v-1l-1 -1v-1v-1l-1 -1v-1v-1l-1 -1v-1v-1l-1 -1v-1v-1l-1 -1
v-1v-1l-1 -1v-1v-1l-1 -1v-1v-1v-1l-1 -1v-1v-1l-1 -1v-1v-1l-1 -1v-1v-1l-1 -1v-1v-1l-1 -1v-1v-1l-1 -1v-1v-1l-1 -1v-1v-1l-1 -1v-1v-1l-1 -1v-1v-1l-1 -1v-1v-1v-1l-1 -1v-1v-1l-1 -1v-1v-1l-1 -1v-1v-1l-1 -1v-1v-1l-1 -1v-1v-1l-1 -1v-1v-1l-1 -1v-1v-1l-1 -1v-1v-1
l-1 -1v-1v-1l-1 -1v-1v-1l-1 -1v-1v-1v-1l-1 -1v-1v-1l-1 -1v-1v-1l-1 -1v-1v-1l-1 -1v-1v-1l-1 -1v-1l-1 -2q-235 185 -260 204q-2 -118 -2 -177q-31 0 -93 1t-93 1q2 184 7 553z" />
    <glyph glyph-name="o" unicode="o" 
d="M280 614h3q107 0 183 -74q40 -37 62 -88.5t22 -106.5q0 -115 -79 -193.5t-193 -78.5q-59 0 -114 26t-92 71q-63 71 -63 173q0 103 64 175q37 45 90.5 70.5t111.5 25.5h5zM280 258q34 0 59.5 25t25.5 62q0 33 -25 58.5t-58 25.5h-2h-3q-32 0 -57.5 -24.5t-25.5 -59.5
t24.5 -61t61.5 -26z" />
    <glyph glyph-name="p" unicode="p" horiz-adv-x="538" 
d="M390 656q7 -7 23 -22t28 -27t22 -24q65 -75 65 -160q0 -26 -7 -50q-7 -28 -25 -59.5t-30.5 -47.5t-40.5 -50q-20 -3 -206 -23q0 -31 -0.5 -92.5t-1.5 -92.5q-62 1 -185 3q2 177 3 255q-2 71 -7.5 201t-6.5 162q113 8 369 27zM317 465q-29 -3 -103 -8q0 -13 1 -39t2 -39
q31 4 102 12q12 9 12 29q0 25 -14 45z" />
    <glyph glyph-name="q" unicode="q" horiz-adv-x="672" 
d="M327 696h4q63 0 121 -25t101 -71q44 -42 67 -100t23 -121q0 -114 -69 -195q17 -24 51 -73.5t52 -74.5l-152 -106q-20 28 -56 79.5t-47 68.5q-46 -14 -95 -14q-62 0 -119 22.5t-99 64.5q-47 43 -73 103.5t-26 125.5q0 20 3 40q11 113 101.5 194.5t203.5 81.5h9zM323 510
q-50 0 -88.5 -37.5t-38.5 -92.5q0 -45 30 -82.5t75 -45.5q-42 60 -79 113q84 59 152 106l82 -109q1 9 1 19q0 51 -38 90.5t-88 39.5q-3 0 -5 -1h-3z" />
    <glyph glyph-name="r" unicode="r" horiz-adv-x="598" 
d="M387 601q3 -2 20 -18.5t21.5 -21t18 -18.5t20 -22.5t15.5 -21t15 -24.5q28 -48 28 -105t-27 -105q31 -28 89.5 -80t85.5 -77q-17 -19 -39.5 -44t-44.5 -50t-39 -44q-130 116 -205 183q-44 -4 -103 -9q-8 -40 -24 -116t-23 -111q-29 6 -89.5 18.5t-91.5 19.5q10 50 29 143
t28 133q-12 61 -34.5 175.5t-32.5 165.5q54 4 383 29zM314 409q-31 -2 -88 -6q2 -11 7 -35.5t7 -37.5h1h1h1h1h1l1 1h1h1h1h1h1h1h1h1h1h1h1l1 1h1h1h1h1h1h1h1h1h1h1h1l1 1h1h1h1h1h1h1h2h1h1h1l1 1h1h1h1h1h1h1h1h1h1h1h1l1 1h1h1h1h1h1h1h1h1h1h1h1l1 1h1h1h1h1h1h1h1h1
h2q13 8 13 29q0 25 -15 44z" />
    <glyph glyph-name="s" unicode="s" horiz-adv-x="445" 
d="M318 700q10 -28 31.5 -86t32.5 -88q-11 -4 -31.5 -11.5t-28.5 -10.5q-82 -27 -109 -75l44 -22l43 -21.5t37 -20.5t34.5 -24t26.5 -26.5t22.5 -32.5t12 -38t5.5 -47q0 -30 -7 -66q-8 -20 -19 -37t-22.5 -30t-29 -24.5t-30.5 -19.5t-36 -15.5t-36.5 -12t-41 -9.5t-40 -7.5
t-42.5 -7t-41 -6.5q-4 33 -12.5 94.5t-11.5 89.5q10 2 48 6.5t59 7.5q3 1 21 5t25.5 6.5t17.5 10t14 18.5q-32 16 -78.5 39.5t-88.5 45t-78 39.5q2 76 2 78q8 57 35 105.5t69.5 84.5t92 62.5t110.5 45.5z" />
    <glyph glyph-name="t" unicode="t" horiz-adv-x="520" 
d="M-46 681q132 -5 620 -21q-1 -33 -3.5 -95t-3.5 -91q-43 2 -130 5t-130 4q2 -64 5.5 -146t6.5 -165t5 -146q-141 -5 -185 -7q-3 83 -10 250q-5 147 -8 220l-174 7q1 31 3.5 92.5t3.5 92.5z" />
    <glyph glyph-name="u" unicode="u" horiz-adv-x="642" 
d="M436 544h1h1h1h1h1h1h1h1h1l1 -1h1h1h1h1h1h1h1h1h1h1h1h1h1h1h1h1h1h1h1h1h1h1l1 -1h1h1h1h1h1h1h1h1h1h1h1h1h1h1h1h1h1h1h1h1h1h1l1 -1h1h1h1h1h1h1h1h1h1h1h1h1h1h1h1h1h1h1h1h1h1h1l1 -1h1h1h1h1h1h1h1h1h1h1h1h1h1h1h1h1h1h1h1h1h1h1l1 -1h1h1h1h1h1h1h1h1h1h1h1h1
h1h1h1h1h1h1h1h1h1h1l1 -1h1h1h1h1h1h1h1h1h1h1h1h1h1h1h1h1h1h1h1h1h1h1l1 -1h1h1h1h1h1h1h1h1h1h1h1h1h1h1h1h1h1h1h1h1h1h1l1 -1h1h1h1h1h1h1h1h1h1h1h1h1h1h1q-2 -60 -7.5 -180t-7.5 -180q0 -68 -40 -127t-103 -86q-62 -25 -137 -25q-45 0 -92 9q-71 15 -125 66.5
t-62 120.5q-6 76 -14.5 216.5t-11.5 179.5q31 2 185 12q4 -59 11 -171.5t11 -164.5q1 -6 1 -19t2 -23t7 -17q29 -24 86 -24q88 0 95 49q4 70 9.5 198.5t7.5 173.5z" />
    <glyph glyph-name="v" unicode="v" horiz-adv-x="440" 
d="M339 695q16 -8 74.5 -38t90.5 -46q-57 -111 -175 -342t-179 -350q-35 119 -107 356.5t-108 356.5q54 17 178 54q14 -47 41.5 -137.5t40.5 -134.5q96 187 144 281z" />
    <glyph glyph-name="w" unicode="w" horiz-adv-x="659" 
d="M550 613q29 -11 87 -32t88 -31q-42 -116 -125 -347t-124 -347q-110 166 -164 248q-24 -33 -72 -100.5t-72 -101.5q-77 181 -233 542q57 24 171 73q17 -40 51 -119.5t51 -118.5l54 75q37 53 56 79q75 -114 108 -165q21 58 62 172.5t62 172.5z" />
    <glyph glyph-name="x" unicode="x" horiz-adv-x="714" 
d="M213 647q25 -31 78 -96t80 -99q30 34 86.5 98t63.5 72q92 -82 139 -123q-27 -31 -84 -95t-86 -98q33 -41 101 -124.5t102 -125.5q-24 -19 -72 -58t-72 -59q-9 12 -183 225q-34 -40 -102.5 -119t-101.5 -119q-24 21 -70.5 61t-70.5 60q151 176 226 263q-18 23 -55.5 69
t-66.5 82t-56 69q102 83 144 117z" />
    <glyph glyph-name="y" unicode="y" horiz-adv-x="453" 
d="M443 718l66 -72q40 -44 59 -65q-42 -39 -124.5 -115t-122.5 -113q2 -267 4 -403q-131 -1 -186 -2q-3 267 -4 401q-83 66 -250 199l1 1v1l1 1l1 1l1 1l1 1v1l1 1l1 1l1 1v1l1 1l1 1l1 1l1 1v1l1 1l1 1l1 1l1 1v1l1 1l1 1l1 1l1 1v1l1 1l1 1l1 1l1 1v1l1 1l1 1l1 1l1 1v1
l1 1l1 1l1 1l1 1v1l1 1l1 1l1 1l1 1v1l1 1l1 1l1 1l1 1v1l1 1l1 1l1 1l1 1v1l1 1l1 1l1 1l1 1v1l1 1l1 1l1 1l1 1v1l1 1l1 1l1 1l1 1v1l1 1l1 1l1 1v1l1 1l1 1l1 1l1 1v1l1 1l1 1l1 1l1 1v1l1 1l1 1l1 1l1 1v1l1 1l1 1l1 1l1 1v1l1 1l1 1l1 1l1 1v1l1 1l1 1l1 1l1 1v1l1 1
l1 1l1 1l1 1v1l1 1l1 1l1 1l1 1v1l1 1l1 1l1 1l1 1v1l1 1l1 1l1 1l1 1v1l1 1l1 1l1 1l1 1v1l1 1l1 1l1 1l1 1v1l1 1l1 1l1 1l1 1v1l1 1l1 1l1 1v1l1 1q35 -27 109.5 -86.5t113.5 -90.5q74 67 220 202z" />
    <glyph glyph-name="z" unicode="z" horiz-adv-x="555" 
d="M92 651q71 -25 224.5 -79t234.5 -83q-42 -57 -124 -169t-122 -165q187 8 233 9q5 -123 8 -185l-620 -26q13 18 137.5 187t189.5 257l-1 1h-1h-1l-1 1h-1h-1l-1 1h-1l-1 1h-1h-1l-1 1h-1h-1l-1 1h-1h-1l-1 1h-1h-1l-1 1h-1h-1l-1 1h-1l-1 1h-1h-1l-1 1h-1h-1l-1 1h-1h-1
l-1 1h-1h-1l-1 1h-1h-1l-1 1h-1l-1 1h-1h-1l-1 1h-1h-1l-1 1h-1h-1l-1 1h-1h-1l-1 1h-1h-1l-1 1h-1h-1l-1 1h-1l-1 1h-1h-1l-1 1h-1h-1l-1 1h-1h-1l-1 1h-1h-1l-1 1h-1h-1l-1 1h-1l-1 1h-1h-1l-1 1h-1h-1l-1 1h-1h-1l-1 1h-1h-1l-1 1h-1h-1l-1 1h-1l-1 1h-1h-1l-1 1h-1h-1
l-1 1h-1h-1l-1 1h-1h-1l-1 1h-1l-1 1h-1h-1l-1 1h-1h-1l-1 1h-1h-1l-1 1h-1h-1l-1 1h-1l-1 1h-1h-1l-1 1h-1h-1l-1 1h-1h-1l-1 1h-1h-1l-1 1h-1h-1l-1 1h-1h-1l-1 1h-1l-1 1h-1h-1l-1 1h-1h-1l-1 1h-1h-1l-1 1h-1h-1l-1 1h-1h-1l-1 1h-1l-1 1h-1h-1l-1 1h-1h-1l-1 1h-1h-1
l-1 1h-1h-1l-1 1h-1h-1l-1 1h-1l-1 1h-1h-1l-1 1h-1h-1l-1 1h-1h-1l-1 1h-1h-1l-1 1h-1h-1l-1 1h-1l-1 1h-1h-1l-1 1h-1h-1l-1 1h-1h-1l-1 1h-1h-1l-1 1h-1h-1l-1 1h-1l-1 1h-1h-1l-1 1h-1h-1l-1 1h-1h-1l-2 1q17 46 62 175z" />
    <glyph glyph-name="braceleft" unicode="{" horiz-adv-x="379" 
d="M43 440q17 8 38.5 35t28.5 50q12 41 6.5 100.5t5.5 99.5q6 19 55 56t80 54q16 -21 43 -58t43 -58q-71 -41 -83 -79q-11 -40 -5.5 -98t-6.5 -98q-4 -15 -25 -43q35 -29 40 -44q12 -40 6 -99.5t6 -99.5q7 -24 28.5 -51t38.5 -35q-29 -45 -87 -134q-19 10 -65 61.5t-53 76.5
q-12 40 -6.5 98.5t-5.5 97.5q-11 38 -83 79z" />
    <glyph glyph-name="bar" unicode="|" horiz-adv-x="237" 
d="M207 795q2 -143 5.5 -410.5t4.5 -385.5q-70 -1 -185 -3l-11 795q69 1 186 4z" />
    <glyph glyph-name="braceright" unicode="}" horiz-adv-x="379" 
d="M343 318q-17 -8 -38.5 -35t-28.5 -50q-12 -41 -6 -100.5t-6 -99.5q-6 -19 -55 -56t-80 -54q-16 21 -43 58t-43 58q72 41 83 79q11 40 5.5 98t6.5 98q4 15 25 43q-35 29 -40 44q-12 40 -6 99.5t-6 99.5q-7 24 -28.5 51t-38.5 35q29 45 87 134q19 -10 65 -61.5t53 -76.5
q12 -40 6.5 -98.5t5.5 -97.5q11 -38 83 -79z" />
    <glyph glyph-name="asciitilde" unicode="~" horiz-adv-x="587" 
d="M612 649q-28 -26 -84 -65.5t-80 -39.5q-50 0 -118 24t-118 24q-29 0 -66.5 -13.5t-51.5 -29.5q-45 44 -133 130q17 17 89.5 48.5t103.5 31.5q50 0 116 -23.5t116 -23.5q47 0 114 61q20 -23 56 -62t56 -62z" />
    <glyph glyph-name="exclamdown" unicode="&#xa1;" horiz-adv-x="239" 
d="M32 24q-1 106 -7.5 242t-8.5 242q67 1 185 3q2 -106 8.5 -241.5t8.5 -242.5q-66 -1 -186 -3zM26 602q-2 29 -5.5 84t-5.5 80q63 0 186 1l10 -164q-31 0 -185 -1z" />
    <glyph glyph-name="dieresis" unicode="&#xa8;" horiz-adv-x="515" 
d="M24 885q27 1 82 3t82 3q-1 -54 -4 -185q-25 -1 -52.5 -2t-60.5 -2.5t-52 -1.5q1 36 2.5 106.5t2.5 78.5zM326 885q25 0 52.5 1t61 2.5t51.5 2.5q-1 -54 -4 -186q-1 0 -165 -6q1 37 2.5 106.5t1.5 79.5z" />
    <glyph glyph-name="degree" unicode="&#xb0;" 
d="M283 831h2q86 0 135 -35q68 -51 68 -134q0 -59 -61.5 -107.5t-144.5 -48.5q-87 0 -146 45t-59 110q0 30 14.5 67.5t39.5 56.5q58 46 148 46h2h2zM283 617q29 0 44 14.5t15 35.5t-15.5 37t-41.5 16h-1.5h-0.5h-2q-26 0 -42 -16.5t-16 -38.5q0 -19 17 -33.5t43 -14.5z" />
    <glyph glyph-name="acute" unicode="&#xb4;" horiz-adv-x="233" 
d="M291 681q-16 -22 -123.5 -107.5t-124.5 -106.5q-23 20 -47 41.5t-47 41.5q17 22 101.5 127t101.5 126q62 -54 139 -122z" />
    <glyph glyph-name="periodcentered" unicode="&#xb7;" horiz-adv-x="239" 
d="M208 434q1 -29 4.5 -84t5.5 -81h-185q-1 0 -11 164q32 0 186 1z" />
    <glyph glyph-name="cedilla" unicode="&#xb8;" horiz-adv-x="543" 
d="M232 94q0 -7 -0.5 -20.5t-0.5 -20.5q0 -37 16 -52q11 -4 23 -4q22 0 41.5 11t25.5 30q-3 28 -8 71l185 10l7 -38q2 -18 2 -35q0 -70 -38.5 -125t-96.5 -82.5t-122 -27.5q-107 0 -164 67.5t-57 179.5z" />
    <glyph glyph-name="questiondown" unicode="&#xbf;" horiz-adv-x="421" 
d="M398 537q2 -43 3 -73.5t-2 -57.5t-5.5 -43t-13.5 -32.5t-18.5 -25t-27.5 -20.5t-33.5 -18.5t-44.5 -21.5t-53 -26q3 -11 13.5 -18.5t18 -10t25.5 -6.5t21 -5q20 -3 58.5 -7.5t48.5 -6.5q-4 -28 -12 -89.5t-12 -94.5q-11 2 -41 6.5t-43 7t-40 7.5t-40.5 9.5t-36.5 12
t-36 15.5t-30.5 19.5t-29 24.5t-23 30t-18.5 37q-7 36 -7 66q0 27 5 50t11.5 40t21.5 34t26 27.5t35 24.5t38.5 22t45.5 23q14 7 21 11q3 13 0.5 30.5t-4 26.5t-5 19.5l-3.5 10.5zM209 627q-2 29 -5.5 84t-4.5 81h185l11 -164q-32 0 -186 -1z" />
    <glyph glyph-name="Agrave" unicode="&#xc0;" horiz-adv-x="683" 
d="M215 1109q22 -18 106.5 -126t105.5 -125q-20 -23 -42 -46.5t-42 -46.5q-22 17 -126 102.5t-125 102.5q31 36 123 139zM343 705q23 -44 102 -190.5t131 -243t104 -189.5q-52 -28 -163 -88q-34 60 -64 114q-14 -7 -41.5 -21.5t-40.5 -21.5q-13 25 -40.5 76t-40.5 77
q-20 -37 -61 -112t-62 -113q-19 10 -51.5 28t-60 32.5t-51.5 27.5q281 518 339 624zM342 314l-21 -39t-21 -38q33 18 65 35q-16 29 -23 42z" />
    <glyph glyph-name="Aacute" unicode="&#xc1;" horiz-adv-x="683" 
d="M591 979q-16 -22 -123.5 -107.5t-124.5 -106.5q-23 20 -47 41.5t-47 41.5q17 22 101.5 127t101.5 126q62 -54 139 -122zM343 705q23 -44 102 -190.5t131 -243t104 -189.5q-52 -28 -163 -88q-34 60 -64 114q-14 -7 -41.5 -21.5t-40.5 -21.5q-13 25 -40.5 76t-40.5 77
q-20 -37 -61 -112t-62 -113q-19 10 -51.5 28t-60 32.5t-51.5 27.5q281 518 339 624zM342 314l-21 -39t-21 -38q33 18 65 35q-16 29 -23 42z" />
    <glyph glyph-name="Acircumflex" unicode="&#xc2;" horiz-adv-x="683" 
d="M377 1109q22 -18 106.5 -126t105.5 -125q-20 -23 -42 -46.5t-42 -46.5q-19 15 -162 132q-143 -117 -162 -132q-20 23 -42 46.5t-42 46.5q18 14 62 69.5l88 111t62 70.5h68zM343 705q23 -44 102 -190.5t131 -243t104 -189.5q-52 -28 -163 -88q-34 60 -64 114
q-14 -7 -41.5 -21.5t-40.5 -21.5q-13 25 -40.5 76t-40.5 77q-20 -37 -61 -112t-62 -113q-19 10 -51.5 28t-60 32.5t-51.5 27.5q281 518 339 624zM342 314l-21 -39t-21 -38q33 18 65 35q-16 29 -23 42z" />
    <glyph glyph-name="Atilde" unicode="&#xc3;" horiz-adv-x="683" 
d="M668 870q-28 -26 -84 -65.5t-80 -39.5q-50 0 -118 24t-118 24q-29 0 -66.5 -13.5t-51.5 -29.5q-45 44 -133 130q17 17 89.5 48.5t103.5 31.5q50 0 116 -23.5t116 -23.5q47 0 114 61q20 -23 56 -62t56 -62zM343 705q23 -44 102 -190.5t131 -243t104 -189.5
q-52 -28 -163 -88q-34 60 -64 114q-14 -7 -41.5 -21.5t-40.5 -21.5q-13 25 -40.5 76t-40.5 77q-20 -37 -61 -112t-62 -113q-19 10 -51.5 28t-60 32.5t-51.5 27.5q281 518 339 624zM342 314l-21 -39t-21 -38q33 18 65 35q-16 29 -23 42z" />
    <glyph glyph-name="Adieresis" unicode="&#xc4;" horiz-adv-x="683" 
d="M112 951q27 1 82 3t82 3q-1 -54 -4 -185q-25 -1 -52.5 -2t-60.5 -2.5t-52 -1.5q1 36 2.5 106.5t2.5 78.5zM414 951q25 0 52.5 1t61 2.5t51.5 2.5q-1 -54 -4 -186q-1 0 -165 -6q1 37 2.5 106.5t1.5 79.5zM343 705q23 -44 102 -190.5t131 -243t104 -189.5q-52 -28 -163 -88
q-34 60 -64 114q-14 -7 -41.5 -21.5t-40.5 -21.5q-13 25 -40.5 76t-40.5 77q-20 -37 -61 -112t-62 -113q-19 10 -51.5 28t-60 32.5t-51.5 27.5q281 518 339 624zM342 314l-21 -39t-21 -38q33 18 65 35q-16 29 -23 42z" />
    <glyph glyph-name="Aring" unicode="&#xc5;" horiz-adv-x="683" 
d="M343 1019h2q86 0 135 -35q68 -51 68 -134q0 -59 -61.5 -107.5t-144.5 -48.5q-87 0 -146 45t-59 110q0 30 14.5 67.5t39.5 56.5q58 46 148 46h2h2zM343 805q29 0 44 14.5t15 35.5t-15.5 37t-41.5 16h-1.5h-0.5h-2q-26 0 -42 -16.5t-16 -38.5q0 -19 17 -33.5t43 -14.5z
M343 705q23 -44 102 -190.5t131 -243t104 -189.5q-52 -28 -163 -88q-34 60 -64 114q-14 -7 -41.5 -21.5t-40.5 -21.5q-13 25 -40.5 76t-40.5 77q-20 -37 -61 -112t-62 -113q-19 10 -51.5 28t-60 32.5t-51.5 27.5q281 518 339 624zM342 314l-21 -39t-21 -38q33 18 65 35
q-16 29 -23 42z" />
    <glyph glyph-name="AE" unicode="&#xc6;" horiz-adv-x="971" 
d="M917 673l24 -183l-306 -41l12 -39l170 48l50 -179l-189 -53v-23l299 42l26 -183l-511 -73v140q-12 -7 -52.5 -29t-62.5 -34q-4 25 -13.5 76t-13.5 77q-28 -31 -64.5 -72t-73 -81.5t-64.5 -71.5q-9 6 -57.5 38.5t-74.5 49.5q312 433 376 522zM474 342q-17 -16 -52.5 -50.5
t-54.5 -53.5q61 35 118 67z" />
    <glyph glyph-name="Ccedilla" unicode="&#xc7;" horiz-adv-x="506" 
d="M112 80q0 -7 -0.5 -20.5t-0.5 -20.5q0 -37 16 -52q11 -4 23 -4q22 0 41.5 11t25.5 30q-3 28 -8 71l185 10l7 -38q2 -18 2 -35q0 -70 -38.5 -125t-96.5 -82.5t-122 -27.5q-107 0 -164 67.5t-57 179.5zM330 728q7 -34 19 -96.5t17 -86.5q-36 -7 -87 -16q-37 -3 -54.5 -36.5
t-17.5 -80.5q0 -76 44 -128q17 -22 49 -22q22 0 44 10q17 9 34.5 20.5t38.5 27t33 22.5l1 -1l1 -1v-1l1 -1l1 -1l1 -1v-1l1 -1l1 -1v-1l1 -1l1 -1v-1l1 -1l1 -1v-1l1 -1l1 -1l1 -1v-1l1 -1l1 -1v-1l1 -1l1 -1v-1l1 -1l1 -1v-1l1 -1l1 -1v-1l1 -1l1 -1l1 -1v-1l1 -1l1 -1v-1
l1 -1l1 -1v-1l1 -1l1 -1v-1l1 -1l1 -1l1 -1v-1l1 -1l1 -1v-1l1 -1l1 -1v-1l1 -1l1 -1v-1l1 -1l1 -1l1 -1v-1l1 -1l1 -1v-1l1 -1l1 -1v-1l1 -1l1 -1v-1l1 -1l1 -1v-1l1 -1l1 -1l1 -1v-1l1 -1l1 -1l1 -1v-1l1 -1l1 -1v-1l1 -1l1 -1v-1l1 -1l1 -1v-1l1 -1l1 -1l1 -1v-1l1 -1
l1 -1v-1l1 -1l1 -1v-1l1 -1l1 -1v-1l1 -1l1 -1l1 -1v-1l1 -1l1 -1v-1l1 -1l1 -1v-1l1 -1l1 -1v-1l1 -1l1 -1v-1l1 -1l1 -1l1 -1v-1l1 -1l1 -1v-1l1 -1l1 -1v-1l1 -1l1 -1v-1l1 -1l1 -1l1 -1v-1l1 -1l1 -1v-1l1 -1l1 -1v-1l1 -1l1 -1v-1l1 -1l1 -1l1 -1v-1l1 -1l1 -1
q-7 -5 -47 -33t-56 -37.5t-48.5 -24t-60.5 -19.5q-21 -5 -43 -5q-74 0 -143 48q-67 49 -102 129t-35 168q0 81 33 151t96 109q25 15 51.5 24t73 17.5t55.5 10.5z" />
    <glyph glyph-name="Egrave" unicode="&#xc8;" horiz-adv-x="581" 
d="M346 1025q22 -18 106.5 -126t105.5 -125q-20 -23 -42 -46.5t-42 -46.5q-22 17 -126 102.5t-125 102.5q31 36 123 139zM473 620l25 -184l-306 -40l12 -39l170 48l50 -179l-189 -53v-23l299 42l26 -183l-511 -73v293l-100 322z" />
    <glyph glyph-name="Eacute" unicode="&#xc9;" horiz-adv-x="581" 
d="M487 895q-16 -22 -123.5 -107.5t-124.5 -106.5q-23 20 -47 41.5t-47 41.5q17 22 101.5 127t101.5 126q62 -54 139 -122zM473 620l25 -184l-306 -40l12 -39l170 48l50 -179l-189 -53v-23l299 42l26 -183l-511 -73v293l-100 322z" />
    <glyph glyph-name="Ecircumflex" unicode="&#xca;" horiz-adv-x="581" 
d="M312 1025q22 -18 106.5 -126t105.5 -125q-20 -23 -42 -46.5t-42 -46.5q-19 15 -162 132q-143 -117 -162 -132q-20 23 -42 46.5t-42 46.5q18 14 62 69.5l88 111t62 70.5h68zM473 620l25 -184l-306 -40l12 -39l170 48l50 -179l-189 -53v-23l299 42l26 -183l-511 -73v293
l-100 322z" />
    <glyph glyph-name="Edieresis" unicode="&#xcb;" horiz-adv-x="581" 
d="M60 866q27 1 82 3t82 3q-1 -54 -4 -185q-25 -1 -52.5 -2t-60.5 -2.5t-52 -1.5q1 36 2.5 106.5t2.5 78.5zM362 866q25 0 52.5 1t61 2.5t51.5 2.5q-1 -54 -4 -186q-1 0 -165 -6q1 37 2.5 106.5t1.5 79.5zM473 620l25 -184l-306 -40l12 -39l170 48l50 -179l-189 -53v-23
l299 42l26 -183l-511 -73v293l-100 322z" />
    <glyph glyph-name="Igrave" unicode="&#xcc;" horiz-adv-x="237" 
d="M79 1070q22 -18 106.5 -126t105.5 -125q-20 -23 -42 -46.5t-42 -46.5q-22 17 -126 102.5t-125 102.5q31 36 123 139zM207 666q1 -91 3 -204t4 -231t3 -204q-67 -1 -185 -2l-11 637q66 2 186 4z" />
    <glyph glyph-name="Iacute" unicode="&#xcd;" horiz-adv-x="237" 
d="M455 940q-16 -22 -123.5 -107.5t-124.5 -106.5q-23 20 -47 41.5t-47 41.5q17 22 101.5 127t101.5 126q62 -54 139 -122zM207 666q1 -91 3 -204t4 -231t3 -204q-67 -1 -185 -2l-11 637q66 2 186 4z" />
    <glyph glyph-name="Icircumflex" unicode="&#xce;" horiz-adv-x="237" 
d="M145 1070q22 -18 106.5 -126t105.5 -125q-20 -23 -42 -46.5t-42 -46.5q-19 15 -162 132q-143 -117 -162 -132q-20 23 -42 46.5t-42 46.5q18 14 62 69.5l88 111t62 70.5h68zM207 666q1 -91 3 -204t4 -231t3 -204q-67 -1 -185 -2l-11 637q66 2 186 4z" />
    <glyph glyph-name="Idieresis" unicode="&#xcf;" horiz-adv-x="237" 
d="M-115 911q27 1 82 3t82 3q-1 -54 -4 -185q-25 -1 -52.5 -2t-60.5 -2.5t-52 -1.5q1 36 2.5 106.5t2.5 78.5zM187 911q25 0 52.5 1t61 2.5t51.5 2.5q-1 -54 -4 -186q-1 0 -165 -6q1 37 2.5 106.5t1.5 79.5zM207 666q1 -91 3 -204t4 -231t3 -204q-67 -1 -185 -2l-11 637
q66 2 186 4z" />
    <glyph glyph-name="Eth" unicode="&#xd0;" horiz-adv-x="542" 
d="M188 717q162 0 254 -81t92 -229q0 -97 -41 -176t-122 -128.5t-188 -50.5l-92 -9l-25 242l-74 -2q-1 62 -2 185l56 2l-25 235q17 1 55 5t63 5.5t49 1.5zM232 476q34 1 68 3q1 -69 2 -186l-50 -2l4 -43q52 13 72 56.5t20 113.5q-3 39 -38.5 73.5t-83.5 38.5z" />
    <glyph glyph-name="Ntilde" unicode="&#xd1;" horiz-adv-x="581" 
d="M525 808q-28 -26 -84 -65.5t-80 -39.5q-50 0 -118 24t-118 24q-29 0 -66.5 -13.5t-51.5 -29.5q-45 44 -133 130q17 17 89.5 48.5t103.5 31.5q50 0 116 -23.5t116 -23.5q47 0 114 61q20 -23 56 -62t56 -62zM28 643q104 -82 347 -272q58 182 86 266q45 -15 176 -57v-1
l-1 -1v-1v-1l-1 -1v-1v-1l-1 -1v-1v-1l-1 -1v-1v-1v-1l-1 -1v-1v-1l-1 -1v-1v-1l-1 -1v-1v-1l-1 -1v-1v-1l-1 -1v-1v-1l-1 -1v-1v-1l-1 -1v-1v-1l-1 -1v-1v-1l-1 -1v-1v-1l-1 -1v-1v-1v-1l-1 -1v-1v-1l-1 -1v-1v-1l-1 -1v-1v-1l-1 -1v-1v-1l-1 -1v-1v-1l-1 -1v-1v-1l-1 -1
v-1v-1l-1 -1v-1v-1l-1 -1v-1v-1l-1 -1v-1v-1l-1 -1v-1v-1v-1l-1 -1v-1v-1l-1 -1v-1v-1l-1 -1v-1v-1l-1 -1v-1v-1l-1 -1v-1v-1l-1 -1v-1v-1l-1 -1v-1v-1l-1 -1v-1v-1l-1 -1v-1v-1l-1 -1v-1v-1v-1l-1 -1v-1v-1l-1 -1v-1v-1l-1 -1v-1v-1l-1 -1v-1v-1l-1 -1v-1v-1l-1 -1v-1v-1
l-1 -1v-1v-1l-1 -1v-1v-1l-1 -1v-1v-1l-1 -1v-1v-1v-1l-1 -1v-1v-1l-1 -1v-1v-1l-1 -1v-1v-1l-1 -1v-1v-1l-1 -1v-1v-1l-1 -1v-1v-1l-1 -1v-1v-1l-1 -1v-1v-1l-1 -1v-1v-1l-1 -1v-1v-1l-1 -1v-1v-1v-1l-1 -1v-1v-1l-1 -1v-1v-1l-1 -1v-1v-1l-1 -1v-1v-1l-1 -1v-1v-1l-1 -1
v-1v-1l-1 -1v-1v-1l-1 -1v-1v-1l-1 -1v-1v-1l-1 -1v-1v-1v-1l-1 -1v-1v-1l-1 -1v-1v-1l-1 -1v-1v-1l-1 -1v-1v-1l-1 -1v-1v-1l-1 -1v-1v-1l-1 -1v-1v-1l-1 -1v-1v-1l-1 -1v-1v-1l-1 -1v-1v-1v-1l-1 -1v-1v-1l-1 -1v-1v-1l-1 -1v-1v-1l-1 -1v-1v-1l-1 -1v-1v-1l-1 -1v-1v-1
l-1 -1v-1v-1l-1 -1v-1v-1l-1 -1v-1v-1l-1 -1v-1v-1l-1 -1v-1v-1v-1l-1 -1v-1v-1l-1 -1v-1v-1l-1 -1v-1v-1l-1 -1v-1v-1l-1 -1v-1v-1l-1 -1v-1v-1l-1 -1v-1v-1l-1 -1v-1v-1l-1 -1v-1v-1l-1 -1v-1v-1v-1l-1 -1v-1v-1l-1 -1v-1v-1l-1 -1v-1v-1l-1 -1v-1v-1l-1 -1v-1v-1l-1 -1
v-1v-1l-1 -1v-1v-1l-1 -1v-1v-1l-1 -1v-1v-1l-1 -1v-1v-1l-1 -1v-1v-1v-1l-1 -1v-1v-1l-1 -1v-1v-1l-1 -1v-1v-1l-1 -1v-1v-1l-1 -1v-1v-1l-1 -1v-1v-1l-1 -1v-1v-1l-1 -1v-1v-1l-1 -1v-1v-1l-1 -1v-1v-1l-1 -1v-1v-1l-1 -1v-1v-1v-1l-1 -1v-1v-1l-1 -1v-1v-1l-1 -1v-1v-1
l-1 -1v-1v-1l-1 -1v-1v-1l-1 -1v-1v-1l-1 -1v-1v-1l-1 -1v-1v-1l-1 -1v-1v-1l-1 -1v-1v-1l-1 -1v-1v-1v-1l-1 -1v-1v-1l-1 -1v-1v-1l-1 -1v-1v-1l-1 -1v-1v-1l-1 -1v-1v-1l-1 -1v-1v-1l-1 -1v-1v-1l-1 -1v-1v-1l-1 -1v-1v-1l-1 -1v-1v-1v-1l-1 -1v-1v-1l-1 -1v-1v-1l-1 -1
v-1v-1l-1 -1v-1v-1l-1 -1v-1v-1l-1 -1v-1v-1l-1 -1v-1v-1l-1 -1v-1v-1l-1 -1v-1v-1l-1 -1v-1v-1v-1l-1 -1v-1v-1l-1 -1v-1v-1l-1 -1v-1v-1l-1 -1v-1v-1l-1 -1v-1v-1l-1 -1v-1v-1l-1 -1v-1v-1l-1 -1v-1v-1l-1 -1v-1v-1l-1 -1v-1v-1l-1 -1v-1v-1v-1l-1 -1v-1v-1l-1 -1v-1v-1
l-1 -1v-1v-1l-1 -1v-1v-1l-1 -1v-1l-1 -2q-235 185 -260 204q-2 -118 -2 -177q-31 0 -93 1t-93 1q2 184 7 553z" />
    <glyph glyph-name="Ograve" unicode="&#xd2;" 
d="M151 1019q22 -18 106.5 -126t105.5 -125q-20 -23 -42 -46.5t-42 -46.5q-22 17 -126 102.5t-125 102.5q31 36 123 139zM280 614h3q107 0 183 -74q40 -37 62 -88.5t22 -106.5q0 -115 -79 -193.5t-193 -78.5q-59 0 -114 26t-92 71q-63 71 -63 173q0 103 64 175
q37 45 90.5 70.5t111.5 25.5h5zM280 258q34 0 59.5 25t25.5 62q0 33 -25 58.5t-58 25.5h-2h-3q-32 0 -57.5 -24.5t-25.5 -59.5t24.5 -61t61.5 -26z" />
    <glyph glyph-name="Oacute" unicode="&#xd3;" 
d="M527 889q-16 -22 -123.5 -107.5t-124.5 -106.5q-23 20 -47 41.5t-47 41.5q17 22 101.5 127t101.5 126q62 -54 139 -122zM280 614h3q107 0 183 -74q40 -37 62 -88.5t22 -106.5q0 -115 -79 -193.5t-193 -78.5q-59 0 -114 26t-92 71q-63 71 -63 173q0 103 64 175
q37 45 90.5 70.5t111.5 25.5h5zM280 258q34 0 59.5 25t25.5 62q0 33 -25 58.5t-58 25.5h-2h-3q-32 0 -57.5 -24.5t-25.5 -59.5t24.5 -61t61.5 -26z" />
    <glyph glyph-name="Ocircumflex" unicode="&#xd4;" 
d="M313 1019q22 -18 106.5 -126t105.5 -125q-20 -23 -42 -46.5t-42 -46.5q-19 15 -162 132q-143 -117 -162 -132q-20 23 -42 46.5t-42 46.5q18 14 62 69.5l88 111t62 70.5h68zM280 614h3q107 0 183 -74q40 -37 62 -88.5t22 -106.5q0 -115 -79 -193.5t-193 -78.5
q-59 0 -114 26t-92 71q-63 71 -63 173q0 103 64 175q37 45 90.5 70.5t111.5 25.5h5zM280 258q34 0 59.5 25t25.5 62q0 33 -25 58.5t-58 25.5h-2h-3q-32 0 -57.5 -24.5t-25.5 -59.5t24.5 -61t61.5 -26z" />
    <glyph glyph-name="Otilde" unicode="&#xd5;" 
d="M604 779q-28 -26 -84 -65.5t-80 -39.5q-50 0 -118 24t-118 24q-29 0 -66.5 -13.5t-51.5 -29.5q-45 44 -133 130q17 17 89.5 48.5t103.5 31.5q50 0 116 -23.5t116 -23.5q47 0 114 61q20 -23 56 -62t56 -62zM280 614h3q107 0 183 -74q40 -37 62 -88.5t22 -106.5
q0 -115 -79 -193.5t-193 -78.5q-59 0 -114 26t-92 71q-63 71 -63 173q0 103 64 175q37 45 90.5 70.5t111.5 25.5h5zM280 258q34 0 59.5 25t25.5 62q0 33 -25 58.5t-58 25.5h-2h-3q-32 0 -57.5 -24.5t-25.5 -59.5t24.5 -61t61.5 -26z" />
    <glyph glyph-name="Odieresis" unicode="&#xd6;" 
d="M48 860q27 1 82 3t82 3q-1 -54 -4 -185q-25 -1 -52.5 -2t-60.5 -2.5t-52 -1.5q1 36 2.5 106.5t2.5 78.5zM350 860q25 0 52.5 1t61 2.5t51.5 2.5q-1 -54 -4 -186q-1 0 -165 -6q1 37 2.5 106.5t1.5 79.5zM280 614h3q107 0 183 -74q40 -37 62 -88.5t22 -106.5
q0 -115 -79 -193.5t-193 -78.5q-59 0 -114 26t-92 71q-63 71 -63 173q0 103 64 175q37 45 90.5 70.5t111.5 25.5h5zM280 258q34 0 59.5 25t25.5 62q0 33 -25 58.5t-58 25.5h-2h-3q-32 0 -57.5 -24.5t-25.5 -59.5t24.5 -61t61.5 -26z" />
    <glyph glyph-name="Oslash" unicode="&#xd8;" 
d="M280 258q34 0 59.5 25t25.5 62t-30 63q-14 -25 -41 -74t-39 -72q12 -4 25 -4zM30 238q-21 49 -21 105q0 98 63.5 175t161.5 93q60 109 95 173q60 -32 163 -89q-27 -49 -68 -123q22 -14 42 -32q40 -37 62 -88.5t22 -106.5q0 -115 -79 -193.5t-193 -78.5q-58 0 -112 26
q-44 -78 -72 -130q-61 33 -163 89q36 66 99 180z" />
    <glyph glyph-name="Ugrave" unicode="&#xd9;" horiz-adv-x="642" 
d="M308 1019q22 -18 106.5 -126t105.5 -125q-20 -23 -42 -46.5t-42 -46.5q-22 17 -126 102.5t-125 102.5q31 36 123 139zM436 544h1h1h1h1h1h1h1h1h1l1 -1h1h1h1h1h1h1h1h1h1h1h1h1h1h1h1h1h1h1h1h1h1h1l1 -1h1h1h1h1h1h1h1h1h1h1h1h1h1h1h1h1h1h1h1h1h1h1l1 -1h1h1h1h1h1h1
h1h1h1h1h1h1h1h1h1h1h1h1h1h1h1h1l1 -1h1h1h1h1h1h1h1h1h1h1h1h1h1h1h1h1h1h1h1h1h1h1l1 -1h1h1h1h1h1h1h1h1h1h1h1h1h1h1h1h1h1h1h1h1h1h1l1 -1h1h1h1h1h1h1h1h1h1h1h1h1h1h1h1h1h1h1h1h1h1h1l1 -1h1h1h1h1h1h1h1h1h1h1h1h1h1h1h1h1h1h1h1h1h1h1l1 -1h1h1h1h1h1h1h1h1h1h1
h1h1h1h1q-2 -60 -7.5 -180t-7.5 -180q0 -68 -40 -127t-103 -86q-62 -25 -137 -25q-45 0 -92 9q-71 15 -125 66.5t-62 120.5q-6 76 -14.5 216.5t-11.5 179.5q31 2 185 12q4 -59 11 -171.5t11 -164.5q1 -6 1 -19t2 -23t7 -17q29 -24 86 -24q88 0 95 49q4 70 9.5 198.5
t7.5 173.5z" />
    <glyph glyph-name="Uacute" unicode="&#xda;" horiz-adv-x="642" 
d="M684 889q-16 -22 -123.5 -107.5t-124.5 -106.5q-23 20 -47 41.5t-47 41.5q17 22 101.5 127t101.5 126q62 -54 139 -122zM436 544h1h1h1h1h1h1h1h1h1l1 -1h1h1h1h1h1h1h1h1h1h1h1h1h1h1h1h1h1h1h1h1h1h1l1 -1h1h1h1h1h1h1h1h1h1h1h1h1h1h1h1h1h1h1h1h1h1h1l1 -1h1h1h1h1h1
h1h1h1h1h1h1h1h1h1h1h1h1h1h1h1h1h1l1 -1h1h1h1h1h1h1h1h1h1h1h1h1h1h1h1h1h1h1h1h1h1h1l1 -1h1h1h1h1h1h1h1h1h1h1h1h1h1h1h1h1h1h1h1h1h1h1l1 -1h1h1h1h1h1h1h1h1h1h1h1h1h1h1h1h1h1h1h1h1h1h1l1 -1h1h1h1h1h1h1h1h1h1h1h1h1h1h1h1h1h1h1h1h1h1h1l1 -1h1h1h1h1h1h1h1h1h1
h1h1h1h1h1q-2 -60 -7.5 -180t-7.5 -180q0 -68 -40 -127t-103 -86q-62 -25 -137 -25q-45 0 -92 9q-71 15 -125 66.5t-62 120.5q-6 76 -14.5 216.5t-11.5 179.5q31 2 185 12q4 -59 11 -171.5t11 -164.5q1 -6 1 -19t2 -23t7 -17q29 -24 86 -24q88 0 95 49q4 70 9.5 198.5
t7.5 173.5z" />
    <glyph glyph-name="Ucircumflex" unicode="&#xdb;" horiz-adv-x="642" 
d="M344 1019q22 -18 106.5 -126t105.5 -125q-20 -23 -42 -46.5t-42 -46.5q-19 15 -162 132q-143 -117 -162 -132q-20 23 -42 46.5t-42 46.5q18 14 62 69.5l88 111t62 70.5h68zM436 544h1h1h1h1h1h1h1h1h1l1 -1h1h1h1h1h1h1h1h1h1h1h1h1h1h1h1h1h1h1h1h1h1h1l1 -1h1h1h1h1h1
h1h1h1h1h1h1h1h1h1h1h1h1h1h1h1h1h1l1 -1h1h1h1h1h1h1h1h1h1h1h1h1h1h1h1h1h1h1h1h1h1h1l1 -1h1h1h1h1h1h1h1h1h1h1h1h1h1h1h1h1h1h1h1h1h1h1l1 -1h1h1h1h1h1h1h1h1h1h1h1h1h1h1h1h1h1h1h1h1h1h1l1 -1h1h1h1h1h1h1h1h1h1h1h1h1h1h1h1h1h1h1h1h1h1h1l1 -1h1h1h1h1h1h1h1h1h1
h1h1h1h1h1h1h1h1h1h1h1h1h1l1 -1h1h1h1h1h1h1h1h1h1h1h1h1h1h1q-2 -60 -7.5 -180t-7.5 -180q0 -68 -40 -127t-103 -86q-62 -25 -137 -25q-45 0 -92 9q-71 15 -125 66.5t-62 120.5q-6 76 -14.5 216.5t-11.5 179.5q31 2 185 12q4 -59 11 -171.5t11 -164.5q1 -6 1 -19t2 -23
t7 -17q29 -24 86 -24q88 0 95 49q4 70 9.5 198.5t7.5 173.5z" />
    <glyph glyph-name="Udieresis" unicode="&#xdc;" horiz-adv-x="642" 
d="M89 860q27 1 82 3t82 3q-1 -54 -4 -185q-25 -1 -52.5 -2t-60.5 -2.5t-52 -1.5q1 36 2.5 106.5t2.5 78.5zM391 860q25 0 52.5 1t61 2.5t51.5 2.5q-1 -54 -4 -186q-1 0 -165 -6q1 37 2.5 106.5t1.5 79.5zM436 544h1h1h1h1h1h1h1h1h1l1 -1h1h1h1h1h1h1h1h1h1h1h1h1h1h1h1h1
h1h1h1h1h1h1l1 -1h1h1h1h1h1h1h1h1h1h1h1h1h1h1h1h1h1h1h1h1h1h1l1 -1h1h1h1h1h1h1h1h1h1h1h1h1h1h1h1h1h1h1h1h1h1h1l1 -1h1h1h1h1h1h1h1h1h1h1h1h1h1h1h1h1h1h1h1h1h1h1l1 -1h1h1h1h1h1h1h1h1h1h1h1h1h1h1h1h1h1h1h1h1h1h1l1 -1h1h1h1h1h1h1h1h1h1h1h1h1h1h1h1h1h1h1h1h1
h1h1l1 -1h1h1h1h1h1h1h1h1h1h1h1h1h1h1h1h1h1h1h1h1h1h1l1 -1h1h1h1h1h1h1h1h1h1h1h1h1h1h1q-2 -60 -7.5 -180t-7.5 -180q0 -68 -40 -127t-103 -86q-62 -25 -137 -25q-45 0 -92 9q-71 15 -125 66.5t-62 120.5q-6 76 -14.5 216.5t-11.5 179.5q31 2 185 12q4 -59 11 -171.5
t11 -164.5q1 -6 1 -19t2 -23t7 -17q29 -24 86 -24q88 0 95 49q4 70 9.5 198.5t7.5 173.5z" />
    <glyph glyph-name="Yacute" unicode="&#xdd;" horiz-adv-x="453" 
d="M472 992q-16 -22 -123.5 -107.5t-124.5 -106.5q-23 20 -47 41.5t-47 41.5q17 22 101.5 127t101.5 126q62 -54 139 -122zM443 718l66 -72q40 -44 59 -65q-42 -39 -124.5 -115t-122.5 -113q2 -267 4 -403q-131 -1 -186 -2q-3 267 -4 401q-83 66 -250 199l1 1v1l1 1l1 1l1 1
l1 1v1l1 1l1 1l1 1v1l1 1l1 1l1 1l1 1v1l1 1l1 1l1 1l1 1v1l1 1l1 1l1 1l1 1v1l1 1l1 1l1 1l1 1v1l1 1l1 1l1 1l1 1v1l1 1l1 1l1 1l1 1v1l1 1l1 1l1 1l1 1v1l1 1l1 1l1 1l1 1v1l1 1l1 1l1 1l1 1v1l1 1l1 1l1 1l1 1v1l1 1l1 1l1 1l1 1v1l1 1l1 1l1 1l1 1v1l1 1l1 1l1 1v1l1 1
l1 1l1 1l1 1v1l1 1l1 1l1 1l1 1v1l1 1l1 1l1 1l1 1v1l1 1l1 1l1 1l1 1v1l1 1l1 1l1 1l1 1v1l1 1l1 1l1 1l1 1v1l1 1l1 1l1 1l1 1v1l1 1l1 1l1 1l1 1v1l1 1l1 1l1 1l1 1v1l1 1l1 1l1 1l1 1v1l1 1l1 1l1 1l1 1v1l1 1l1 1l1 1l1 1v1l1 1l1 1l1 1l1 1v1l1 1l1 1l1 1v1l1 1
q35 -27 109.5 -86.5t113.5 -90.5q74 67 220 202z" />
    <glyph glyph-name="Thorn" unicode="&#xde;" horiz-adv-x="538" 
d="M317 316q-29 -2 -103 -8q0 -12 1 -38t2 -40q31 4 102 12q12 9 12 30q0 24 -14 44zM390 507q65 -64 73 -73q65 -75 65 -160q0 -21 -7 -49q-7 -29 -25 -60.5t-30.5 -47t-40.5 -50.5q-20 -2 -206 -23q0 -37 -0.5 -109.5t-1.5 -109.5q-62 1 -185 3q0 32 1.5 96.5t2 96.5
t-0.5 97l-18 598h194v-222q47 4 179 13z" />
    <glyph glyph-name="germandbls" unicode="&#xdf;" horiz-adv-x="733" 
d="M213 459l7 -446h-167v355q-5 62 -14 175.5t-11 141.5q74 20 108.5 29t93.5 19t105 10q144 0 244 -91q10 -25 29 -77t29 -79l-53 -20q-75 -24 -99 -68q13 -6 40 -19.5t38.5 -19.5t33.5 -18.5t31.5 -21.5t23.5 -23.5t20 -29t11 -34.5t5 -42q0 -27 -6 -59
q-7 -18 -17.5 -33.5t-20.5 -27.5t-26 -22.5t-27.5 -17.5t-32.5 -14t-33 -10.5t-36.5 -8.5t-36 -7t-38.5 -6t-37 -6q-4 29 -11 84.5t-11 81.5q11 1 31 3t36 4t30 6q3 0 19 4t23 6t16 9t12 16q-26 14 -102.5 52.5t-117.5 59.5v8v15.5v15.5q0 18 1 31q14 102 98 174
q-33 18 -69 18q-56 0 -131 -44q2 -13 6 -37z" />
    <glyph glyph-name="agrave" unicode="&#xe0;" horiz-adv-x="683" 
d="M215 1109q22 -18 106.5 -126t105.5 -125q-20 -23 -42 -46.5t-42 -46.5q-22 17 -126 102.5t-125 102.5q31 36 123 139zM343 705q23 -44 102 -190.5t131 -243t104 -189.5q-52 -28 -163 -88q-34 60 -64 114q-14 -7 -41.5 -21.5t-40.5 -21.5q-13 25 -40.5 76t-40.5 77
q-20 -37 -61 -112t-62 -113q-19 10 -51.5 28t-60 32.5t-51.5 27.5q281 518 339 624zM342 314l-21 -39t-21 -38q33 18 65 35q-16 29 -23 42z" />
    <glyph glyph-name="aacute" unicode="&#xe1;" horiz-adv-x="683" 
d="M591 979q-16 -22 -123.5 -107.5t-124.5 -106.5q-23 20 -47 41.5t-47 41.5q17 22 101.5 127t101.5 126q62 -54 139 -122zM343 705q23 -44 102 -190.5t131 -243t104 -189.5q-52 -28 -163 -88q-34 60 -64 114q-14 -7 -41.5 -21.5t-40.5 -21.5q-13 25 -40.5 76t-40.5 77
q-20 -37 -61 -112t-62 -113q-19 10 -51.5 28t-60 32.5t-51.5 27.5q281 518 339 624zM342 314l-21 -39t-21 -38q33 18 65 35q-16 29 -23 42z" />
    <glyph glyph-name="acircumflex" unicode="&#xe2;" horiz-adv-x="683" 
d="M377 1109q22 -18 106.5 -126t105.5 -125q-20 -23 -42 -46.5t-42 -46.5q-19 15 -162 132q-143 -117 -162 -132q-20 23 -42 46.5t-42 46.5q18 14 62 69.5l88 111t62 70.5h68zM343 705q23 -44 102 -190.5t131 -243t104 -189.5q-52 -28 -163 -88q-34 60 -64 114
q-14 -7 -41.5 -21.5t-40.5 -21.5q-13 25 -40.5 76t-40.5 77q-20 -37 -61 -112t-62 -113q-19 10 -51.5 28t-60 32.5t-51.5 27.5q281 518 339 624zM342 314l-21 -39t-21 -38q33 18 65 35q-16 29 -23 42z" />
    <glyph glyph-name="atilde" unicode="&#xe3;" horiz-adv-x="683" 
d="M668 870q-28 -26 -84 -65.5t-80 -39.5q-50 0 -118 24t-118 24q-29 0 -66.5 -13.5t-51.5 -29.5q-45 44 -133 130q17 17 89.5 48.5t103.5 31.5q50 0 116 -23.5t116 -23.5q47 0 114 61q20 -23 56 -62t56 -62zM343 705q23 -44 102 -190.5t131 -243t104 -189.5
q-52 -28 -163 -88q-34 60 -64 114q-14 -7 -41.5 -21.5t-40.5 -21.5q-13 25 -40.5 76t-40.5 77q-20 -37 -61 -112t-62 -113q-19 10 -51.5 28t-60 32.5t-51.5 27.5q281 518 339 624zM342 314l-21 -39t-21 -38q33 18 65 35q-16 29 -23 42z" />
    <glyph glyph-name="adieresis" unicode="&#xe4;" horiz-adv-x="683" 
d="M112 951q27 1 82 3t82 3q-1 -54 -4 -185q-25 -1 -52.5 -2t-60.5 -2.5t-52 -1.5q1 36 2.5 106.5t2.5 78.5zM414 951q25 0 52.5 1t61 2.5t51.5 2.5q-1 -54 -4 -186q-1 0 -165 -6q1 37 2.5 106.5t1.5 79.5zM343 705q23 -44 102 -190.5t131 -243t104 -189.5q-52 -28 -163 -88
q-34 60 -64 114q-14 -7 -41.5 -21.5t-40.5 -21.5q-13 25 -40.5 76t-40.5 77q-20 -37 -61 -112t-62 -113q-19 10 -51.5 28t-60 32.5t-51.5 27.5q281 518 339 624zM342 314l-21 -39t-21 -38q33 18 65 35q-16 29 -23 42z" />
    <glyph glyph-name="aring" unicode="&#xe5;" horiz-adv-x="683" 
d="M343 1090h2q86 0 135 -35q68 -51 68 -134q0 -59 -61.5 -107.5t-144.5 -48.5q-87 0 -146 45t-59 110q0 30 14.5 67.5t39.5 56.5q58 46 148 46h2h2zM343 876q29 0 44 14.5t15 35.5t-15.5 37t-41.5 16h-1.5h-0.5h-2q-26 0 -42 -16.5t-16 -38.5q0 -19 17 -33.5t43 -14.5z
M343 705q23 -44 102 -190.5t131 -243t104 -189.5q-52 -28 -163 -88q-34 60 -64 114q-14 -7 -41.5 -21.5t-40.5 -21.5q-13 25 -40.5 76t-40.5 77q-20 -37 -61 -112t-62 -113q-19 10 -51.5 28t-60 32.5t-51.5 27.5q281 518 339 624zM342 314l-21 -39t-21 -38q33 18 65 35
q-16 29 -23 42z" />
    <glyph glyph-name="ae" unicode="&#xe6;" horiz-adv-x="971" 
d="M917 673l24 -183l-306 -41l12 -39l170 48l50 -179l-189 -53v-23l299 42l26 -183l-511 -73v140q-12 -7 -52.5 -29t-62.5 -34q-4 25 -13.5 76t-13.5 77q-28 -31 -64.5 -72t-73 -81.5t-64.5 -71.5q-9 6 -57.5 38.5t-74.5 49.5q312 433 376 522zM474 342q-17 -16 -52.5 -50.5
t-54.5 -53.5q61 35 118 67z" />
    <glyph glyph-name="ccedilla" unicode="&#xe7;" horiz-adv-x="506" 
d="M112 86q0 -7 -0.5 -20.5t-0.5 -20.5q0 -37 16 -52q11 -4 23 -4q22 0 41.5 11t25.5 30q-3 28 -8 71l185 10l7 -38q2 -18 2 -35q0 -70 -38.5 -125t-96.5 -82.5t-122 -27.5q-107 0 -164 67.5t-57 179.5zM330 728q7 -34 19 -96.5t17 -86.5q-36 -7 -87 -16q-37 -3 -54.5 -36.5
t-17.5 -80.5q0 -76 44 -128q17 -22 49 -22q22 0 44 10q17 9 34.5 20.5t38.5 27t33 22.5l1 -1l1 -1v-1l1 -1l1 -1l1 -1v-1l1 -1l1 -1v-1l1 -1l1 -1v-1l1 -1l1 -1v-1l1 -1l1 -1l1 -1v-1l1 -1l1 -1v-1l1 -1l1 -1v-1l1 -1l1 -1v-1l1 -1l1 -1v-1l1 -1l1 -1l1 -1v-1l1 -1l1 -1v-1
l1 -1l1 -1v-1l1 -1l1 -1v-1l1 -1l1 -1l1 -1v-1l1 -1l1 -1v-1l1 -1l1 -1v-1l1 -1l1 -1v-1l1 -1l1 -1l1 -1v-1l1 -1l1 -1v-1l1 -1l1 -1v-1l1 -1l1 -1v-1l1 -1l1 -1v-1l1 -1l1 -1l1 -1v-1l1 -1l1 -1l1 -1v-1l1 -1l1 -1v-1l1 -1l1 -1v-1l1 -1l1 -1v-1l1 -1l1 -1l1 -1v-1l1 -1
l1 -1v-1l1 -1l1 -1v-1l1 -1l1 -1v-1l1 -1l1 -1l1 -1v-1l1 -1l1 -1v-1l1 -1l1 -1v-1l1 -1l1 -1v-1l1 -1l1 -1v-1l1 -1l1 -1l1 -1v-1l1 -1l1 -1v-1l1 -1l1 -1v-1l1 -1l1 -1v-1l1 -1l1 -1l1 -1v-1l1 -1l1 -1v-1l1 -1l1 -1v-1l1 -1l1 -1v-1l1 -1l1 -1l1 -1v-1l1 -1l1 -1
q-7 -5 -47 -33t-56 -37.5t-48.5 -24t-60.5 -19.5q-21 -5 -43 -5q-74 0 -143 48q-67 49 -102 129t-35 168q0 81 33 151t96 109q25 15 51.5 24t73 17.5t55.5 10.5z" />
    <glyph glyph-name="egrave" unicode="&#xe8;" horiz-adv-x="581" 
d="M145 1025q22 -18 106.5 -126t105.5 -125q-20 -23 -42 -46.5t-42 -46.5q-22 17 -126 102.5t-125 102.5q31 36 123 139zM473 620l25 -184l-306 -40l12 -39l170 48l50 -179l-189 -53v-23l299 42l26 -183l-511 -73v293l-100 322z" />
    <glyph glyph-name="eacute" unicode="&#xe9;" horiz-adv-x="581" 
d="M517 895q-16 -22 -123.5 -107.5t-124.5 -106.5q-23 20 -47 41.5t-47 41.5q17 22 101.5 127t101.5 126q62 -54 139 -122zM473 620l25 -184l-306 -40l12 -39l170 48l50 -179l-189 -53v-23l299 42l26 -183l-511 -73v293l-100 322z" />
    <glyph glyph-name="ecircumflex" unicode="&#xea;" horiz-adv-x="581" 
d="M324 1025q22 -18 106.5 -126t105.5 -125q-20 -23 -42 -46.5t-42 -46.5q-19 15 -162 132q-143 -117 -162 -132q-20 23 -42 46.5t-42 46.5q18 14 62 69.5l88 111t62 70.5h68zM473 620l25 -184l-306 -40l12 -39l170 48l50 -179l-189 -53v-23l299 42l26 -183l-511 -73v293
l-100 322z" />
    <glyph glyph-name="edieresis" unicode="&#xeb;" horiz-adv-x="581" 
d="M54 866q27 1 82 3t82 3q-1 -54 -4 -185q-25 -1 -52.5 -2t-60.5 -2.5t-52 -1.5q1 36 2.5 106.5t2.5 78.5zM356 866q25 0 52.5 1t61 2.5t51.5 2.5q-1 -54 -4 -186q-1 0 -165 -6q1 37 2.5 106.5t1.5 79.5zM473 620l25 -184l-306 -40l12 -39l170 48l50 -179l-189 -53v-23
l299 42l26 -183l-511 -73v293l-100 322z" />
    <glyph glyph-name="igrave" unicode="&#xec;" horiz-adv-x="237" 
d="M79 1070q22 -18 106.5 -126t105.5 -125q-20 -23 -42 -46.5t-42 -46.5q-22 17 -126 102.5t-125 102.5q31 36 123 139zM207 666q1 -91 3 -204t4 -231t3 -204q-67 -1 -185 -2l-11 637q66 2 186 4z" />
    <glyph glyph-name="iacute" unicode="&#xed;" horiz-adv-x="237" 
d="M350 940q-16 -22 -123.5 -107.5t-124.5 -106.5q-23 20 -47 41.5t-47 41.5q17 22 101.5 127t101.5 126q62 -54 139 -122zM207 666q1 -91 3 -204t4 -231t3 -204q-67 -1 -185 -2l-11 637q66 2 186 4z" />
    <glyph glyph-name="icircumflex" unicode="&#xee;" horiz-adv-x="237" 
d="M154 1070q22 -18 106.5 -126t105.5 -125q-20 -23 -42 -46.5t-42 -46.5q-19 15 -162 132q-143 -117 -162 -132q-20 23 -42 46.5t-42 46.5q18 14 62 69.5l88 111t62 70.5h68zM207 666q1 -91 3 -204t4 -231t3 -204q-67 -1 -185 -2l-11 637q66 2 186 4z" />
    <glyph glyph-name="idieresis" unicode="&#xef;" horiz-adv-x="237" 
d="M-112 911q27 1 82 3t82 3q-1 -54 -4 -185q-25 -1 -52.5 -2t-60.5 -2.5t-52 -1.5q1 36 2.5 106.5t2.5 78.5zM190 911q25 0 52.5 1t61 2.5t51.5 2.5q-1 -54 -4 -186q-1 0 -165 -6q1 37 2.5 106.5t1.5 79.5zM207 666q1 -91 3 -204t4 -231t3 -204q-67 -1 -185 -2l-11 637
q66 2 186 4z" />
    <glyph glyph-name="eth" unicode="&#xf0;" horiz-adv-x="542" 
d="M188 717q162 0 254 -81t92 -229q0 -97 -41 -176t-122 -128.5t-188 -50.5l-92 -9l-25 242l-74 -2q-1 62 -2 185l56 2l-25 235q17 1 55 5t63 5.5t49 1.5zM232 476q34 1 68 3q1 -69 2 -186l-50 -2l4 -43q52 13 72 56.5t20 113.5q-3 39 -38.5 73.5t-83.5 38.5z" />
    <glyph glyph-name="ntilde" unicode="&#xf1;" horiz-adv-x="581" 
d="M654 808q-28 -26 -84 -65.5t-80 -39.5q-50 0 -118 24t-118 24q-29 0 -66.5 -13.5t-51.5 -29.5q-45 44 -133 130q17 17 89.5 48.5t103.5 31.5q50 0 116 -23.5t116 -23.5q47 0 114 61q20 -23 56 -62t56 -62zM28 643q104 -82 347 -272q58 182 86 266q45 -15 176 -57v-1
l-1 -1v-1v-1l-1 -1v-1v-1l-1 -1v-1v-1l-1 -1v-1v-1v-1l-1 -1v-1v-1l-1 -1v-1v-1l-1 -1v-1v-1l-1 -1v-1v-1l-1 -1v-1v-1l-1 -1v-1v-1l-1 -1v-1v-1l-1 -1v-1v-1l-1 -1v-1v-1l-1 -1v-1v-1v-1l-1 -1v-1v-1l-1 -1v-1v-1l-1 -1v-1v-1l-1 -1v-1v-1l-1 -1v-1v-1l-1 -1v-1v-1l-1 -1
v-1v-1l-1 -1v-1v-1l-1 -1v-1v-1l-1 -1v-1v-1l-1 -1v-1v-1v-1l-1 -1v-1v-1l-1 -1v-1v-1l-1 -1v-1v-1l-1 -1v-1v-1l-1 -1v-1v-1l-1 -1v-1v-1l-1 -1v-1v-1l-1 -1v-1v-1l-1 -1v-1v-1l-1 -1v-1v-1v-1l-1 -1v-1v-1l-1 -1v-1v-1l-1 -1v-1v-1l-1 -1v-1v-1l-1 -1v-1v-1l-1 -1v-1v-1
l-1 -1v-1v-1l-1 -1v-1v-1l-1 -1v-1v-1l-1 -1v-1v-1v-1l-1 -1v-1v-1l-1 -1v-1v-1l-1 -1v-1v-1l-1 -1v-1v-1l-1 -1v-1v-1l-1 -1v-1v-1l-1 -1v-1v-1l-1 -1v-1v-1l-1 -1v-1v-1l-1 -1v-1v-1l-1 -1v-1v-1v-1l-1 -1v-1v-1l-1 -1v-1v-1l-1 -1v-1v-1l-1 -1v-1v-1l-1 -1v-1v-1l-1 -1
v-1v-1l-1 -1v-1v-1l-1 -1v-1v-1l-1 -1v-1v-1l-1 -1v-1v-1v-1l-1 -1v-1v-1l-1 -1v-1v-1l-1 -1v-1v-1l-1 -1v-1v-1l-1 -1v-1v-1l-1 -1v-1v-1l-1 -1v-1v-1l-1 -1v-1v-1l-1 -1v-1v-1l-1 -1v-1v-1v-1l-1 -1v-1v-1l-1 -1v-1v-1l-1 -1v-1v-1l-1 -1v-1v-1l-1 -1v-1v-1l-1 -1v-1v-1
l-1 -1v-1v-1l-1 -1v-1v-1l-1 -1v-1v-1l-1 -1v-1v-1l-1 -1v-1v-1v-1l-1 -1v-1v-1l-1 -1v-1v-1l-1 -1v-1v-1l-1 -1v-1v-1l-1 -1v-1v-1l-1 -1v-1v-1l-1 -1v-1v-1l-1 -1v-1v-1l-1 -1v-1v-1l-1 -1v-1v-1v-1l-1 -1v-1v-1l-1 -1v-1v-1l-1 -1v-1v-1l-1 -1v-1v-1l-1 -1v-1v-1l-1 -1
v-1v-1l-1 -1v-1v-1l-1 -1v-1v-1l-1 -1v-1v-1l-1 -1v-1v-1l-1 -1v-1v-1v-1l-1 -1v-1v-1l-1 -1v-1v-1l-1 -1v-1v-1l-1 -1v-1v-1l-1 -1v-1v-1l-1 -1v-1v-1l-1 -1v-1v-1l-1 -1v-1v-1l-1 -1v-1v-1l-1 -1v-1v-1l-1 -1v-1v-1l-1 -1v-1v-1v-1l-1 -1v-1v-1l-1 -1v-1v-1l-1 -1v-1v-1
l-1 -1v-1v-1l-1 -1v-1v-1l-1 -1v-1v-1l-1 -1v-1v-1l-1 -1v-1v-1l-1 -1v-1v-1l-1 -1v-1v-1l-1 -1v-1v-1v-1l-1 -1v-1v-1l-1 -1v-1v-1l-1 -1v-1v-1l-1 -1v-1v-1l-1 -1v-1v-1l-1 -1v-1v-1l-1 -1v-1v-1l-1 -1v-1v-1l-1 -1v-1v-1l-1 -1v-1v-1v-1l-1 -1v-1v-1l-1 -1v-1v-1l-1 -1
v-1v-1l-1 -1v-1v-1l-1 -1v-1v-1l-1 -1v-1v-1l-1 -1v-1v-1l-1 -1v-1v-1l-1 -1v-1v-1l-1 -1v-1v-1v-1l-1 -1v-1v-1l-1 -1v-1v-1l-1 -1v-1v-1l-1 -1v-1v-1l-1 -1v-1v-1l-1 -1v-1v-1l-1 -1v-1v-1l-1 -1v-1v-1l-1 -1v-1v-1l-1 -1v-1v-1l-1 -1v-1v-1v-1l-1 -1v-1v-1l-1 -1v-1v-1
l-1 -1v-1v-1l-1 -1v-1v-1l-1 -1v-1l-1 -2q-235 185 -260 204q-2 -118 -2 -177q-31 0 -93 1t-93 1q2 184 7 553z" />
    <glyph glyph-name="ograve" unicode="&#xf2;" 
d="M151 1019q22 -18 106.5 -126t105.5 -125q-20 -23 -42 -46.5t-42 -46.5q-22 17 -126 102.5t-125 102.5q31 36 123 139zM280 614h3q107 0 183 -74q40 -37 62 -88.5t22 -106.5q0 -115 -79 -193.5t-193 -78.5q-59 0 -114 26t-92 71q-63 71 -63 173q0 103 64 175
q37 45 90.5 70.5t111.5 25.5h5zM280 258q34 0 59.5 25t25.5 62q0 33 -25 58.5t-58 25.5h-2h-3q-32 0 -57.5 -24.5t-25.5 -59.5t24.5 -61t61.5 -26z" />
    <glyph glyph-name="oacute" unicode="&#xf3;" 
d="M527 889q-16 -22 -123.5 -107.5t-124.5 -106.5q-23 20 -47 41.5t-47 41.5q17 22 101.5 127t101.5 126q62 -54 139 -122zM280 614h3q107 0 183 -74q40 -37 62 -88.5t22 -106.5q0 -115 -79 -193.5t-193 -78.5q-59 0 -114 26t-92 71q-63 71 -63 173q0 103 64 175
q37 45 90.5 70.5t111.5 25.5h5zM280 258q34 0 59.5 25t25.5 62q0 33 -25 58.5t-58 25.5h-2h-3q-32 0 -57.5 -24.5t-25.5 -59.5t24.5 -61t61.5 -26z" />
    <glyph glyph-name="ocircumflex" unicode="&#xf4;" 
d="M313 1019q22 -18 106.5 -126t105.5 -125q-20 -23 -42 -46.5t-42 -46.5q-19 15 -162 132q-143 -117 -162 -132q-20 23 -42 46.5t-42 46.5q18 14 62 69.5l88 111t62 70.5h68zM280 614h3q107 0 183 -74q40 -37 62 -88.5t22 -106.5q0 -115 -79 -193.5t-193 -78.5
q-59 0 -114 26t-92 71q-63 71 -63 173q0 103 64 175q37 45 90.5 70.5t111.5 25.5h5zM280 258q34 0 59.5 25t25.5 62q0 33 -25 58.5t-58 25.5h-2h-3q-32 0 -57.5 -24.5t-25.5 -59.5t24.5 -61t61.5 -26z" />
    <glyph glyph-name="otilde" unicode="&#xf5;" 
d="M604 779q-28 -26 -84 -65.5t-80 -39.5q-50 0 -118 24t-118 24q-29 0 -66.5 -13.5t-51.5 -29.5q-45 44 -133 130q17 17 89.5 48.5t103.5 31.5q50 0 116 -23.5t116 -23.5q47 0 114 61q20 -23 56 -62t56 -62zM280 614h3q107 0 183 -74q40 -37 62 -88.5t22 -106.5
q0 -115 -79 -193.5t-193 -78.5q-59 0 -114 26t-92 71q-63 71 -63 173q0 103 64 175q37 45 90.5 70.5t111.5 25.5h5zM280 258q34 0 59.5 25t25.5 62q0 33 -25 58.5t-58 25.5h-2h-3q-32 0 -57.5 -24.5t-25.5 -59.5t24.5 -61t61.5 -26z" />
    <glyph glyph-name="odieresis" unicode="&#xf6;" 
d="M48 860q27 1 82 3t82 3q-1 -54 -4 -185q-25 -1 -52.5 -2t-60.5 -2.5t-52 -1.5q1 36 2.5 106.5t2.5 78.5zM350 860q25 0 52.5 1t61 2.5t51.5 2.5q-1 -54 -4 -186q-1 0 -165 -6q1 37 2.5 106.5t1.5 79.5zM280 614h3q107 0 183 -74q40 -37 62 -88.5t22 -106.5
q0 -115 -79 -193.5t-193 -78.5q-59 0 -114 26t-92 71q-63 71 -63 173q0 103 64 175q37 45 90.5 70.5t111.5 25.5h5zM280 258q34 0 59.5 25t25.5 62q0 33 -25 58.5t-58 25.5h-2h-3q-32 0 -57.5 -24.5t-25.5 -59.5t24.5 -61t61.5 -26z" />
    <glyph glyph-name="oslash" unicode="&#xf8;" 
d="M280 258q34 0 59.5 25t25.5 62t-30 63q-14 -25 -41 -74t-39 -72q12 -4 25 -4zM30 238q-21 49 -21 105q0 98 63.5 175t161.5 93q60 109 95 173q60 -32 163 -89q-27 -49 -68 -123q22 -14 42 -32q40 -37 62 -88.5t22 -106.5q0 -115 -79 -193.5t-193 -78.5q-58 0 -112 26
q-44 -78 -72 -130q-61 33 -163 89q36 66 99 180z" />
    <glyph glyph-name="ugrave" unicode="&#xf9;" horiz-adv-x="642" 
d="M308 1019q22 -18 106.5 -126t105.5 -125q-20 -23 -42 -46.5t-42 -46.5q-22 17 -126 102.5t-125 102.5q31 36 123 139zM436 544h1h1h1h1h1h1h1h1h1l1 -1h1h1h1h1h1h1h1h1h1h1h1h1h1h1h1h1h1h1h1h1h1h1l1 -1h1h1h1h1h1h1h1h1h1h1h1h1h1h1h1h1h1h1h1h1h1h1l1 -1h1h1h1h1h1h1
h1h1h1h1h1h1h1h1h1h1h1h1h1h1h1h1l1 -1h1h1h1h1h1h1h1h1h1h1h1h1h1h1h1h1h1h1h1h1h1h1l1 -1h1h1h1h1h1h1h1h1h1h1h1h1h1h1h1h1h1h1h1h1h1h1l1 -1h1h1h1h1h1h1h1h1h1h1h1h1h1h1h1h1h1h1h1h1h1h1l1 -1h1h1h1h1h1h1h1h1h1h1h1h1h1h1h1h1h1h1h1h1h1h1l1 -1h1h1h1h1h1h1h1h1h1h1
h1h1h1h1q-2 -60 -7.5 -180t-7.5 -180q0 -68 -40 -127t-103 -86q-62 -25 -137 -25q-45 0 -92 9q-71 15 -125 66.5t-62 120.5q-6 76 -14.5 216.5t-11.5 179.5q31 2 185 12q4 -59 11 -171.5t11 -164.5q1 -6 1 -19t2 -23t7 -17q29 -24 86 -24q88 0 95 49q4 70 9.5 198.5
t7.5 173.5z" />
    <glyph glyph-name="uacute" unicode="&#xfa;" horiz-adv-x="642" 
d="M684 889q-16 -22 -123.5 -107.5t-124.5 -106.5q-23 20 -47 41.5t-47 41.5q17 22 101.5 127t101.5 126q62 -54 139 -122zM436 544h1h1h1h1h1h1h1h1h1l1 -1h1h1h1h1h1h1h1h1h1h1h1h1h1h1h1h1h1h1h1h1h1h1l1 -1h1h1h1h1h1h1h1h1h1h1h1h1h1h1h1h1h1h1h1h1h1h1l1 -1h1h1h1h1h1
h1h1h1h1h1h1h1h1h1h1h1h1h1h1h1h1h1l1 -1h1h1h1h1h1h1h1h1h1h1h1h1h1h1h1h1h1h1h1h1h1h1l1 -1h1h1h1h1h1h1h1h1h1h1h1h1h1h1h1h1h1h1h1h1h1h1l1 -1h1h1h1h1h1h1h1h1h1h1h1h1h1h1h1h1h1h1h1h1h1h1l1 -1h1h1h1h1h1h1h1h1h1h1h1h1h1h1h1h1h1h1h1h1h1h1l1 -1h1h1h1h1h1h1h1h1h1
h1h1h1h1h1q-2 -60 -7.5 -180t-7.5 -180q0 -68 -40 -127t-103 -86q-62 -25 -137 -25q-45 0 -92 9q-71 15 -125 66.5t-62 120.5q-6 76 -14.5 216.5t-11.5 179.5q31 2 185 12q4 -59 11 -171.5t11 -164.5q1 -6 1 -19t2 -23t7 -17q29 -24 86 -24q88 0 95 49q4 70 9.5 198.5
t7.5 173.5z" />
    <glyph glyph-name="ucircumflex" unicode="&#xfb;" horiz-adv-x="642" 
d="M359 1019q22 -18 106.5 -126t105.5 -125q-20 -23 -42 -46.5t-42 -46.5q-19 15 -162 132q-143 -117 -162 -132q-20 23 -42 46.5t-42 46.5q18 14 62 69.5l88 111t62 70.5h68zM436 544h1h1h1h1h1h1h1h1h1l1 -1h1h1h1h1h1h1h1h1h1h1h1h1h1h1h1h1h1h1h1h1h1h1l1 -1h1h1h1h1h1
h1h1h1h1h1h1h1h1h1h1h1h1h1h1h1h1h1l1 -1h1h1h1h1h1h1h1h1h1h1h1h1h1h1h1h1h1h1h1h1h1h1l1 -1h1h1h1h1h1h1h1h1h1h1h1h1h1h1h1h1h1h1h1h1h1h1l1 -1h1h1h1h1h1h1h1h1h1h1h1h1h1h1h1h1h1h1h1h1h1h1l1 -1h1h1h1h1h1h1h1h1h1h1h1h1h1h1h1h1h1h1h1h1h1h1l1 -1h1h1h1h1h1h1h1h1h1
h1h1h1h1h1h1h1h1h1h1h1h1h1l1 -1h1h1h1h1h1h1h1h1h1h1h1h1h1h1q-2 -60 -7.5 -180t-7.5 -180q0 -68 -40 -127t-103 -86q-62 -25 -137 -25q-45 0 -92 9q-71 15 -125 66.5t-62 120.5q-6 76 -14.5 216.5t-11.5 179.5q31 2 185 12q4 -59 11 -171.5t11 -164.5q1 -6 1 -19t2 -23
t7 -17q29 -24 86 -24q88 0 95 49q4 70 9.5 198.5t7.5 173.5z" />
    <glyph glyph-name="udieresis" unicode="&#xfc;" horiz-adv-x="642" 
d="M91 860q27 1 82 3t82 3q-1 -54 -4 -185q-25 -1 -52.5 -2t-60.5 -2.5t-52 -1.5q1 36 2.5 106.5t2.5 78.5zM393 860q25 0 52.5 1t61 2.5t51.5 2.5q-1 -54 -4 -186q-1 0 -165 -6q1 37 2.5 106.5t1.5 79.5zM436 544h1h1h1h1h1h1h1h1h1l1 -1h1h1h1h1h1h1h1h1h1h1h1h1h1h1h1h1
h1h1h1h1h1h1l1 -1h1h1h1h1h1h1h1h1h1h1h1h1h1h1h1h1h1h1h1h1h1h1l1 -1h1h1h1h1h1h1h1h1h1h1h1h1h1h1h1h1h1h1h1h1h1h1l1 -1h1h1h1h1h1h1h1h1h1h1h1h1h1h1h1h1h1h1h1h1h1h1l1 -1h1h1h1h1h1h1h1h1h1h1h1h1h1h1h1h1h1h1h1h1h1h1l1 -1h1h1h1h1h1h1h1h1h1h1h1h1h1h1h1h1h1h1h1h1
h1h1l1 -1h1h1h1h1h1h1h1h1h1h1h1h1h1h1h1h1h1h1h1h1h1h1l1 -1h1h1h1h1h1h1h1h1h1h1h1h1h1h1q-2 -60 -7.5 -180t-7.5 -180q0 -68 -40 -127t-103 -86q-62 -25 -137 -25q-45 0 -92 9q-71 15 -125 66.5t-62 120.5q-6 76 -14.5 216.5t-11.5 179.5q31 2 185 12q4 -59 11 -171.5
t11 -164.5q1 -6 1 -19t2 -23t7 -17q29 -24 86 -24q88 0 95 49q4 70 9.5 198.5t7.5 173.5z" />
    <glyph glyph-name="yacute" unicode="&#xfd;" horiz-adv-x="453" 
d="M691 992q-16 -22 -123.5 -107.5t-124.5 -106.5q-23 20 -47 41.5t-47 41.5q17 22 101.5 127t101.5 126q62 -54 139 -122zM443 718l66 -72q40 -44 59 -65q-42 -39 -124.5 -115t-122.5 -113q2 -267 4 -403q-131 -1 -186 -2q-3 267 -4 401q-83 66 -250 199l1 1v1l1 1l1 1l1 1
l1 1v1l1 1l1 1l1 1v1l1 1l1 1l1 1l1 1v1l1 1l1 1l1 1l1 1v1l1 1l1 1l1 1l1 1v1l1 1l1 1l1 1l1 1v1l1 1l1 1l1 1l1 1v1l1 1l1 1l1 1l1 1v1l1 1l1 1l1 1l1 1v1l1 1l1 1l1 1l1 1v1l1 1l1 1l1 1l1 1v1l1 1l1 1l1 1l1 1v1l1 1l1 1l1 1l1 1v1l1 1l1 1l1 1l1 1v1l1 1l1 1l1 1v1l1 1
l1 1l1 1l1 1v1l1 1l1 1l1 1l1 1v1l1 1l1 1l1 1l1 1v1l1 1l1 1l1 1l1 1v1l1 1l1 1l1 1l1 1v1l1 1l1 1l1 1l1 1v1l1 1l1 1l1 1l1 1v1l1 1l1 1l1 1l1 1v1l1 1l1 1l1 1l1 1v1l1 1l1 1l1 1l1 1v1l1 1l1 1l1 1l1 1v1l1 1l1 1l1 1l1 1v1l1 1l1 1l1 1l1 1v1l1 1l1 1l1 1v1l1 1
q35 -27 109.5 -86.5t113.5 -90.5q74 67 220 202z" />
    <glyph glyph-name="thorn" unicode="&#xfe;" horiz-adv-x="538" 
d="M317 316q-29 -2 -103 -8q0 -12 1 -38t2 -40q31 4 102 12q12 9 12 30q0 24 -14 44zM390 507q65 -64 73 -73q65 -75 65 -160q0 -21 -7 -49q-7 -29 -25 -60.5t-30.5 -47t-40.5 -50.5q-20 -2 -206 -23q0 -37 -0.5 -109.5t-1.5 -109.5q-62 1 -185 3q0 32 1.5 96.5t2 96.5
t-0.5 97l-18 598h194v-222q47 4 179 13z" />
    <glyph glyph-name="ydieresis" unicode="&#xff;" horiz-adv-x="453" 
d="M-13 964q27 1 82 3t82 3q-1 -54 -4 -185q-25 -1 -52.5 -2t-60.5 -2.5t-52 -1.5q1 36 2.5 106.5t2.5 78.5zM289 964q25 0 52.5 1t61 2.5t51.5 2.5q-1 -54 -4 -186q-1 0 -165 -6q1 37 2.5 106.5t1.5 79.5zM443 718l66 -72q40 -44 59 -65q-42 -39 -124.5 -115t-122.5 -113
q2 -267 4 -403q-131 -1 -186 -2q-3 267 -4 401q-83 66 -250 199l1 1v1l1 1l1 1l1 1l1 1v1l1 1l1 1l1 1v1l1 1l1 1l1 1l1 1v1l1 1l1 1l1 1l1 1v1l1 1l1 1l1 1l1 1v1l1 1l1 1l1 1l1 1v1l1 1l1 1l1 1l1 1v1l1 1l1 1l1 1l1 1v1l1 1l1 1l1 1l1 1v1l1 1l1 1l1 1l1 1v1l1 1l1 1l1 1
l1 1v1l1 1l1 1l1 1l1 1v1l1 1l1 1l1 1l1 1v1l1 1l1 1l1 1l1 1v1l1 1l1 1l1 1v1l1 1l1 1l1 1l1 1v1l1 1l1 1l1 1l1 1v1l1 1l1 1l1 1l1 1v1l1 1l1 1l1 1l1 1v1l1 1l1 1l1 1l1 1v1l1 1l1 1l1 1l1 1v1l1 1l1 1l1 1l1 1v1l1 1l1 1l1 1l1 1v1l1 1l1 1l1 1l1 1v1l1 1l1 1l1 1l1 1v1
l1 1l1 1l1 1l1 1v1l1 1l1 1l1 1l1 1v1l1 1l1 1l1 1l1 1v1l1 1l1 1l1 1v1l1 1q35 -27 109.5 -86.5t113.5 -90.5q74 67 220 202z" />
    </font>
</defs>
</svg>
