<?xml version="1.0" encoding="utf-8"?>
<!-- Generator: Adobe Illustrator 16.0.0, SVG Export Plug-In . SVG Version: 6.00 Build 0)  -->
<!DOCTYPE svg PUBLIC "-//W3C//DTD SVG 1.1//EN" "http://www.w3.org/Graphics/SVG/1.1/DTD/svg11.dtd">
<svg version="1.1" id="Layer_1" xmlns="http://www.w3.org/2000/svg" xmlns:xlink="http://www.w3.org/1999/xlink" x="0px" y="0px"
	 width="573px" height="292.627px" viewBox="0 0 573 292.627" enable-background="new 0 0 573 292.627" xml:space="preserve">
<path fill="#2B2C42" d="M142.573,82.261c6.834,2.147,12.433,6.5,12.692,14.146c0,0.017-0.003,0.034-0.003,0.051
	c0.683-0.024,1.356-0.037,2.007-0.033c11.552,0.085,23.012,1.447,34.508,2.418c-0.304-0.668-0.505-1.376-0.585-2.107
	c-2.521,0.559-5.034,0.661-7.342,0.178c-6.614-1.384-8.544-7.775-6.231-13.283c-2.268-4.849,0.05-11.362,4.247-15.367
	c-0.551-1.807-0.468-3.802,0.399-5.401c-4.668-1.821-9.744-2.829-15.06-2.829c-15.637,0-29.231,8.644-36.338,21.399
	C134.586,80.79,138.546,80.996,142.573,82.261z"/>
<path fill="#FFFFFF" d="M240.691,177.531c-0.127-0.15-0.212-0.333-0.317-0.5c-0.103-0.116-0.183-0.25-0.271-0.374
	c-0.02-0.021-0.034-0.042-0.051-0.061c-0.072-0.064-0.128-0.145-0.195-0.213c-0.085-0.06-0.14-0.145-0.215-0.213
	c-0.156-0.114-0.293-0.246-0.416-0.391c-1.004-0.52-2.438-2.143-3.798-3.917c-0.491-0.503-0.99-1.003-1.526-1.489
	c-1.413-1.273-2.869-2.694-3.854-4.341c-0.198-0.217-0.368-0.45-0.521-0.698c-0.631-0.586-1.239-1.206-1.804-1.882
	c-1.552-1.859-3.58-3.338-4.771-5.406c-1.356-1.555-2.673-3.155-4.014-4.729c-3.642-4.274-7.337-8.976-10.549-13.731
	c-0.159-0.157-0.318-0.314-0.463-0.483c-0.2-0.231-0.379-0.456-0.549-0.681c-0.303-0.251-0.555-0.547-0.78-0.862
	c-0.202-0.14-0.385-0.297-0.559-0.462c-7.353-4.005-13.81-2.208-13.81-2.208h-0.003c4.534-3.417,8.315-7.757,11.131-12.718
	c-1.097,0.003-2.194,0.005-3.292,0.005c-5.425,0.008-7.653-4.942-6.687-9.014c-9.188-0.963-28.579-3.091-37.638-2.92
	c1.484,3.569,0.514,8.581-4.135,10.431c-5.533,2.202-12.197,4.93-18.436,4.858c2.508,3.571,5.547,6.747,9.032,9.37h-0.004
	l-37.585,0.138c0,0-20.09,0.089-19.644,14.824c0.446,14.732,23.722,12.025,23.722,12.025c-0.022,0.035-0.035,0.067-0.056,0.103
	c0.061-0.004,0.113-0.016,0.175-0.016c6.563-0.059,13.118-0.311,19.675-0.358c0.371-0.058,0.753-0.037,1.122,0.098
	c0.597,0.217,0.849,0.374,1.34,0.773c0.356,0.287,0.565,0.672,0.678,1.09c0.208,0.35,0.308,0.744,0.359,1.149
	c0.05,0.222,0.083,0.444,0.083,0.674c0.005,0,0.02-0.002,0.02-0.002l-0.24,47.622c-15.953,3.098-12.261,21.31-12.261,21.31h40.954
	v-25.715c0-2.5,1.308-5.834,8.692-5.834c7.38,0,7.261,5.238,7.261,5.238v25.479l39.408,0.831c0,0,1.786-5.713-0.714-12.261
	c-2.5-6.549-10.001-8.571-10.001-8.571l0.237-37.205c3.215,4.82,20.537,10.714,20.537,10.714
	C241.775,192.181,242.297,181.705,240.691,177.531z"/>
<ellipse fill="#FFFFFF" cx="167.07" cy="101.465" rx="36.143" ry="35.308"/>
<rect x="119.208" y="80.035" fill="none" width="95.722" height="55.718"/>
<text transform="matrix(1 0 0 1 145.2651 109.752)" fill="#2B2C42" font-family="'BMJUA'" font-size="37.1454">NE</text>
<circle fill="#FFFFFF" cx="166.671" cy="101.998" r="42.396"/>
<circle fill="#323349" cx="166.67" cy="101.998" r="35.435"/>
<ellipse fill="#FFFFFF" cx="166.402" cy="58.781" rx="6.161" ry="4.286"/>
<path fill="#FFFFFF" d="M240.313,176.992c-3.6-3.617-34.455-39.993-34.455-39.993c-0.841,15.698,32.081,38.444,34.547,40.123
	C240.375,177.076,240.341,177.035,240.313,176.992z"/>
<g>
	<path fill="#FFFFFF" d="M166.634,110.576c-0.022,0.388-0.074,0.799-0.154,1.233c-0.081,0.435-0.304,0.789-0.669,1.063
		c-0.274,0.228-0.582,0.365-0.926,0.411c-0.343,0.046-0.68,0.027-1.011-0.05c-0.332-0.081-0.646-0.207-0.943-0.378
		c-0.297-0.171-0.538-0.383-0.72-0.634c-0.777-0.96-1.492-1.949-2.143-2.966c-0.652-1.017-1.309-2.04-1.972-3.069l-2.88-4.354
		c-0.389-0.617-0.801-1.309-1.235-2.075c-0.434-0.765-0.88-1.479-1.337-2.143l-0.104,13.098v0.309c0,0.365-0.063,0.725-0.188,1.08
		c-0.126,0.354-0.337,0.657-0.634,0.91c-0.229,0.182-0.526,0.308-0.891,0.376c-0.573,0.114-1.046,0.08-1.423-0.103
		c-0.377-0.183-0.674-0.434-0.892-0.754c-0.217-0.32-0.366-0.691-0.446-1.114c-0.081-0.423-0.097-0.839-0.051-1.251v-0.583
		l0.069-2.674l0.035-4.972c0.022-0.731,0.034-1.479,0.034-2.246c0-0.766,0-1.549,0-2.349c-0.023-0.983-0.018-2.023,0.017-3.121
		c0.035-1.097,0.074-2.125,0.12-3.086c0.046-0.525,0.171-0.971,0.377-1.337c0.091-0.32,0.331-0.594,0.72-0.822
		c0.251-0.16,0.577-0.263,0.978-0.309c0.399-0.045,0.749-0.034,1.045,0.035c0.115,0.046,0.229,0.097,0.344,0.154
		c0.113,0.058,0.228,0.121,0.342,0.188c0.115,0.092,0.223,0.184,0.326,0.274c0.104,0.092,0.201,0.194,0.292,0.309
		c0.114,0.114,0.217,0.234,0.308,0.36c0.091,0.125,0.183,0.246,0.275,0.36c0.069,0.137,0.137,0.263,0.206,0.377
		c0.069,0.115,0.148,0.229,0.24,0.343l0.377,0.548l7.92,12.481v-2.263c0-0.731-0.005-1.479-0.017-2.246
		c-0.012-0.766-0.029-1.56-0.052-2.383c0-0.959,0.006-1.989,0.017-3.085c0.012-1.097,0.041-2.126,0.086-3.086
		c0-0.389,0.114-0.834,0.342-1.337c0.115-0.297,0.309-0.537,0.583-0.72c0.274-0.183,0.583-0.309,0.926-0.378
		c0.343-0.068,0.686-0.068,1.028,0c0.343,0.069,0.64,0.206,0.892,0.412c0.069,0.068,0.137,0.149,0.205,0.24
		c0.069,0.091,0.125,0.194,0.172,0.308c0.115,0.298,0.183,0.561,0.206,0.789c0.068,0.32,0.103,0.606,0.103,0.857
		c0,2.857,0.005,5.772,0.018,8.743c0.011,2.972,0.028,5.886,0.051,8.744c0,0.32,0.012,0.634,0.034,0.943
		C166.656,109.941,166.656,110.254,166.634,110.576z"/>
	<path fill="#FFFFFF" d="M174.794,93.021l-0.068,5.383h1.372c0.937-0.022,1.771-0.035,2.503-0.035c0.73,0,1.542,0.012,2.434,0.035
		h0.171c0.274,0,0.542,0.006,0.806,0.017c0.262,0.012,0.519,0.018,0.771,0.018c0.275,0.023,0.537,0.063,0.789,0.121
		c0.251,0.057,0.502,0.12,0.754,0.188c0.389,0.137,0.708,0.343,0.96,0.618c0.229,0.297,0.343,0.628,0.343,0.994
		c0,0.115,0,0.246,0,0.394c0,0.149-0.023,0.28-0.069,0.395c-0.045,0.252-0.194,0.48-0.446,0.686
		c-0.115,0.16-0.332,0.274-0.651,0.343c-0.297,0.092-0.595,0.149-0.891,0.172c-0.321,0.068-0.641,0.103-0.96,0.103h-1.613
		l-6.342,0.034l-0.069,6.721l6.823,0.069h1.611c0.183,0,0.355,0,0.515,0c0.159,0,0.308,0.012,0.446,0.034
		c0.183,0.046,0.348,0.074,0.497,0.085c0.148,0.012,0.292,0.04,0.429,0.086c0.274,0.092,0.502,0.217,0.686,0.377
		c0.229,0.229,0.377,0.469,0.446,0.721c0.022,0.113,0.04,0.233,0.051,0.36c0.012,0.125,0.005,0.256-0.017,0.394
		c0,0.366-0.114,0.697-0.343,0.994c-0.274,0.32-0.594,0.526-0.96,0.616c-0.48,0.207-1.006,0.31-1.577,0.31
		c-0.252,0.022-0.514,0.034-0.789,0.034s-0.538,0.011-0.789,0.035h-0.206c-1.783,0.046-3.634,0.046-5.554,0
		c-0.458,0-0.824-0.007-1.098-0.018c-0.274-0.011-0.521-0.017-0.737-0.017c-0.218,0-0.44,0-0.668,0c-0.229,0-0.527,0-0.892,0
		c-0.527,0.046-0.96-0.046-1.303-0.273c-0.252-0.16-0.445-0.377-0.583-0.652c-0.069-0.068-0.103-0.137-0.103-0.206
		c-0.023-0.046-0.046-0.081-0.069-0.103c-0.022-0.023-0.046-0.058-0.068-0.103c-0.046-0.115-0.08-0.235-0.102-0.36
		c-0.023-0.126-0.034-0.246-0.034-0.36c-0.023-0.115-0.041-0.229-0.052-0.343c-0.012-0.115-0.029-0.229-0.052-0.343v-0.548
		c0-0.092,0.006-0.183,0.018-0.275c0.012-0.091,0.017-0.182,0.017-0.274v-2.674l0.069-4.938v-4.56c0-0.823,0.004-1.554,0.017-2.194
		c0.011-0.64,0.028-1.337,0.052-2.092v-0.171c0.022-0.252,0.039-0.486,0.051-0.703c0.011-0.217,0.017-0.439,0.017-0.668
		c0.022-0.457,0.148-0.903,0.378-1.337c0.091-0.183,0.188-0.343,0.292-0.48c0.103-0.138,0.245-0.252,0.428-0.343
		c0.344-0.207,0.698-0.308,1.063-0.308c0.183,0,0.32,0.012,0.412,0.034v-0.034c0.411,0,0.742,0,0.994,0c0.251,0,0.498,0,0.737,0
		s0.497-0.006,0.772-0.018c0.274-0.011,0.651-0.017,1.131-0.017c0.914-0.023,1.782-0.035,2.605-0.035s1.669,0.012,2.537,0.035h0.137
		c0.251,0.023,0.514,0.034,0.789,0.034c0.274,0,0.537,0.012,0.788,0.034c0.251,0,0.502,0.029,0.754,0.085
		c0.252,0.058,0.503,0.133,0.755,0.223c0.389,0.115,0.708,0.309,0.96,0.583c0.206,0.32,0.308,0.641,0.308,0.96
		c0,0.138,0,0.269,0,0.394c0,0.126-0.023,0.246-0.068,0.36c-0.023,0.229-0.161,0.468-0.412,0.72
		c-0.092,0.046-0.188,0.103-0.292,0.171c-0.102,0.069-0.222,0.126-0.359,0.171c-0.137,0.046-0.28,0.075-0.429,0.086
		s-0.292,0.029-0.428,0.052c-0.184,0.046-0.348,0.068-0.497,0.068c-0.149,0-0.314,0-0.498,0h-1.543l-6.857,0.034V93.021z"/>
</g>
<path fill="#FFFFFF" d="M98.698,166.499c0,2.382-2.066,4.313-4.614,4.313l0,0c-2.547,0-4.612-1.932-4.612-4.313V102.68
	c0-2.383,2.065-4.316,4.612-4.316l0,0c2.548,0,4.614,1.933,4.614,4.316V166.499z"/>
<circle fill="#FFFFFF" cx="94.084" cy="80.274" r="26.01"/>
<circle fill="#323349" cx="94.084" cy="80.035" r="19.701"/>
<g>
	<defs>
		<rect id="SVGID_1_" x="70.824" y="45.253" width="46.522" height="72.932"/>
	</defs>
	<clipPath id="SVGID_2_">
		<use xlink:href="#SVGID_1_"  overflow="visible"/>
	</clipPath>
	<path clip-path="url(#SVGID_2_)" fill="#FFFFFF" d="M105.656,78.551l-3.115,0.084c0.056,0.201,0.031,0.419-0.089,0.609
		c-0.063,0.104-0.151,0.183-0.249,0.244l-0.421,2.218c0.039,0.015,0.078,0.032,0.113,0.055c0.189,0.117,0.307,0.304,0.337,0.507
		l2.61,1.768c0.221-0.417,0.359-0.905,0.411-1.458c0.062-0.661,0-1.306-0.326-1.876c-0.081-0.143-0.081-0.252,0.025-0.389
		C105.351,79.808,105.583,79.204,105.656,78.551"/>
	<path clip-path="url(#SVGID_2_)" fill="#FFFFFF" d="M102.131,82.759c-0.137,0.218-0.371,0.337-0.615,0.34l-0.716,3.77
		c0.108,0.017,0.213,0.053,0.311,0.112c0.078,0.049,0.143,0.111,0.199,0.178l2.332-0.674c0.066-0.331,0.084-0.674,0.041-1.034
		c-0.019-0.159,0.032-0.242,0.121-0.296c0.36-0.232,0.654-0.521,0.881-0.858l-2.483-1.685
		C102.185,82.663,102.162,82.712,102.131,82.759"/>
	<path clip-path="url(#SVGID_2_)" fill="#FFFFFF" d="M101.69,73.323l0.193-1.664c-0.123-0.043-0.173-0.146-0.213-0.276
		c-0.154-0.524-0.393-0.966-0.745-1.35c-0.556-0.606-1.193-0.928-1.934-0.939c-0.276-0.006-0.553,0.063-0.815,0.176
		c-0.014,0.093-0.046,0.186-0.099,0.272c-0.019,0.028-0.041,0.054-0.063,0.079l3.078,3.937
		C101.263,73.415,101.476,73.333,101.69,73.323"/>
	<path clip-path="url(#SVGID_2_)" fill="#FFFFFF" d="M102.614,74.704l2.073,0.862c-0.034-0.035-0.067-0.072-0.106-0.108
		c-0.062-0.054-0.114-0.114-0.118-0.195c-0.013-0.364-0.063-0.71-0.149-1.067c-0.079-0.332-0.182-0.645-0.328-0.926
		c-0.428-0.816-1.039-1.322-1.801-1.536l-0.187,1.622c0.086,0.023,0.172,0.06,0.253,0.11
		C102.681,73.728,102.832,74.267,102.614,74.704"/>
	<path clip-path="url(#SVGID_2_)" fill="#FFFFFF" d="M105.104,76.068l-2.674-1.11c-0.145,0.145-0.332,0.236-0.527,0.27l0.027,2.85
		c0.095,0.019,0.186,0.05,0.271,0.102c0.07,0.042,0.128,0.098,0.178,0.156l3.297-0.089c0.004-0.041,0.004-0.083,0.004-0.125
		C105.684,77.342,105.488,76.647,105.104,76.068"/>
	<path clip-path="url(#SVGID_2_)" fill="#FFFFFF" d="M101.233,81.706l0.056-0.078l0.063,0.042c0.04-0.009,0.083-0.016,0.127-0.018
		l0.389-2.049c-0.167,0.018-0.342-0.014-0.496-0.108c-0.161-0.098-0.27-0.245-0.326-0.411l-1.87,0.236
		c-0.022,0.104-0.064,0.208-0.123,0.303c-0.014,0.019-0.028,0.038-0.04,0.057l2.099,2.088
		C101.152,81.742,101.191,81.722,101.233,81.706"/>
	<path clip-path="url(#SVGID_2_)" fill="#FFFFFF" d="M101.459,87.899l0.979,0.497c0.329-0.22,0.611-0.525,0.836-0.927
		c0.113-0.207,0.205-0.42,0.277-0.641l-2.092,0.605C101.503,87.583,101.506,87.744,101.459,87.899"/>
	<path clip-path="url(#SVGID_2_)" fill="#FFFFFF" d="M101.007,78.781c0.008-0.122,0.043-0.242,0.112-0.354
		c0.117-0.187,0.305-0.305,0.507-0.346l-0.032-2.85c-0.127-0.018-0.254-0.063-0.37-0.133c-0.044-0.028-0.086-0.06-0.127-0.094
		l-2.661,3.2c0.106,0.023,0.21,0.063,0.307,0.121c0.256,0.156,0.41,0.412,0.444,0.685L101.007,78.781z"/>
	<path clip-path="url(#SVGID_2_)" fill="#FFFFFF" d="M100.491,88.454l-0.517,2.607c0.813-0.382,1.27-1.167,1.549-2.142
		c0.033-0.121,0.071-0.158,0.167-0.184c0.147-0.042,0.293-0.095,0.43-0.16l-0.804-0.409
		C101.119,88.416,100.795,88.523,100.491,88.454"/>
	<path clip-path="url(#SVGID_2_)" fill="#FFFFFF" d="M99.868,87.53L96.054,86.4c0.042-0.092,0.081-0.187,0.112-0.283l3.808,1.131
		c0.003-0.004,0.003-0.005,0.003-0.006c0.12-0.189,0.304-0.313,0.508-0.361l0.731-3.842c-0.034-0.016-0.066-0.029-0.098-0.048
		c-0.09-0.054-0.162-0.124-0.216-0.204l-4.589,1.869c-0.014-0.104-0.031-0.206-0.053-0.307l4.526-1.844
		c-0.033-0.169-0.006-0.353,0.098-0.512c0-0.006,0.004-0.007,0.008-0.013l-2.098-2.087c-0.304,0.213-0.72,0.238-1.057,0.033
		c-0.087-0.053-0.163-0.118-0.225-0.19l-1.104,1.598c0.018-0.178,0.018-0.358,0.002-0.54l0.851-1.233l-1.139,0.145
		c-0.043-0.097-0.09-0.192-0.141-0.288l1.312-0.167c-0.023-0.169,0.002-0.345,0.077-0.509l-2.102-1.376
		c0.011-0.117,0.02-0.234,0.022-0.351l2.249,1.474c0.083-0.088,0.18-0.158,0.287-0.21l-2.383-3.314
		c0.067-0.084,0.131-0.171,0.191-0.26l2.465,3.431l2.797-3.366c-0.16-0.271-0.182-0.612-0.035-0.908l-4.481-2.306
		c-0.003-0.002-0.003-0.005-0.003-0.006c-0.003-0.015-0.004-0.03-0.008-0.043c-0.022-0.119-0.048-0.23-0.075-0.338l4.254,2.189
		l-2.775-3.548c-0.213,0.1-0.472,0.094-0.686-0.036c-0.294-0.181-0.408-0.535-0.297-0.844c-0.575-0.075-1.125,0.051-1.635,0.409
		c-0.001,0.004-0.002,0.004-0.005,0.006c-0.045-0.035-0.085-0.07-0.13-0.102c-0.573-0.407-1.204-0.515-1.861-0.372
		c-0.283,0.063-0.554,0.186-0.808,0.345c-0.078,0.048-0.123,0.068-0.209,0.024c-0.305-0.151-0.633-0.248-0.958-0.242
		c-0.739,0.014-1.378,0.333-1.937,0.939c-0.35,0.383-0.589,0.827-0.744,1.351c-0.043,0.148-0.102,0.259-0.263,0.291
		c-0.882,0.169-1.577,0.694-2.048,1.598c-0.148,0.281-0.254,0.594-0.331,0.926c-0.086,0.355-0.138,0.704-0.15,1.067
		c-0.001,0.082-0.057,0.139-0.116,0.195c-0.739,0.668-1.104,1.586-1.101,2.664c0,0.815,0.244,1.576,0.726,2.188
		c0.109,0.136,0.109,0.245,0.029,0.389c-0.325,0.569-0.389,1.215-0.327,1.876c0.109,1.154,0.583,2.024,1.451,2.578
		c0.086,0.055,0.143,0.137,0.12,0.297c-0.089,0.731,0.068,1.405,0.407,2.017c0.381,0.683,0.924,1.087,1.586,1.266
		c0.096,0.026,0.131,0.063,0.166,0.184c0.299,1.051,0.808,1.881,1.741,2.226c0.177,0.066,0.371,0.076,0.547,0.111
		c0.343-0.056,0.689-0.012,1-0.202c0.302-0.183,0.505,0.1,0.734,0.217c0.973,0.484,2.024,0.051,2.396-1.098
		c0.001,0.009,0.005,0.016,0.008,0.025c0.349,1.205,1.429,1.664,2.419,1.169c0.229-0.115,0.427-0.389,0.723-0.222l-2.178-2.236
		c0.037-0.112,0.063-0.229,0.084-0.35l2.683,2.752c0.138,0.012,0.281,0.019,0.421,0.041c0.131-0.024,0.27-0.039,0.405-0.069
		l0.565-2.859C99.938,88.143,99.813,87.83,99.868,87.53 M85.192,78.037c-0.025-0.614,0.179-1.167,0.492-1.649
		c0.197-0.303,0.227-0.29,0.393,0.042c0.036,0.071,0.082,0.135,0.122,0.204c0.655,1.103,1.621,1.485,2.608,1.105
		c0.73-0.282,1.272-0.878,1.644-1.683c0.282-0.61,0.477-1.274,0.865-1.818c0.455-0.645,1.008-1.077,1.713-1.199
		c0.271-0.045,0.383-0.173,0.36-0.492c-0.019-0.252-0.176-0.392-0.426-0.35c-0.643,0.105-1.218,0.41-1.708,0.912
		c-0.553,0.568-0.936,1.291-1.224,2.083c-0.201,0.545-0.457,1.037-0.867,1.396c-0.511,0.446-1.105,0.633-1.663,0.3
		c-0.89-0.531-1.227-1.381-0.99-2.551c0.224-1.104,1.118-1.999,2.15-1.945c0.45,0.023,0.899,0.03,1.345,0.037
		c0.231,0.004,0.397-0.175,0.404-0.406c0.008-0.248-0.154-0.426-0.397-0.434c-0.281-0.009-0.56-0.017-0.849-0.026
		c0.409-1.413,1.592-1.939,2.482-1.608c-0.156,0.239-0.312,0.458-0.452,0.692c-0.106,0.178-0.07,0.465,0.081,0.576
		c0.154,0.115,0.324,0.139,0.458-0.067c0.081-0.123,0.165-0.245,0.247-0.369c0.295-0.438,0.666-0.785,1.084-1.004
		c0.46-0.242,0.954-0.162,1.42,0.07c0.791,0.392,1.222,1.255,1.27,2.166c0.027,0.487-0.078,0.94-0.258,1.375
		c-0.347,0.835-0.856,1.47-1.557,1.895c-0.515,0.313-1.076,0.449-1.617,0.657c-0.491,0.189-0.896,0.514-1.243,0.955
		c-0.308,0.39-0.545,0.837-0.672,1.355c-0.071,0.281,0.012,0.498,0.205,0.572c0.2,0.077,0.396-0.051,0.46-0.333
		c0.039-0.178,0.106-0.332,0.177-0.485c0.359-0.745,0.908-1.21,1.592-1.411c0.502-0.145,0.997-0.298,1.454-0.588
		c0.145-0.093,0.203-0.007,0.223,0.11c0.089,0.558,0.104,1.123-0.028,1.674c-0.05,0.215-0.15,0.387-0.408,0.395
		c-0.602,0.017-1.08,0.379-1.487,0.892c-0.245,0.305-0.404,0.684-0.65,0.982c-0.494,0.597-1.085,0.906-1.807,0.419
		c-0.339-0.229-0.618-0.533-0.884-0.86c-0.515-0.626-1.157-0.876-1.857-0.732c-0.488,0.1-0.995,0.251-1.4,0.658
		c-0.146,0.147-0.254,0.134-0.379-0.066C85.34,79.051,85.219,78.553,85.192,78.037 M95.087,78.327
		c0.018,0.06,0.028,0.108,0.023,0.149c-0.05-0.05-0.058-0.111-0.037-0.194C95.08,78.298,95.082,78.311,95.087,78.327 M95.08,75.483
		c0.001,0.019,0.007,0.041,0.014,0.064C95.087,75.524,95.082,75.502,95.08,75.483 M92.913,84.411
		c0.278,0.053,0.551,0.012,0.822-0.042c0.438-0.088,0.852-0.272,1.222-0.578c0.143-0.119,0.254-0.134,0.371,0.083
		c0.363,0.688,0.413,1.403,0.117,2.127c-0.197,0.481-0.545,0.727-0.996,0.82c-0.504,0.1-0.925-0.091-1.317-0.422
		c-0.189-0.161-0.343-0.077-0.448,0.083c-0.111,0.17-0.111,0.379,0.033,0.562c0.13,0.16,0.287,0.256,0.446,0.355
		c0.337,0.206,0.346,0.264,0.053,0.572c-0.053,0.055-0.109,0.104-0.167,0.152c-0.138,0.123-0.191,0.387-0.109,0.55
		c0.099,0.193,0.296,0.261,0.466,0.155c0.356-0.225,0.566-0.603,0.745-1.01c0.044-0.101,0.081-0.178,0.188-0.165
		c0.292,0.038,0.556-0.084,0.815-0.217c0.091-0.046,0.136-0.036,0.189,0.068c0.323,0.619-0.015,1.558-0.619,1.671
		c-0.201,0.038-0.272,0.146-0.273,0.367c0,0.17-0.042,0.322-0.129,0.47c-0.363,0.626-1.083,0.681-1.622,0.232
		c-0.525-0.439-0.695-1.072-0.689-1.794c0-0.164,0-0.285-0.173-0.326c-0.552-0.124-0.949-0.543-1.294-1.04
		c-0.208-0.3-0.396-0.653-0.444-1.017c-0.117-0.901,0.073-1.737,0.57-2.451c0.142-0.201,0.129-0.507-0.008-0.641
		c-0.163-0.164-0.358-0.126-0.52,0.111c-0.167,0.245-0.319,0.504-0.441,0.79c-0.034,0.077-0.036,0.24-0.182,0.176
		c-0.295-0.132-0.563-0.322-0.788-0.582c-0.393-0.448-0.61-1.003-0.702-1.635c-0.042-0.297-0.224-0.476-0.435-0.427
		c-0.202,0.049-0.303,0.277-0.258,0.571c0.017,0.102,0.016,0.209,0.04,0.306c0.314,1.149,0.851,2.065,1.842,2.511
		c0.129,0.057,0.193,0.16,0.167,0.346c-0.05,0.411,0.003,0.818,0.094,1.216c0.249,1.107,0.849,1.863,1.686,2.373
		c0.084,0.049,0.165,0.084,0.17,0.207c0.02,0.378,0.133,0.726,0.269,1.058c0.068,0.165,0.024,0.236-0.09,0.259
		c-0.492,0.099-0.964,0.095-1.39-0.282c-0.529-0.465-0.784-1.116-0.893-1.86c-0.032-0.205-0.081-0.3-0.265-0.285
		c-0.254,0.021-0.494-0.053-0.734-0.167c-0.628-0.299-1.238-1.337-1-2.347c0.049-0.204,0.141-0.441,0.12-0.612
		c-0.026-0.225-0.312-0.183-0.479-0.268c-0.736-0.367-1.316-1.346-1.261-2.388c-0.022-0.213,0.016-0.469,0.086-0.705
		c0.271-0.886,0.843-1.371,1.592-1.58c0.571-0.158,1.085-0.017,1.509,0.491c0.216,0.257,0.432,0.514,0.679,0.725
		c0.784,0.669,1.645,0.823,2.479,0.158c0.458-0.364,0.765-0.893,1.085-1.404c0.407-0.646,1.052-0.874,1.674-0.547
		c0.613,0.321,0.927,0.938,0.99,1.698c0.07,0.886-0.272,1.574-0.897,2.041c-0.552,0.413-1.141,0.726-1.82,0.666
		c-0.203-0.018-0.356,0.151-0.363,0.386C92.622,84.203,92.7,84.37,92.913,84.411"/>
	<path clip-path="url(#SVGID_2_)" fill="#FFFFFF" d="M78.89,79.941c0-3.351,1.083-6.455,2.922-8.997
		c-0.12-0.056-0.224-0.132-0.311-0.228c-1.888,2.606-3.003,5.789-3.003,9.225c0,4.485,1.894,8.541,4.928,11.439h0.568
		C80.857,88.536,78.89,84.462,78.89,79.941"/>
	<path clip-path="url(#SVGID_2_)" fill="#FFFFFF" d="M82.49,70.067c-0.237,0.283-0.46,0.578-0.678,0.877
		c0.128,0.06,0.268,0.095,0.418,0.095c0.547,0,0.991-0.436,0.991-0.972c0-0.538-0.444-0.975-0.991-0.975
		c-0.544,0-0.988,0.437-0.988,0.975c0,0.25,0.099,0.478,0.259,0.65c0.16-0.22,0.322-0.438,0.492-0.65H82.49z"/>
	<path clip-path="url(#SVGID_2_)" fill="#FFFFFF" d="M81.812,70.944c0.217-0.299,0.441-0.595,0.678-0.877h-0.497
		c-0.17,0.211-0.332,0.43-0.492,0.65C81.588,70.813,81.692,70.889,81.812,70.944"/>
	<path clip-path="url(#SVGID_2_)" fill="#FFFFFF" d="M110.825,79.941c0-3.727-1.312-7.158-3.497-9.875h-0.498
		c2.252,2.686,3.604,6.128,3.604,9.875c0,4.003-1.544,7.655-4.075,10.413c-0.176-0.164-0.416-0.267-0.678-0.267
		c-0.547,0-0.987,0.436-0.987,0.974c0,0.539,0.44,0.974,0.987,0.974s0.99-0.435,0.99-0.974c0-0.138-0.03-0.268-0.083-0.387
		C109.216,87.842,110.825,84.075,110.825,79.941"/>
</g>
<g>
	<path fill="#FFFFFF" d="M284.146,160.469c-0.024,0.422-0.081,0.868-0.166,1.336c-0.088,0.472-0.329,0.856-0.724,1.154
		c-0.299,0.248-0.633,0.395-1.004,0.446c-0.371,0.048-0.736,0.031-1.096-0.056c-0.358-0.089-0.699-0.224-1.021-0.412
		c-0.323-0.184-0.581-0.411-0.778-0.687c-0.843-1.04-1.616-2.111-2.323-3.211c-0.705-1.103-1.417-2.211-2.136-3.325l-3.119-4.718
		c-0.422-0.668-0.868-1.418-1.338-2.248c-0.47-0.829-0.953-1.603-1.447-2.322l-0.112,14.19v0.333c0,0.397-0.068,0.788-0.205,1.173
		c-0.136,0.383-0.365,0.711-0.688,0.982c-0.247,0.198-0.569,0.335-0.965,0.411c-0.62,0.122-1.133,0.085-1.542-0.111
		c-0.409-0.198-0.731-0.472-0.966-0.819c-0.236-0.347-0.396-0.748-0.482-1.207c-0.087-0.457-0.106-0.91-0.056-1.354v-0.633
		l0.075-2.896l0.037-5.387c0.024-0.792,0.037-1.604,0.037-2.435c0-0.829,0-1.677,0-2.543c-0.025-1.066-0.018-2.193,0.019-3.382
		c0.037-1.188,0.08-2.302,0.13-3.343c0.049-0.57,0.185-1.052,0.409-1.448c0.098-0.347,0.358-0.644,0.78-0.892
		c0.272-0.173,0.625-0.283,1.059-0.333c0.433-0.05,0.811-0.037,1.133,0.037c0.124,0.051,0.247,0.106,0.371,0.167
		c0.124,0.062,0.248,0.13,0.372,0.204c0.124,0.101,0.241,0.198,0.353,0.299c0.111,0.098,0.216,0.209,0.315,0.334
		c0.123,0.124,0.235,0.253,0.334,0.389c0.099,0.137,0.199,0.267,0.298,0.39c0.074,0.148,0.149,0.284,0.223,0.409
		c0.074,0.125,0.161,0.247,0.26,0.372l0.408,0.594l8.581,13.522v-2.453c0-0.792-0.007-1.603-0.019-2.434
		c-0.013-0.827-0.032-1.689-0.057-2.581c0-1.04,0.006-2.155,0.02-3.344c0.011-1.188,0.042-2.302,0.092-3.343
		c0-0.419,0.125-0.903,0.372-1.448c0.124-0.321,0.336-0.581,0.633-0.78c0.296-0.197,0.631-0.333,1.002-0.408
		c0.372-0.074,0.743-0.074,1.114,0c0.373,0.075,0.693,0.223,0.966,0.446c0.075,0.074,0.149,0.162,0.224,0.26
		c0.074,0.099,0.135,0.211,0.185,0.335c0.124,0.321,0.198,0.607,0.223,0.854c0.075,0.348,0.111,0.656,0.111,0.93
		c0,3.094,0.006,6.253,0.019,9.471c0.012,3.22,0.031,6.378,0.057,9.474c0,0.345,0.012,0.685,0.036,1.02
		C284.17,159.782,284.17,160.123,284.146,160.469z"/>
	<path fill="#FFFFFF" d="M292.986,141.451l-0.074,5.83h1.485c1.015-0.022,1.919-0.035,2.711-0.035c0.794,0,1.673,0.013,2.638,0.035
		h0.187c0.297,0,0.589,0.008,0.873,0.021s0.563,0.019,0.835,0.019c0.298,0.025,0.581,0.068,0.854,0.128
		c0.272,0.064,0.546,0.133,0.817,0.207c0.421,0.149,0.768,0.37,1.04,0.668c0.247,0.323,0.372,0.681,0.372,1.075
		c0,0.127,0,0.268,0,0.429s-0.025,0.304-0.075,0.426c-0.05,0.275-0.211,0.523-0.482,0.744c-0.124,0.174-0.36,0.298-0.705,0.372
		c-0.323,0.098-0.645,0.162-0.967,0.185c-0.347,0.076-0.693,0.111-1.04,0.111h-1.746l-6.871,0.037l-0.075,7.281l7.394,0.075h1.744
		c0.198,0,0.384,0,0.558,0c0.173,0,0.335,0.012,0.482,0.037c0.198,0.05,0.378,0.08,0.539,0.093s0.316,0.044,0.464,0.093
		c0.298,0.1,0.544,0.234,0.743,0.408c0.247,0.248,0.41,0.506,0.483,0.779c0.024,0.124,0.043,0.254,0.056,0.391
		c0.013,0.135,0.005,0.279-0.019,0.426c0,0.397-0.124,0.757-0.371,1.078c-0.297,0.347-0.646,0.57-1.04,0.67
		c-0.521,0.223-1.09,0.335-1.708,0.335c-0.273,0.022-0.558,0.037-0.855,0.037s-0.582,0.011-0.855,0.035h-0.221
		c-1.933,0.052-3.938,0.052-6.018,0c-0.497,0-0.892-0.004-1.189-0.019c-0.298-0.011-0.563-0.017-0.799-0.017
		c-0.236,0-0.478,0-0.725,0c-0.248,0-0.569,0-0.966,0c-0.569,0.048-1.041-0.052-1.411-0.3c-0.273-0.172-0.484-0.407-0.632-0.705
		c-0.074-0.072-0.11-0.149-0.11-0.222c-0.026-0.052-0.052-0.089-0.076-0.111c-0.025-0.025-0.048-0.064-0.073-0.112
		c-0.051-0.124-0.087-0.254-0.112-0.389c-0.025-0.139-0.037-0.269-0.037-0.393c-0.025-0.122-0.043-0.248-0.055-0.37
		c-0.014-0.124-0.033-0.248-0.057-0.37v-0.596c0-0.1,0.005-0.196,0.019-0.298c0.013-0.1,0.019-0.196,0.019-0.296v-2.899l0.075-5.348
		v-4.94c0-0.891,0.006-1.683,0.019-2.377c0.012-0.692,0.03-1.448,0.056-2.266v-0.186c0.024-0.272,0.042-0.525,0.056-0.761
		c0.012-0.236,0.019-0.477,0.019-0.725c0.025-0.495,0.161-0.978,0.407-1.448c0.099-0.198,0.205-0.372,0.316-0.52
		c0.112-0.15,0.266-0.273,0.465-0.374c0.37-0.222,0.755-0.333,1.149-0.333c0.199,0,0.348,0.013,0.447,0.038v-0.038
		c0.445,0,0.805,0,1.077,0s0.539,0,0.798,0c0.26,0,0.539-0.005,0.836-0.018c0.298-0.012,0.705-0.02,1.227-0.02
		c0.989-0.024,1.93-0.036,2.822-0.036c0.892,0,1.808,0.012,2.75,0.036h0.147c0.273,0.025,0.558,0.038,0.854,0.038
		c0.296,0,0.581,0.013,0.854,0.038c0.273,0,0.546,0.031,0.819,0.092c0.271,0.063,0.544,0.142,0.815,0.243
		c0.421,0.122,0.768,0.334,1.04,0.63c0.224,0.346,0.334,0.694,0.334,1.041c0,0.148,0,0.291,0,0.427s-0.024,0.265-0.073,0.389
		c-0.025,0.249-0.174,0.508-0.446,0.78c-0.099,0.05-0.204,0.112-0.315,0.187c-0.112,0.073-0.241,0.136-0.39,0.184
		c-0.149,0.05-0.305,0.081-0.465,0.094c-0.161,0.013-0.315,0.032-0.464,0.055c-0.199,0.051-0.378,0.075-0.538,0.075
		c-0.162,0-0.342,0-0.538,0h-1.674l-7.428,0.037V141.451z"/>
	<path fill="#FFFFFF" d="M328.571,139.037c0.148,1.188,0.234,2.569,0.259,4.142c0.025,1.572,0.007,3.157-0.055,4.754
		c-0.062,1.599-0.18,3.108-0.354,4.533c-0.173,1.425-0.384,2.568-0.631,3.435c-0.174,0.52-0.378,1.059-0.611,1.615
		c-0.237,0.559-0.49,1.059-0.763,1.506c-0.396,0.668-0.88,1.255-1.449,1.764c-0.57,0.507-1.194,0.94-1.876,1.301
		c-0.681,0.359-1.398,0.637-2.153,0.835c-0.755,0.199-1.506,0.309-2.248,0.335c-1.313,0.048-2.557-0.145-3.731-0.576
		c-1.178-0.433-2.262-1.121-3.252-2.063c-0.743-0.717-1.336-1.484-1.783-2.302c-0.444-0.818-0.793-1.679-1.04-2.58
		c-0.247-0.906-0.403-1.841-0.464-2.805c-0.063-0.966-0.094-1.956-0.094-2.974c0-0.472-0.006-1.059-0.018-1.764
		c-0.013-0.707-0.019-1.436-0.019-2.192c0-0.755,0-1.491,0-2.21c0-0.717,0.012-1.324,0.036-1.819c0-0.323,0-0.676,0-1.061
		c0-0.383,0.019-0.767,0.057-1.149c0.037-0.386,0.106-0.756,0.204-1.117c0.099-0.356,0.247-0.686,0.446-0.984
		c0.223-0.322,0.532-0.557,0.928-0.706c0.396-0.147,0.811-0.222,1.245-0.222c0.434,0,0.847,0.087,1.244,0.26
		c0.396,0.172,0.718,0.422,0.965,0.742c0.125,0.199,0.211,0.396,0.262,0.595c0.049,0.198,0.087,0.421,0.111,0.669
		c0.049,0.817,0.078,1.745,0.093,2.785c0.012,1.041,0.012,2.052,0,3.028c-0.015,0.979-0.032,1.875-0.057,2.692
		c-0.024,0.818-0.036,1.427-0.036,1.821c0,1.485,0.073,2.829,0.223,4.03c0.147,1.202,0.495,2.198,1.039,2.988
		c0.496,0.72,1.077,1.177,1.747,1.376c0.668,0.198,1.337,0.26,2.005,0.186c0.619-0.074,1.245-0.304,1.876-0.688
		c0.632-0.383,1.133-0.945,1.504-1.689c0.149-0.271,0.273-0.581,0.371-0.927c0.101-0.348,0.173-0.67,0.224-0.966
		c0.099-0.942,0.187-2.037,0.26-3.288c0.074-1.251,0.137-2.533,0.187-3.844c0.049-1.313,0.074-2.601,0.074-3.865
		c0-1.262-0.013-2.399-0.037-3.416c0.049-0.447,0.185-0.855,0.408-1.228c0.197-0.321,0.483-0.606,0.854-0.854
		c0.373-0.248,0.879-0.371,1.523-0.371c0.521,0.025,0.941,0.155,1.264,0.391c0.321,0.234,0.581,0.488,0.779,0.762
		C328.312,138.244,328.472,138.614,328.571,139.037z"/>
	<path fill="#FFFFFF" d="M352.864,160.469c-0.025,0.422-0.081,0.868-0.168,1.336c-0.087,0.472-0.328,0.856-0.724,1.154
		c-0.297,0.248-0.632,0.395-1.004,0.446c-0.371,0.048-0.735,0.031-1.096-0.056c-0.358-0.089-0.7-0.224-1.021-0.412
		c-0.321-0.184-0.582-0.411-0.779-0.687c-0.842-1.04-1.615-2.111-2.321-3.211c-0.706-1.103-1.419-2.211-2.137-3.325l-3.119-4.718
		c-0.422-0.668-0.868-1.418-1.339-2.248c-0.47-0.829-0.953-1.603-1.447-2.322l-0.112,14.19v0.333c0,0.397-0.068,0.788-0.204,1.173
		c-0.136,0.383-0.365,0.711-0.688,0.982c-0.247,0.198-0.569,0.335-0.966,0.411c-0.619,0.122-1.133,0.085-1.541-0.111
		c-0.409-0.198-0.73-0.472-0.966-0.819c-0.236-0.347-0.396-0.748-0.482-1.207c-0.088-0.457-0.106-0.91-0.057-1.354v-0.633
		l0.075-2.896l0.036-5.387c0.025-0.792,0.038-1.604,0.038-2.435c0-0.829,0-1.677,0-2.543c-0.025-1.066-0.019-2.193,0.019-3.382
		c0.037-1.188,0.079-2.302,0.129-3.343c0.05-0.57,0.187-1.052,0.409-1.448c0.099-0.347,0.359-0.644,0.78-0.892
		c0.271-0.173,0.624-0.283,1.06-0.333c0.433-0.05,0.81-0.037,1.131,0.037c0.125,0.051,0.248,0.106,0.372,0.167
		c0.125,0.062,0.248,0.13,0.372,0.204c0.124,0.101,0.242,0.198,0.354,0.299c0.11,0.098,0.216,0.209,0.315,0.334
		c0.123,0.124,0.234,0.253,0.334,0.389c0.098,0.137,0.198,0.267,0.296,0.39c0.075,0.148,0.149,0.284,0.224,0.409
		c0.074,0.125,0.161,0.247,0.261,0.372l0.408,0.594l8.58,13.522v-2.453c0-0.792-0.006-1.603-0.019-2.434
		c-0.013-0.827-0.031-1.689-0.055-2.581c0-1.04,0.005-2.155,0.019-3.344c0.012-1.188,0.042-2.302,0.093-3.343
		c0-0.419,0.123-0.903,0.37-1.448c0.126-0.321,0.335-0.581,0.633-0.78c0.297-0.197,0.631-0.333,1.002-0.408
		c0.373-0.074,0.743-0.074,1.116,0c0.37,0.075,0.691,0.223,0.965,0.446c0.074,0.074,0.148,0.162,0.223,0.26
		c0.074,0.099,0.136,0.211,0.186,0.335c0.124,0.321,0.198,0.607,0.224,0.854c0.073,0.348,0.111,0.656,0.111,0.93
		c0,3.094,0.004,6.253,0.019,9.471c0.012,3.22,0.03,6.378,0.055,9.474c0,0.345,0.013,0.685,0.038,1.02
		C352.889,159.782,352.889,160.123,352.864,160.469z"/>
	<path fill="#FFFFFF" d="M375.412,156.699c-0.076,0.757-0.224,1.486-0.447,2.189c-0.223,0.707-0.559,1.377-1.002,2.008
		c-0.446,0.631-1.054,1.184-1.82,1.652c-0.371,0.246-0.813,0.453-1.319,0.612c-0.508,0.163-1.04,0.3-1.597,0.409
		c-0.558,0.112-1.109,0.185-1.653,0.224c-0.545,0.037-1.053,0.043-1.523,0.019c-2.229-0.074-4.029-0.614-5.404-1.617
		c-1.374-1.001-2.427-2.246-3.157-3.732c-0.73-1.485-1.201-3.1-1.412-4.848c-0.21-1.745-0.253-3.41-0.13-4.996
		c0.075-0.938,0.241-1.954,0.502-3.046c0.26-1.088,0.644-2.14,1.152-3.156c0.506-1.015,1.138-1.932,1.894-2.749
		c0.755-0.817,1.652-1.435,2.693-1.856c0.966-0.396,2.024-0.65,3.176-0.762s2.29-0.068,3.418,0.13
		c1.127,0.2,2.178,0.557,3.157,1.077c0.978,0.52,1.752,1.214,2.32,2.08c0.397,0.645,0.706,1.425,0.93,2.341
		c0.224,0.916,0.259,1.794,0.111,2.637c-0.125,0.742-0.386,1.255-0.781,1.541c-0.396,0.285-0.828,0.396-1.3,0.335
		c-0.47-0.063-0.922-0.261-1.355-0.596s-0.724-0.761-0.872-1.28c-0.174-0.569-0.385-1.097-0.632-1.579
		c-0.248-0.483-0.633-0.885-1.151-1.207c-0.595-0.372-1.221-0.582-1.876-0.632c-0.656-0.048-1.288,0.025-1.896,0.224
		c-0.606,0.198-1.176,0.507-1.707,0.929c-0.534,0.422-0.973,0.905-1.319,1.448c-0.421,0.62-0.743,1.296-0.967,2.024
		c-0.222,0.731-0.384,1.486-0.481,2.267c-0.1,0.779-0.13,1.561-0.093,2.341c0.037,0.779,0.129,1.528,0.277,2.247
		c0.273,1.215,0.694,2.354,1.264,3.417c0.223,0.395,0.525,0.75,0.91,1.059c0.384,0.311,0.811,0.557,1.282,0.742
		c0.47,0.187,0.966,0.307,1.484,0.354c0.521,0.05,1.016,0.013,1.486-0.111c0.669-0.174,1.213-0.403,1.635-0.688
		c0.421-0.283,0.755-0.625,1.004-1.02c0.246-0.397,0.413-0.829,0.499-1.301c0.087-0.47,0.132-0.966,0.132-1.485v-0.039
		c-0.323,0-0.607-0.004-0.854-0.017c-0.248-0.015-0.435-0.019-0.558-0.019c-0.544,0-1.077-0.099-1.597-0.298
		c-0.446-0.148-0.781-0.385-1.004-0.705c-0.248-0.272-0.371-0.607-0.371-1.003c0-0.148,0.007-0.291,0.018-0.428
		c0.014-0.135,0.031-0.279,0.058-0.426c0.073-0.199,0.234-0.447,0.481-0.743c0.149-0.124,0.384-0.223,0.706-0.3
		c0.149-0.047,0.297-0.091,0.446-0.128c0.148-0.037,0.321-0.068,0.52-0.093c0.148-0.023,0.31-0.037,0.483-0.037
		c0.172,0,0.346,0,0.52,0h3.379c0.274-0.025,0.59,0.004,0.949,0.093c0.357,0.087,0.638,0.217,0.835,0.389
		c0.075,0.102,0.147,0.198,0.223,0.298s0.138,0.211,0.187,0.335c0.099,0.272,0.16,0.544,0.185,0.816
		c0.025,0.149,0.045,0.305,0.057,0.466c0.011,0.161,0.02,0.302,0.02,0.428v1.521C375.523,155.195,375.484,155.944,375.412,156.699z"
		/>
	<path fill="#FFFFFF" d="M392.867,141.451l-0.073,5.83h1.486c1.015-0.022,1.918-0.035,2.712-0.035c0.792,0,1.672,0.013,2.637,0.035
		h0.186c0.297,0,0.589,0.008,0.874,0.021c0.284,0.013,0.562,0.019,0.836,0.019c0.296,0.025,0.582,0.068,0.854,0.128
		c0.271,0.064,0.544,0.133,0.817,0.207c0.421,0.149,0.767,0.37,1.04,0.668c0.248,0.323,0.372,0.681,0.372,1.075
		c0,0.127,0,0.268,0,0.429s-0.025,0.304-0.075,0.426c-0.049,0.275-0.211,0.523-0.483,0.744c-0.124,0.174-0.358,0.298-0.705,0.372
		c-0.321,0.098-0.645,0.162-0.966,0.185c-0.349,0.076-0.693,0.111-1.04,0.111h-1.746l-6.871,0.037l-0.074,7.281l7.392,0.075h1.745
		c0.198,0,0.384,0,0.558,0s0.334,0.012,0.484,0.037c0.197,0.05,0.376,0.08,0.537,0.093s0.315,0.044,0.466,0.093
		c0.297,0.1,0.544,0.234,0.741,0.408c0.247,0.248,0.409,0.506,0.482,0.779c0.025,0.124,0.044,0.254,0.056,0.391
		c0.013,0.135,0.007,0.279-0.018,0.426c0,0.397-0.125,0.757-0.371,1.078c-0.298,0.347-0.645,0.57-1.041,0.67
		c-0.52,0.223-1.09,0.335-1.709,0.335c-0.272,0.022-0.557,0.037-0.854,0.037c-0.298,0-0.582,0.011-0.854,0.035h-0.224
		c-1.933,0.052-3.938,0.052-6.018,0c-0.495,0-0.892-0.004-1.188-0.019c-0.298-0.011-0.564-0.017-0.8-0.017c-0.233,0-0.477,0-0.724,0
		s-0.57,0-0.966,0c-0.569,0.048-1.039-0.052-1.412-0.3c-0.271-0.172-0.482-0.407-0.63-0.705c-0.076-0.072-0.112-0.149-0.112-0.222
		c-0.024-0.052-0.051-0.089-0.074-0.111c-0.024-0.025-0.051-0.064-0.075-0.112c-0.048-0.124-0.086-0.254-0.112-0.389
		c-0.023-0.139-0.035-0.269-0.035-0.393c-0.025-0.122-0.043-0.248-0.056-0.37c-0.014-0.124-0.033-0.248-0.056-0.37v-0.596
		c0-0.1,0.005-0.196,0.018-0.298c0.014-0.1,0.02-0.196,0.02-0.296v-2.899l0.074-5.348v-4.94c0-0.891,0.006-1.683,0.018-2.377
		c0.014-0.692,0.031-1.448,0.056-2.266v-0.186c0.026-0.272,0.044-0.525,0.057-0.761c0.012-0.236,0.018-0.477,0.018-0.725
		c0.024-0.495,0.162-0.978,0.409-1.448c0.1-0.198,0.205-0.372,0.315-0.52c0.111-0.15,0.266-0.273,0.464-0.374
		c0.374-0.222,0.757-0.333,1.153-0.333c0.196,0,0.347,0.013,0.444,0.038v-0.038c0.447,0,0.806,0,1.076,0c0.273,0,0.539,0,0.801,0
		c0.26,0,0.539-0.005,0.835-0.018c0.297-0.012,0.707-0.02,1.226-0.02c0.99-0.024,1.933-0.036,2.824-0.036
		c0.891,0,1.808,0.012,2.748,0.036h0.147c0.272,0.025,0.559,0.038,0.855,0.038c0.298,0,0.582,0.013,0.854,0.038
		c0.271,0,0.545,0.031,0.816,0.092c0.273,0.063,0.545,0.142,0.819,0.243c0.418,0.122,0.765,0.334,1.039,0.63
		c0.223,0.346,0.335,0.694,0.335,1.041c0,0.148,0,0.291,0,0.427s-0.026,0.265-0.075,0.389c-0.026,0.249-0.173,0.508-0.446,0.78
		c-0.099,0.05-0.204,0.112-0.315,0.187c-0.111,0.073-0.24,0.136-0.391,0.184c-0.146,0.05-0.304,0.081-0.464,0.094
		c-0.161,0.013-0.315,0.032-0.465,0.055c-0.197,0.051-0.376,0.075-0.538,0.075c-0.161,0-0.341,0-0.539,0h-1.672l-7.43,0.037V141.451
		z"/>
	<path fill="#F9F9F9" d="M436.7,152.484c0.124,0.345,0.217,0.736,0.279,1.168c0.061,0.435,0.092,0.873,0.092,1.319
		c0,0.447-0.031,0.886-0.092,1.319c-0.063,0.433-0.142,0.811-0.242,1.132c-0.396,1.39-1.188,2.545-2.377,3.474
		c-1.188,0.929-2.545,1.603-4.066,2.024c-1.524,0.42-3.096,0.571-4.719,0.447c-1.621-0.126-3.064-0.534-4.327-1.229
		c-0.793-0.444-1.475-0.99-2.043-1.634c-0.569-0.641-1.053-1.36-1.448-2.155c-0.149-0.271-0.241-0.585-0.279-0.944
		c-0.036-0.362-0.005-0.707,0.094-1.043c0.099-0.332,0.26-0.628,0.482-0.889s0.531-0.44,0.929-0.54
		c0.248-0.05,0.524-0.074,0.836-0.074c0.31,0,0.613,0.043,0.91,0.13s0.569,0.224,0.817,0.41c0.246,0.184,0.445,0.44,0.595,0.761
		c0.272,0.519,0.661,0.995,1.169,1.429c0.507,0.435,1.046,0.786,1.615,1.062c0.817,0.271,1.642,0.382,2.472,0.332
		c0.828-0.049,1.584-0.235,2.266-0.556c0.681-0.323,1.231-0.764,1.653-1.319c0.42-0.557,0.631-1.195,0.631-1.913
		c0-0.594-0.087-1.082-0.26-1.469c-0.174-0.382-0.415-0.705-0.724-0.965c-0.311-0.259-0.684-0.479-1.116-0.649
		c-0.433-0.174-0.908-0.321-1.43-0.447c-0.594-0.122-1.195-0.209-1.801-0.258c-0.607-0.052-1.221-0.112-1.84-0.187
		c-0.618-0.074-1.226-0.174-1.819-0.298c-0.595-0.122-1.176-0.311-1.746-0.559c-1.141-0.467-2.006-1.188-2.601-2.152
		c-0.594-0.966-0.948-2.008-1.058-3.12c-0.111-1.115,0.019-2.223,0.39-3.325c0.372-1.101,0.965-2.049,1.783-2.842
		c0.792-0.717,1.74-1.231,2.842-1.541c1.101-0.31,2.321-0.49,3.658-0.539c0.744-0.024,1.491,0,2.247,0.073
		c0.755,0.075,1.486,0.199,2.192,0.373c0.706,0.173,1.361,0.396,1.969,0.668c0.606,0.273,1.133,0.594,1.578,0.965
		c0.322,0.248,0.644,0.576,0.967,0.985c0.321,0.407,0.568,0.842,0.742,1.3c0.173,0.458,0.229,0.897,0.167,1.318
		c-0.063,0.421-0.329,0.78-0.8,1.078c-0.396,0.246-0.772,0.353-1.133,0.314c-0.358-0.038-0.698-0.147-1.021-0.333
		c-0.321-0.188-0.631-0.401-0.927-0.65c-0.298-0.249-0.571-0.47-0.817-0.669c-0.669-0.495-1.499-0.829-2.489-1.002
		c-0.991-0.172-1.921-0.21-2.786-0.111c-0.545,0.073-1.053,0.198-1.522,0.371c-0.471,0.173-0.873,0.409-1.208,0.706
		c-0.334,0.297-0.593,0.664-0.781,1.097c-0.184,0.432-0.253,0.921-0.203,1.466c0.023,0.397,0.143,0.729,0.354,1.002
		c0.208,0.275,0.47,0.497,0.778,0.671c0.311,0.173,0.65,0.308,1.021,0.407c0.371,0.099,0.744,0.174,1.115,0.223
		c1.114,0.149,2.228,0.261,3.343,0.335c1.114,0.073,2.204,0.321,3.27,0.743c1.09,0.422,2.016,0.99,2.785,1.708
		C435.834,150.603,436.379,151.467,436.7,152.484z"/>
	<path fill="#F9F9F9" d="M446.617,137.885c1.66-0.618,3.164-0.891,4.514-0.817c1.35,0.074,2.557,0.414,3.622,1.023
		c1.063,0.605,1.974,1.417,2.73,2.432c0.755,1.016,1.367,2.156,1.839,3.417c0.371,0.943,0.655,1.932,0.854,2.972
		c0.199,1.04,0.315,2.076,0.354,3.102c0.037,1.028,0,2.037-0.111,3.03c-0.111,0.988-0.292,1.904-0.54,2.746
		c-0.147,0.57-0.321,1.09-0.519,1.562c-0.199,0.469-0.434,0.938-0.705,1.412c-0.62,1.063-1.42,1.93-2.397,2.598
		s-2.05,1.139-3.213,1.412c-0.792,0.198-1.61,0.292-2.452,0.277c-0.841-0.011-1.671-0.122-2.488-0.333s-1.604-0.521-2.357-0.927
		c-0.756-0.411-1.444-0.925-2.063-1.545c-0.768-0.742-1.399-1.601-1.894-2.581c-0.497-0.978-0.88-2.006-1.152-3.083
		c-0.274-1.077-0.446-2.159-0.521-3.251c-0.074-1.088-0.074-2.128,0-3.118c0.074-0.916,0.255-1.896,0.539-2.936
		c0.283-1.039,0.7-2.044,1.245-3.008c0.543-0.966,1.205-1.84,1.987-2.618C444.668,138.869,445.578,138.281,446.617,137.885z
		 M455.309,153.783c0.298-1.165,0.422-2.474,0.374-3.938c-0.051-1.462-0.287-2.836-0.706-4.124c-0.274-0.792-0.612-1.49-1.022-2.098
		c-0.408-0.605-0.891-1.071-1.449-1.393c-0.557-0.32-1.207-0.482-1.948-0.482c-0.744,0-1.574,0.223-2.489,0.668
		c-0.546,0.271-1.011,0.643-1.395,1.114c-0.384,0.471-0.692,1.002-0.927,1.596c-0.236,0.595-0.422,1.213-0.559,1.858
		c-0.136,0.646-0.217,1.264-0.241,1.857c-0.049,0.643-0.061,1.319-0.037,2.024c0.023,0.707,0.105,1.412,0.242,2.117
		c0.135,0.707,0.327,1.373,0.574,2.006c0.249,0.633,0.581,1.195,1.003,1.689c0.646,0.743,1.395,1.258,2.248,1.543
		s1.702,0.327,2.545,0.128c1.361-0.295,2.401-1.199,3.119-2.711C454.938,155.096,455.162,154.478,455.309,153.783z"/>
	<path fill="#F9F9F9" d="M480.903,138.107c0.224,0.299,0.357,0.645,0.408,1.042c0,0.147-0.005,0.291-0.019,0.427
		c-0.013,0.136-0.032,0.266-0.056,0.391c-0.024,0.273-0.186,0.532-0.483,0.779c-0.173,0.125-0.396,0.248-0.668,0.371
		c-0.148,0.05-0.304,0.081-0.464,0.094c-0.162,0.013-0.34,0.031-0.538,0.056c-0.149,0.05-0.311,0.074-0.483,0.074
		c-0.175,0-0.348,0-0.521,0h-1.672l-7.764,0.038v0.112l-0.036,6.055c0.198,0,0.414,0,0.65,0c0.234,0,0.526-0.015,0.872-0.039
		c0.991,0,1.876,0,2.655,0c0.781,0,1.642,0.014,2.581,0.039h0.224c0.271,0,0.552,0.006,0.836,0.017
		c0.285,0.015,0.576,0.021,0.873,0.021c0.272,0.024,0.545,0.056,0.818,0.091c0.272,0.037,0.544,0.105,0.816,0.205
		c0.446,0.148,0.767,0.385,0.966,0.705c0.272,0.324,0.407,0.657,0.407,1.005c0,0.146,0,0.29,0,0.426
		c0,0.137-0.024,0.279-0.073,0.429c-0.025,0.198-0.186,0.444-0.482,0.742c-0.198,0.172-0.435,0.283-0.706,0.335
		c-0.125,0.05-0.267,0.091-0.428,0.128s-0.327,0.068-0.5,0.096c-0.174,0.022-0.342,0.043-0.503,0.054
		c-0.161,0.012-0.34,0.019-0.539,0.019h-1.709l-6.832,0.039l-0.112,8.615v0.298c0,0.124-0.007,0.242-0.02,0.354
		c-0.014,0.111-0.031,0.228-0.056,0.352c-0.05,0.124-0.092,0.254-0.129,0.391c-0.038,0.137-0.082,0.265-0.131,0.389
		c-0.174,0.348-0.335,0.583-0.482,0.708c-0.274,0.198-0.607,0.335-1.003,0.409c-0.668,0.148-1.301,0.072-1.896-0.224
		c-0.123-0.074-0.241-0.167-0.353-0.279c-0.109-0.111-0.204-0.254-0.278-0.426c-0.05-0.102-0.074-0.174-0.074-0.224l-0.109-0.223
		c-0.077-0.124-0.126-0.255-0.151-0.392c-0.024-0.136-0.049-0.265-0.072-0.391c0-0.122-0.008-0.246-0.02-0.37
		c-0.014-0.124-0.031-0.248-0.055-0.372c-0.025-0.196-0.025-0.396,0-0.594v-0.594l0.036-2.896l0.038-5.351
		c0.023-0.792,0.035-1.596,0.035-2.415c0-0.814,0-1.658,0-2.525c-0.024-0.891-0.031-1.684-0.018-2.377
		c0.013-0.692,0.043-1.448,0.094-2.265v-0.186c0.022-0.273,0.035-0.527,0.035-0.761c0-0.235,0.026-0.478,0.077-0.725
		c0.047-0.545,0.171-1.027,0.37-1.449c0.172-0.422,0.419-0.718,0.742-0.89c0.372-0.224,0.767-0.335,1.188-0.335
		c0.199,0,0.359,0.013,0.484,0.037v-0.037c0.445,0,0.805,0,1.076,0c0.273,0,0.533,0,0.782,0c0.247,0,0.519-0.005,0.815-0.02
		c0.297-0.011,0.693-0.018,1.188-0.018c1.981-0.024,3.937-0.024,5.869,0h0.187c0.271,0.025,0.551,0.038,0.835,0.038
		c0.286,0,0.577,0.013,0.874,0.037c0.271,0,0.544,0.032,0.816,0.094c0.273,0.062,0.546,0.144,0.817,0.241
		C480.358,137.601,480.681,137.812,480.903,138.107z"/>
	<path fill="#F9F9F9" d="M504.267,138.145c0.273,0.322,0.409,0.657,0.409,1.003c0,0.147-0.006,0.304-0.019,0.464
		c-0.013,0.16-0.032,0.302-0.056,0.427c-0.074,0.272-0.237,0.533-0.483,0.78c-0.198,0.147-0.47,0.259-0.816,0.334
		c-0.174,0.05-0.348,0.086-0.521,0.111c-0.173,0.025-0.358,0.062-0.556,0.111c-0.174,0.025-0.348,0.037-0.521,0.037
		c-0.174,0-0.358,0-0.558,0h-1.895c-0.445,0.025-0.886,0.038-1.317,0.038c-0.435,0-0.861,0-1.283,0
		c0.025,0.767,0.038,1.592,0.038,2.469c0,0.881-0.006,1.901-0.019,3.065c-0.012,1.164-0.025,2.515-0.037,4.049
		c-0.013,1.535-0.018,3.317-0.018,5.351v2.822c0,0.246,0.012,0.435,0.035,0.557c0,0.102,0,0.192,0,0.279s-0.012,0.192-0.035,0.314
		c-0.051,0.223-0.088,0.483-0.112,0.781c0,0.122-0.014,0.24-0.038,0.352s-0.061,0.229-0.111,0.354
		c-0.099,0.1-0.148,0.174-0.148,0.224l-0.111,0.224c-0.124,0.246-0.357,0.481-0.706,0.703c-0.543,0.274-1.151,0.335-1.819,0.188
		c-0.422-0.052-0.743-0.163-0.967-0.335c-0.222-0.224-0.384-0.446-0.482-0.668c-0.147-0.272-0.235-0.533-0.259-0.781
		c-0.074-0.224-0.112-0.457-0.112-0.705V141.6c-0.148,0-0.459,0-0.928,0c-0.472,0-0.973-0.006-1.506-0.019
		c-0.532-0.012-1.033-0.03-1.504-0.055c-0.47-0.025-0.792-0.051-0.965-0.074c-0.149-0.024-0.379-0.062-0.688-0.112
		c-0.312-0.049-0.564-0.099-0.762-0.149c-0.52-0.147-0.928-0.382-1.226-0.706c-0.274-0.322-0.409-0.682-0.409-1.078
		c0-0.147,0-0.295,0-0.445c0-0.149,0.023-0.285,0.074-0.409c0.074-0.297,0.271-0.544,0.595-0.742
		c0.099-0.076,0.253-0.167,0.464-0.279s0.415-0.193,0.613-0.241c0.297-0.099,0.67-0.173,1.114-0.224
		c0.197-0.024,0.396-0.038,0.594-0.038c0.198,0,0.409,0,0.633,0c0.866,0,1.689,0,2.469,0c0.78,0,1.604-0.011,2.472-0.036
		c1.436-0.025,2.865-0.031,4.29-0.019c1.423,0.014,2.84,0.044,4.253,0.093c0.321,0.025,0.632,0.063,0.929,0.112
		c0.298,0.05,0.596,0.137,0.891,0.261c0.223,0.072,0.434,0.166,0.631,0.277C503.982,137.83,504.143,137.972,504.267,138.145z"/>
</g>
</svg>
