<?xml version="1.0" encoding="utf-8"?>
<!-- Generator: Adobe Illustrator 16.0.0, SVG Export Plug-In . SVG Version: 6.00 Build 0)  -->
<!DOCTYPE svg PUBLIC "-//W3C//DTD SVG 1.1//EN" "http://www.w3.org/Graphics/SVG/1.1/DTD/svg11.dtd">
<svg version="1.1" id="Layer_1" xmlns="http://www.w3.org/2000/svg" xmlns:xlink="http://www.w3.org/1999/xlink" x="0px" y="0px"
	 width="573px" height="292.627px" viewBox="0 0 573 292.627" enable-background="new 0 0 573 292.627" xml:space="preserve">
<path fill="#2B2C42" d="M144.627,86.161c6.908,2.17,12.568,6.57,12.83,14.3c0,0.017-0.002,0.034-0.002,0.051
	c0.689-0.024,1.371-0.038,2.028-0.033c11.678,0.086,23.263,1.463,34.884,2.444c-0.307-0.675-0.51-1.392-0.592-2.13
	c-2.547,0.566-5.088,0.668-7.421,0.181c-6.685-1.399-8.637-7.861-6.299-13.428c-2.292-4.901,0.051-11.485,4.293-15.534
	c-0.557-1.827-0.474-3.844,0.403-5.46c-4.719-1.841-9.85-2.86-15.224-2.86c-15.808,0-29.55,8.738-36.735,21.633
	C136.553,84.673,140.556,84.881,144.627,86.161z"/>
<path fill="#2B2C42" d="M243.814,182.469c-0.128-0.153-0.214-0.337-0.32-0.507c-0.104-0.117-0.185-0.252-0.273-0.379
	c-0.02-0.02-0.034-0.04-0.051-0.059c-0.073-0.066-0.13-0.146-0.197-0.216c-0.086-0.061-0.141-0.146-0.217-0.216
	c-0.158-0.116-0.296-0.248-0.42-0.396c-1.016-0.524-2.465-2.166-3.839-3.958c-0.497-0.508-1.001-1.016-1.543-1.505
	c-1.429-1.289-2.9-2.726-3.896-4.39c-0.201-0.219-0.373-0.455-0.528-0.705c-0.637-0.593-1.252-1.219-1.823-1.904
	c-1.568-1.878-3.619-3.373-4.822-5.464c-1.371-1.571-2.702-3.19-4.058-4.781c-3.681-4.321-7.417-9.072-10.664-13.88
	c-0.161-0.158-0.321-0.317-0.468-0.487c-0.203-0.234-0.383-0.462-0.556-0.688c-0.306-0.255-0.561-0.554-0.788-0.873
	c-0.205-0.14-0.39-0.3-0.566-0.468c-7.433-4.046-13.96-2.231-13.96-2.231h-0.003c4.584-3.454,8.406-7.84,11.252-12.856
	c-1.109,0.002-2.219,0.005-3.329,0.006c-5.483,0.007-7.736-4.996-6.76-9.113c-9.288-0.974-28.891-3.125-38.048-2.953
	c1.5,3.609,0.519,8.674-4.181,10.544c-5.594,2.226-12.33,4.984-18.637,4.911c2.536,3.612,5.607,6.82,9.131,9.473h-0.004
	l-37.994,0.139c0,0-20.31,0.09-19.858,14.984c0.452,14.894,23.981,12.156,23.981,12.156c-0.022,0.035-0.035,0.07-0.057,0.105
	c0.061-0.004,0.114-0.019,0.176-0.019c6.635-0.056,13.261-0.312,19.889-0.36c0.375-0.06,0.762-0.037,1.134,0.099
	c0.604,0.22,0.859,0.379,1.355,0.781c0.359,0.29,0.571,0.68,0.685,1.103c0.21,0.352,0.312,0.752,0.363,1.162
	c0.051,0.224,0.084,0.449,0.084,0.68c0.006,0,0.02-0.001,0.02-0.001l-0.242,48.141c-16.126,3.131-12.395,21.544-12.395,21.544h41.4
	v-25.997c0-2.527,1.323-5.896,8.787-5.896c7.461,0,7.339,5.295,7.339,5.295v25.756l39.838,0.843c0,0,1.805-5.777-0.722-12.396
	c-2.527-6.62-10.11-8.665-10.11-8.665l0.24-37.61c3.25,4.874,20.761,10.831,20.761,10.831
	C244.91,197.276,245.438,186.687,243.814,182.469z"/>
<ellipse fill="#FFFFFF" cx="169.39" cy="105.574" rx="36.537" ry="35.693"/>
<g>
	<path fill="#2B2C42" d="M285.109,176.715c-0.025,0.426-0.082,0.877-0.169,1.353c-0.088,0.476-0.332,0.864-0.732,1.163
		c-0.3,0.252-0.638,0.401-1.014,0.452c-0.375,0.051-0.745,0.03-1.108-0.057c-0.363-0.088-0.707-0.226-1.032-0.413
		c-0.326-0.188-0.588-0.419-0.789-0.695c-0.851-1.051-1.633-2.133-2.347-3.247c-0.714-1.114-1.434-2.234-2.159-3.36l-3.154-4.769
		c-0.426-0.678-0.876-1.434-1.352-2.272c-0.475-0.839-0.964-1.621-1.464-2.347l-0.113,14.344v0.338c0,0.399-0.069,0.794-0.207,1.184
		c-0.138,0.387-0.37,0.719-0.695,0.994c-0.25,0.2-0.576,0.337-0.976,0.413c-0.626,0.124-1.146,0.088-1.559-0.112
		c-0.413-0.2-0.739-0.478-0.977-0.827c-0.238-0.35-0.4-0.756-0.488-1.22c-0.088-0.464-0.106-0.921-0.057-1.369v-0.641l0.076-2.928
		l0.037-5.444c0.025-0.801,0.038-1.622,0.038-2.46c0-0.839,0-1.695,0-2.572c-0.025-1.076-0.019-2.216,0.019-3.417
		c0.037-1.202,0.081-2.329,0.131-3.38c0.05-0.575,0.188-1.064,0.414-1.465c0.099-0.35,0.362-0.649,0.789-0.9
		c0.275-0.175,0.632-0.287,1.07-0.338c0.437-0.051,0.819-0.037,1.145,0.036c0.125,0.051,0.25,0.107,0.375,0.17
		c0.125,0.063,0.25,0.132,0.375,0.207c0.125,0.1,0.244,0.2,0.357,0.301c0.112,0.1,0.219,0.213,0.319,0.338
		c0.125,0.124,0.238,0.257,0.338,0.394c0.1,0.139,0.2,0.27,0.3,0.394c0.075,0.151,0.15,0.289,0.226,0.415
		c0.075,0.124,0.162,0.249,0.263,0.375l0.413,0.601l8.674,13.668v-2.478c0-0.802-0.007-1.622-0.019-2.46
		c-0.013-0.838-0.032-1.71-0.056-2.609c0-1.052,0.005-2.179,0.019-3.381c0.012-1.2,0.043-2.328,0.094-3.379
		c0-0.425,0.125-0.913,0.375-1.466c0.125-0.324,0.338-0.587,0.639-0.787c0.301-0.2,0.639-0.338,1.014-0.413
		c0.376-0.074,0.751-0.074,1.127,0c0.375,0.075,0.7,0.225,0.976,0.45c0.076,0.076,0.15,0.163,0.226,0.263
		c0.075,0.102,0.137,0.214,0.188,0.338c0.125,0.326,0.2,0.615,0.225,0.863c0.075,0.353,0.113,0.664,0.113,0.939
		c0,3.13,0.005,6.321,0.019,9.576c0.012,3.254,0.031,6.445,0.056,9.574c0,0.351,0.012,0.695,0.038,1.032
		C285.134,176.021,285.134,176.365,285.109,176.715z"/>
	<path fill="#2B2C42" d="M294.045,157.491l-0.076,5.895h1.504c1.025-0.024,1.939-0.038,2.74-0.038c0.802,0,1.691,0.014,2.667,0.038
		h0.187c0.302,0,0.595,0.007,0.883,0.018c0.288,0.015,0.569,0.021,0.846,0.021c0.3,0.025,0.587,0.068,0.863,0.131
		c0.275,0.063,0.551,0.131,0.827,0.207c0.424,0.149,0.775,0.375,1.051,0.675c0.249,0.327,0.375,0.689,0.375,1.09
		c0,0.125,0,0.27,0,0.432s-0.025,0.306-0.075,0.432c-0.051,0.274-0.213,0.525-0.487,0.752c-0.127,0.175-0.364,0.299-0.714,0.375
		c-0.326,0.1-0.651,0.163-0.977,0.188c-0.351,0.074-0.702,0.112-1.052,0.112h-1.765l-6.946,0.038l-0.076,7.359l7.473,0.075h1.766
		c0.2,0,0.387,0,0.563,0c0.175,0,0.338,0.013,0.488,0.038c0.2,0.051,0.382,0.082,0.545,0.093c0.162,0.015,0.319,0.045,0.47,0.095
		c0.3,0.101,0.55,0.238,0.75,0.413c0.251,0.251,0.414,0.512,0.488,0.787c0.025,0.127,0.045,0.257,0.056,0.395
		c0.015,0.139,0.006,0.282-0.019,0.432c0,0.4-0.125,0.765-0.375,1.089c-0.3,0.352-0.651,0.575-1.051,0.677
		c-0.525,0.227-1.103,0.339-1.728,0.339c-0.274,0.024-0.563,0.037-0.864,0.037c-0.299,0-0.588,0.013-0.863,0.036h-0.226
		c-1.952,0.051-3.98,0.051-6.082,0c-0.502,0-0.902-0.006-1.201-0.017c-0.302-0.015-0.569-0.02-0.809-0.02c-0.238,0-0.481,0-0.731,0
		c-0.251,0-0.577,0-0.977,0c-0.576,0.051-1.052-0.051-1.427-0.301c-0.276-0.177-0.489-0.413-0.639-0.714
		c-0.075-0.074-0.112-0.15-0.112-0.224c-0.025-0.051-0.051-0.089-0.076-0.113c-0.025-0.025-0.05-0.063-0.075-0.112
		c-0.051-0.127-0.088-0.257-0.113-0.396c-0.025-0.138-0.038-0.27-0.038-0.395c-0.025-0.124-0.044-0.25-0.056-0.375
		c-0.013-0.124-0.032-0.251-0.057-0.376v-0.601c0-0.099,0.006-0.2,0.019-0.3c0.012-0.101,0.019-0.199,0.019-0.301v-2.928
		l0.075-5.407v-4.996c0-0.899,0.006-1.701,0.019-2.403c0.013-0.699,0.031-1.464,0.057-2.29v-0.187
		c0.024-0.276,0.043-0.533,0.056-0.77c0.013-0.239,0.019-0.482,0.019-0.734c0.025-0.499,0.162-0.986,0.413-1.464
		c0.1-0.2,0.207-0.375,0.319-0.524c0.113-0.15,0.269-0.276,0.469-0.376c0.376-0.225,0.764-0.338,1.164-0.338
		c0.2,0,0.35,0.013,0.451,0.037v-0.037c0.45,0,0.813,0,1.089,0c0.275,0,0.545,0,0.807,0c0.263,0,0.545-0.005,0.845-0.02
		c0.301-0.011,0.714-0.019,1.24-0.019c1.001-0.023,1.952-0.038,2.853-0.038c0.901,0,1.827,0.015,2.78,0.038h0.149
		c0.275,0.025,0.563,0.038,0.863,0.038s0.588,0.013,0.863,0.037c0.276,0,0.552,0.031,0.826,0.095
		c0.276,0.063,0.55,0.144,0.827,0.244c0.426,0.125,0.775,0.338,1.052,0.637c0.224,0.352,0.337,0.703,0.337,1.053
		c0,0.149,0,0.295,0,0.432c0,0.138-0.025,0.27-0.074,0.395c-0.025,0.251-0.176,0.514-0.452,0.788c-0.1,0.05-0.206,0.111-0.318,0.188
		c-0.113,0.075-0.244,0.139-0.395,0.188c-0.149,0.051-0.307,0.081-0.469,0.094c-0.163,0.012-0.318,0.031-0.47,0.057
		c-0.201,0.051-0.382,0.075-0.544,0.075c-0.164,0-0.346,0-0.545,0h-1.69l-7.51,0.038V157.491z"/>
	<path fill="#2B2C42" d="M330.019,155.049c0.149,1.201,0.237,2.598,0.263,4.188c0.025,1.588,0.005,3.19-0.057,4.806
		c-0.063,1.614-0.182,3.142-0.357,4.582c-0.175,1.438-0.388,2.597-0.639,3.473c-0.175,0.524-0.381,1.07-0.617,1.633
		c-0.24,0.564-0.497,1.07-0.771,1.521c-0.4,0.677-0.89,1.271-1.465,1.784c-0.577,0.512-1.209,0.952-1.897,1.314
		s-1.413,0.645-2.178,0.845c-0.763,0.2-1.521,0.313-2.271,0.339c-1.328,0.049-2.585-0.146-3.774-0.583
		c-1.19-0.438-2.284-1.133-3.286-2.084c-0.75-0.727-1.351-1.503-1.802-2.329c-0.45-0.825-0.802-1.695-1.051-2.609
		c-0.25-0.914-0.408-1.858-0.47-2.835c-0.063-0.976-0.094-1.977-0.094-3.004c0-0.476-0.007-1.069-0.02-1.782
		c-0.013-0.714-0.019-1.453-0.019-2.218c0-0.762,0-1.506,0-2.233c0-0.726,0.013-1.337,0.038-1.84c0-0.324,0-0.683,0-1.07
		s0.019-0.774,0.057-1.163c0.037-0.388,0.105-0.765,0.206-1.127c0.099-0.362,0.25-0.695,0.451-0.994
		c0.225-0.326,0.537-0.564,0.938-0.714c0.401-0.149,0.82-0.226,1.259-0.226s0.855,0.087,1.258,0.262
		c0.399,0.177,0.727,0.427,0.976,0.752c0.126,0.2,0.213,0.4,0.264,0.601c0.05,0.2,0.088,0.427,0.113,0.676
		c0.048,0.826,0.079,1.766,0.093,2.816c0.012,1.051,0.012,2.072,0,3.06c-0.014,0.99-0.03,1.896-0.056,2.724
		c-0.025,0.825-0.037,1.439-0.037,1.84c0,1.501,0.073,2.86,0.225,4.073c0.15,1.216,0.5,2.223,1.051,3.024
		c0.502,0.725,1.088,1.188,1.766,1.388c0.676,0.201,1.351,0.264,2.028,0.188c0.624-0.076,1.258-0.307,1.896-0.695
		c0.637-0.388,1.145-0.957,1.52-1.708c0.151-0.276,0.277-0.588,0.376-0.938c0.102-0.351,0.175-0.676,0.226-0.977
		c0.1-0.95,0.188-2.059,0.262-3.322c0.076-1.264,0.139-2.561,0.189-3.888c0.049-1.325,0.074-2.629,0.074-3.905
		s-0.013-2.427-0.038-3.454c0.051-0.451,0.189-0.863,0.415-1.239c0.199-0.324,0.488-0.613,0.863-0.863s0.889-0.377,1.539-0.377
		c0.525,0.025,0.951,0.158,1.276,0.396c0.325,0.238,0.589,0.495,0.789,0.77C329.756,154.249,329.917,154.624,330.019,155.049z"/>
	<path fill="#2B2C42" d="M354.576,176.715c-0.025,0.426-0.082,0.877-0.169,1.353c-0.089,0.476-0.333,0.864-0.733,1.163
		c-0.299,0.252-0.638,0.401-1.013,0.452s-0.745,0.03-1.108-0.057c-0.364-0.088-0.708-0.226-1.033-0.413s-0.588-0.419-0.788-0.695
		c-0.851-1.051-1.633-2.133-2.347-3.247s-1.435-2.234-2.159-3.36l-3.154-4.769c-0.426-0.678-0.877-1.434-1.353-2.272
		c-0.475-0.839-0.963-1.621-1.464-2.347l-0.112,14.344v0.338c0,0.399-0.069,0.794-0.207,1.184c-0.138,0.387-0.37,0.719-0.694,0.994
		c-0.251,0.2-0.575,0.337-0.976,0.413c-0.627,0.124-1.146,0.088-1.559-0.112c-0.414-0.2-0.739-0.478-0.978-0.827
		c-0.237-0.35-0.4-0.756-0.488-1.22c-0.087-0.464-0.105-0.921-0.057-1.369v-0.641l0.076-2.928l0.037-5.444
		c0.025-0.801,0.038-1.622,0.038-2.46c0-0.839,0-1.695,0-2.572c-0.025-1.076-0.019-2.216,0.019-3.417
		c0.038-1.202,0.081-2.329,0.132-3.38c0.05-0.575,0.187-1.064,0.412-1.465c0.101-0.35,0.364-0.649,0.79-0.9
		c0.273-0.175,0.632-0.287,1.069-0.338c0.437-0.051,0.82-0.037,1.145,0.036c0.126,0.051,0.251,0.107,0.375,0.17
		c0.126,0.063,0.252,0.132,0.377,0.207c0.126,0.1,0.244,0.2,0.357,0.301c0.112,0.1,0.218,0.213,0.318,0.338
		c0.124,0.124,0.236,0.257,0.338,0.394c0.1,0.139,0.201,0.27,0.3,0.394c0.076,0.151,0.15,0.289,0.226,0.415
		c0.076,0.124,0.163,0.249,0.264,0.375l0.413,0.601l8.674,13.668v-2.478c0-0.802-0.007-1.622-0.02-2.46
		c-0.012-0.838-0.031-1.71-0.057-2.609c0-1.052,0.006-2.179,0.02-3.381c0.012-1.2,0.043-2.328,0.094-3.379
		c0-0.425,0.125-0.913,0.375-1.466c0.127-0.324,0.338-0.587,0.64-0.787c0.3-0.2,0.638-0.338,1.013-0.413
		c0.376-0.074,0.751-0.074,1.127,0c0.375,0.075,0.701,0.225,0.977,0.45c0.074,0.076,0.15,0.163,0.226,0.263
		c0.074,0.102,0.137,0.214,0.188,0.338c0.124,0.326,0.2,0.615,0.226,0.863c0.075,0.353,0.112,0.664,0.112,0.939
		c0,3.13,0.006,6.321,0.019,9.576c0.013,3.254,0.031,6.445,0.057,9.574c0,0.351,0.013,0.695,0.038,1.032
		C354.601,176.021,354.601,176.365,354.576,176.715z"/>
	<path fill="#2B2C42" d="M377.368,172.904c-0.076,0.764-0.226,1.503-0.451,2.216s-0.564,1.389-1.013,2.027
		c-0.451,0.64-1.065,1.195-1.84,1.672c-0.376,0.249-0.82,0.457-1.334,0.619s-1.052,0.3-1.613,0.413
		c-0.564,0.113-1.123,0.188-1.673,0.226c-0.55,0.037-1.063,0.042-1.539,0.019c-2.252-0.075-4.074-0.619-5.464-1.634
		c-1.389-1.014-2.452-2.271-3.191-3.773s-1.214-3.136-1.427-4.901c-0.212-1.763-0.257-3.447-0.132-5.049
		c0.075-0.951,0.244-1.978,0.507-3.081c0.264-1.1,0.651-2.163,1.165-3.189c0.513-1.027,1.15-1.954,1.915-2.779
		c0.763-0.826,1.67-1.452,2.722-1.878c0.977-0.4,2.047-0.657,3.21-0.771c1.165-0.112,2.316-0.067,3.456,0.133
		s2.203,0.563,3.191,1.089c0.988,0.524,1.771,1.227,2.346,2.102c0.4,0.651,0.714,1.441,0.939,2.366
		c0.226,0.926,0.262,1.815,0.112,2.666c-0.127,0.75-0.389,1.271-0.79,1.559c-0.4,0.289-0.837,0.4-1.314,0.337
		c-0.474-0.063-0.931-0.263-1.367-0.601c-0.439-0.338-0.733-0.77-0.884-1.295c-0.175-0.575-0.389-1.108-0.637-1.597
		c-0.251-0.488-0.641-0.895-1.165-1.219c-0.602-0.377-1.232-0.59-1.896-0.641c-0.665-0.048-1.304,0.025-1.916,0.226
		c-0.614,0.202-1.19,0.514-1.728,0.939c-0.538,0.427-0.982,0.914-1.333,1.464c-0.426,0.627-0.75,1.31-0.976,2.048
		s-0.39,1.501-0.488,2.291c-0.102,0.787-0.132,1.577-0.094,2.365s0.131,1.546,0.28,2.272c0.276,1.227,0.702,2.377,1.277,3.453
		c0.226,0.401,0.53,0.758,0.92,1.071c0.388,0.313,0.819,0.563,1.295,0.75c0.477,0.188,0.978,0.308,1.503,0.356
		c0.525,0.051,1.025,0.013,1.501-0.111c0.677-0.175,1.228-0.407,1.653-0.696c0.426-0.286,0.763-0.632,1.014-1.032
		c0.25-0.399,0.419-0.838,0.507-1.314c0.087-0.475,0.132-0.977,0.132-1.501v-0.038c-0.327,0-0.614-0.006-0.864-0.019
		s-0.438-0.02-0.563-0.02c-0.552,0-1.089-0.099-1.615-0.299c-0.45-0.151-0.788-0.39-1.014-0.714
		c-0.251-0.276-0.375-0.613-0.375-1.014c0-0.151,0.005-0.295,0.018-0.434c0.013-0.135,0.031-0.28,0.057-0.432
		c0.075-0.2,0.238-0.449,0.488-0.75c0.15-0.124,0.388-0.226,0.714-0.301c0.15-0.049,0.3-0.094,0.449-0.131
		c0.151-0.038,0.326-0.069,0.526-0.093c0.151-0.025,0.313-0.04,0.489-0.04c0.175,0,0.35,0,0.524,0h3.416
		c0.276-0.023,0.596,0.007,0.959,0.095c0.361,0.089,0.644,0.22,0.844,0.395c0.076,0.101,0.149,0.2,0.226,0.301
		s0.139,0.213,0.189,0.339c0.099,0.274,0.16,0.55,0.186,0.824c0.025,0.151,0.046,0.307,0.057,0.47
		c0.012,0.164,0.02,0.308,0.02,0.432v1.54C377.48,171.384,377.441,172.141,377.368,172.904z"/>
	<path fill="#6D599C" d="M395.015,157.491l-0.073,5.895h1.501c1.026-0.024,1.94-0.038,2.741-0.038s1.689,0.014,2.666,0.038h0.188
		c0.299,0,0.596,0.007,0.883,0.018c0.288,0.015,0.567,0.021,0.844,0.021c0.302,0.025,0.59,0.068,0.863,0.131
		c0.276,0.063,0.55,0.131,0.826,0.207c0.426,0.149,0.776,0.375,1.053,0.675c0.251,0.327,0.375,0.689,0.375,1.09
		c0,0.125,0,0.27,0,0.432s-0.025,0.306-0.076,0.432c-0.048,0.274-0.212,0.525-0.488,0.752c-0.124,0.175-0.361,0.299-0.714,0.375
		c-0.324,0.1-0.648,0.163-0.976,0.188c-0.35,0.074-0.699,0.112-1.05,0.112h-1.766l-6.947,0.038l-0.073,7.359l7.472,0.075h1.764
		c0.2,0,0.389,0,0.563,0s0.339,0.013,0.488,0.038c0.2,0.051,0.381,0.082,0.544,0.093c0.164,0.015,0.319,0.045,0.472,0.095
		c0.299,0.101,0.55,0.238,0.75,0.413c0.248,0.251,0.412,0.512,0.488,0.787c0.025,0.127,0.042,0.257,0.057,0.395
		c0.011,0.139,0.005,0.282-0.021,0.432c0,0.4-0.124,0.765-0.375,1.089c-0.299,0.352-0.651,0.575-1.052,0.677
		c-0.524,0.227-1.101,0.339-1.727,0.339c-0.276,0.024-0.564,0.037-0.863,0.037c-0.302,0-0.589,0.013-0.863,0.036h-0.226
		c-1.954,0.051-3.979,0.051-6.084,0c-0.499,0-0.9-0.006-1.202-0.017c-0.299-0.015-0.569-0.02-0.807-0.02c-0.236,0-0.482,0-0.733,0
		c-0.248,0-0.575,0-0.976,0c-0.575,0.051-1.05-0.051-1.428-0.301c-0.273-0.177-0.487-0.413-0.637-0.714
		c-0.076-0.074-0.113-0.15-0.113-0.224c-0.025-0.051-0.051-0.089-0.073-0.113c-0.025-0.025-0.051-0.063-0.076-0.112
		c-0.051-0.127-0.088-0.257-0.113-0.396c-0.025-0.138-0.036-0.27-0.036-0.395c-0.025-0.124-0.045-0.25-0.057-0.375
		c-0.014-0.124-0.034-0.251-0.057-0.376v-0.601c0-0.099,0.006-0.2,0.018-0.3c0.014-0.101,0.02-0.199,0.02-0.301v-2.928l0.076-5.407
		v-4.996c0-0.899,0.006-1.701,0.017-2.403c0.015-0.699,0.031-1.464,0.057-2.29v-0.187c0.025-0.276,0.045-0.533,0.057-0.77
		c0.014-0.239,0.02-0.482,0.02-0.734c0.025-0.499,0.164-0.986,0.412-1.464c0.102-0.2,0.208-0.375,0.318-0.524
		c0.113-0.15,0.271-0.276,0.471-0.376c0.376-0.225,0.765-0.338,1.165-0.338c0.198,0,0.351,0.013,0.449,0.037v-0.037
		c0.451,0,0.814,0,1.089,0c0.276,0,0.544,0,0.81,0c0.262,0,0.544-0.005,0.843-0.02c0.302-0.011,0.714-0.019,1.238-0.019
		c1.002-0.023,1.955-0.038,2.854-0.038c0.903,0,1.828,0.015,2.778,0.038h0.15c0.276,0.025,0.563,0.038,0.865,0.038
		c0.3,0,0.587,0.013,0.863,0.037c0.273,0,0.551,0.031,0.827,0.095c0.273,0.063,0.55,0.144,0.826,0.244
		c0.423,0.125,0.772,0.338,1.049,0.637c0.226,0.352,0.339,0.703,0.339,1.053c0,0.149,0,0.295,0,0.432
		c0,0.138-0.025,0.27-0.076,0.395c-0.025,0.251-0.175,0.514-0.448,0.788c-0.102,0.05-0.209,0.111-0.319,0.188
		c-0.112,0.075-0.245,0.139-0.395,0.188c-0.149,0.051-0.308,0.081-0.471,0.094c-0.161,0.012-0.319,0.031-0.469,0.057
		c-0.2,0.051-0.381,0.075-0.544,0.075c-0.164,0-0.345,0-0.545,0h-1.689l-7.512,0.038V157.491z"/>
	<path fill="#2B2C42" d="M439.326,168.642c0.124,0.353,0.217,0.746,0.282,1.184c0.062,0.438,0.093,0.883,0.093,1.333
		c0,0.451-0.031,0.896-0.093,1.334c-0.065,0.438-0.145,0.819-0.246,1.146c-0.4,1.401-1.201,2.572-2.403,3.51
		c-1.201,0.938-2.572,1.621-4.109,2.047c-1.54,0.426-3.131,0.575-4.77,0.451c-1.64-0.127-3.098-0.539-4.375-1.239
		c-0.802-0.45-1.49-1.003-2.065-1.652c-0.575-0.651-1.063-1.376-1.464-2.179c-0.152-0.275-0.245-0.594-0.282-0.958
		c-0.036-0.362-0.006-0.713,0.094-1.051c0.101-0.338,0.262-0.639,0.487-0.9c0.226-0.263,0.539-0.444,0.939-0.545
		c0.251-0.051,0.53-0.076,0.847-0.076c0.31,0,0.617,0.045,0.919,0.133c0.299,0.088,0.576,0.226,0.827,0.412
		c0.248,0.188,0.448,0.445,0.601,0.77c0.273,0.526,0.668,1.009,1.182,1.447c0.514,0.438,1.058,0.794,1.633,1.069
		c0.827,0.276,1.659,0.389,2.497,0.338s1.602-0.236,2.29-0.563c0.688-0.325,1.247-0.771,1.673-1.332
		c0.423-0.563,0.638-1.208,0.638-1.935c0-0.601-0.088-1.095-0.263-1.484c-0.175-0.386-0.42-0.713-0.733-0.976
		c-0.313-0.263-0.688-0.482-1.125-0.657c-0.44-0.175-0.92-0.324-1.447-0.45c-0.601-0.125-1.207-0.213-1.819-0.264
		c-0.615-0.049-1.235-0.112-1.859-0.186c-0.626-0.076-1.241-0.175-1.842-0.302c-0.601-0.125-1.188-0.313-1.763-0.563
		c-1.153-0.475-2.028-1.201-2.629-2.178s-0.959-2.027-1.069-3.154c-0.112-1.126,0.018-2.246,0.393-3.359
		c0.375-1.114,0.976-2.072,1.802-2.873c0.802-0.727,1.761-1.246,2.875-1.559c1.111-0.313,2.347-0.494,3.698-0.545
		c0.75-0.025,1.506,0,2.271,0.075c0.765,0.074,1.503,0.201,2.217,0.376c0.714,0.176,1.377,0.401,1.988,0.675
		c0.615,0.276,1.146,0.601,1.597,0.978c0.325,0.249,0.652,0.582,0.977,0.994c0.324,0.413,0.575,0.852,0.75,1.314
		c0.175,0.464,0.231,0.908,0.169,1.334c-0.062,0.426-0.332,0.787-0.807,1.089c-0.4,0.25-0.781,0.355-1.145,0.318
		c-0.364-0.038-0.708-0.149-1.033-0.338c-0.327-0.188-0.637-0.406-0.939-0.657c-0.299-0.25-0.575-0.474-0.826-0.676
		c-0.674-0.501-1.515-0.839-2.516-1.014c-1.002-0.175-1.941-0.212-2.815-0.113c-0.55,0.076-1.063,0.2-1.54,0.375
		c-0.477,0.177-0.883,0.415-1.222,0.714c-0.335,0.302-0.598,0.671-0.787,1.108c-0.188,0.438-0.257,0.933-0.206,1.484
		c0.023,0.4,0.145,0.737,0.355,1.012c0.212,0.277,0.478,0.503,0.79,0.678c0.313,0.175,0.657,0.313,1.032,0.411
		c0.375,0.102,0.751,0.175,1.126,0.226c1.128,0.15,2.254,0.263,3.379,0.339c1.129,0.075,2.229,0.324,3.306,0.75
		c1.101,0.427,2.04,1.002,2.815,1.729C438.449,166.74,438.999,167.616,439.326,168.642z"/>
	<path fill="#2B2C42" d="M449.351,153.887c1.676-0.627,3.199-0.903,4.562-0.827c1.365,0.075,2.587,0.419,3.661,1.033
		c1.078,0.613,1.997,1.433,2.762,2.459c0.762,1.027,1.382,2.178,1.859,3.454c0.375,0.952,0.662,1.953,0.862,3.004
		c0.201,1.051,0.319,2.098,0.355,3.136c0.04,1.039,0,2.06-0.112,3.061c-0.113,1.001-0.294,1.928-0.545,2.778
		c-0.149,0.575-0.324,1.103-0.524,1.577c-0.2,0.477-0.438,0.952-0.714,1.427c-0.626,1.078-1.433,1.952-2.423,2.629
		c-0.987,0.676-2.07,1.151-3.246,1.428c-0.802,0.2-1.628,0.293-2.479,0.28c-0.85-0.013-1.69-0.125-2.517-0.337
		c-0.823-0.214-1.619-0.526-2.384-0.939c-0.764-0.413-1.458-0.934-2.084-1.559c-0.776-0.751-1.413-1.62-1.915-2.61
		c-0.5-0.987-0.889-2.026-1.163-3.115c-0.276-1.091-0.451-2.185-0.527-3.286c-0.073-1.102-0.073-2.152,0-3.154
		c0.076-0.926,0.257-1.915,0.545-2.966c0.287-1.052,0.708-2.066,1.258-3.042s1.222-1.859,2.011-2.647
		C447.379,154.881,448.299,154.287,449.351,153.887z M458.138,169.956c0.299-1.176,0.426-2.502,0.375-3.979
		c-0.051-1.477-0.288-2.866-0.714-4.168c-0.276-0.801-0.617-1.508-1.032-2.121c-0.411-0.613-0.899-1.083-1.464-1.409
		c-0.564-0.324-1.222-0.488-1.972-0.488s-1.591,0.226-2.517,0.678c-0.55,0.274-1.021,0.649-1.407,1.125
		c-0.389,0.477-0.702,1.014-0.939,1.615c-0.236,0.601-0.426,1.227-0.563,1.877c-0.136,0.651-0.218,1.277-0.243,1.879
		c-0.051,0.649-0.062,1.331-0.036,2.045c0.022,0.714,0.104,1.427,0.242,2.141c0.139,0.714,0.333,1.39,0.581,2.028
		c0.251,0.638,0.59,1.207,1.016,1.708c0.651,0.752,1.407,1.271,2.271,1.559c0.863,0.287,1.721,0.333,2.572,0.131
		c1.377-0.301,2.429-1.214,3.154-2.74C457.763,171.285,457.988,170.658,458.138,169.956z"/>
	<path fill="#2B2C42" d="M484.01,154.11c0.226,0.301,0.361,0.652,0.412,1.051c0,0.151-0.006,0.297-0.018,0.432
		c-0.014,0.139-0.033,0.271-0.056,0.396c-0.025,0.276-0.189,0.538-0.488,0.789c-0.178,0.124-0.4,0.25-0.677,0.375
		c-0.15,0.051-0.308,0.082-0.469,0.094c-0.163,0.014-0.344,0.031-0.544,0.057c-0.152,0.051-0.313,0.076-0.488,0.076
		c-0.178,0-0.353,0-0.527,0h-1.689l-7.848,0.036v0.113l-0.037,6.121c0.2,0,0.418,0,0.657,0c0.237,0,0.531-0.013,0.881-0.038
		c1.001,0,1.898,0,2.685,0c0.79,0,1.659,0.013,2.609,0.038h0.226c0.276,0,0.559,0.005,0.847,0.018s0.581,0.019,0.883,0.019
		c0.273,0.025,0.55,0.057,0.826,0.095c0.274,0.038,0.55,0.105,0.824,0.206c0.451,0.15,0.775,0.388,0.979,0.714
		c0.273,0.325,0.412,0.664,0.412,1.014c0,0.149,0,0.293,0,0.432c0,0.138-0.025,0.282-0.076,0.432c-0.025,0.2-0.187,0.451-0.488,0.75
		c-0.2,0.177-0.438,0.289-0.714,0.339c-0.124,0.051-0.268,0.095-0.432,0.133c-0.163,0.036-0.33,0.067-0.505,0.093
		c-0.178,0.025-0.347,0.045-0.508,0.057c-0.163,0.013-0.344,0.02-0.544,0.02h-1.729l-6.908,0.036l-0.112,8.711v0.302
		c0,0.124-0.006,0.244-0.02,0.355c-0.012,0.113-0.031,0.231-0.057,0.358c-0.048,0.124-0.094,0.257-0.13,0.394
		s-0.082,0.27-0.133,0.394c-0.175,0.351-0.338,0.589-0.487,0.713c-0.277,0.201-0.612,0.339-1.013,0.415
		c-0.678,0.149-1.314,0.073-1.916-0.226c-0.127-0.076-0.245-0.169-0.358-0.282c-0.109-0.112-0.205-0.257-0.279-0.432
		c-0.051-0.102-0.076-0.175-0.076-0.226l-0.112-0.226c-0.076-0.124-0.124-0.257-0.149-0.394c-0.025-0.138-0.051-0.27-0.076-0.395
		c0-0.126-0.006-0.25-0.017-0.375c-0.015-0.126-0.034-0.25-0.057-0.377c-0.025-0.2-0.025-0.399,0-0.6v-0.601l0.036-2.93l0.037-5.407
		c0.025-0.801,0.037-1.613,0.037-2.439c0-0.827,0-1.678,0-2.553c-0.023-0.903-0.031-1.704-0.018-2.403
		c0.012-0.703,0.043-1.466,0.094-2.291v-0.188c0.025-0.275,0.036-0.532,0.036-0.771c0-0.237,0.025-0.48,0.076-0.731
		c0.051-0.551,0.175-1.038,0.375-1.465c0.175-0.426,0.426-0.726,0.751-0.9c0.377-0.227,0.775-0.339,1.201-0.339
		c0.2,0,0.364,0.014,0.488,0.038v-0.038c0.451,0,0.814,0,1.089,0c0.276,0,0.538,0,0.789,0s0.525-0.006,0.827-0.019
		c0.299-0.013,0.699-0.019,1.201-0.019c2.003-0.025,3.98-0.025,5.933,0h0.188c0.273,0.025,0.556,0.037,0.844,0.037
		c0.287,0,0.584,0.014,0.883,0.038c0.276,0,0.55,0.032,0.826,0.095c0.276,0.062,0.551,0.144,0.826,0.242
		C483.46,153.599,483.784,153.811,484.01,154.11z"/>
	<path fill="#2B2C42" d="M507.628,154.148c0.276,0.324,0.412,0.663,0.412,1.013c0,0.151-0.006,0.308-0.018,0.472
		c-0.014,0.162-0.033,0.306-0.056,0.432c-0.076,0.274-0.24,0.538-0.488,0.786c-0.2,0.151-0.477,0.265-0.826,0.339
		c-0.176,0.051-0.353,0.088-0.527,0.113c-0.176,0.025-0.361,0.062-0.562,0.112c-0.175,0.025-0.353,0.037-0.528,0.037
		c-0.174,0-0.36,0-0.561,0h-1.916c-0.451,0.025-0.896,0.039-1.334,0.039s-0.868,0-1.295,0c0.025,0.775,0.037,1.608,0.037,2.496
		c0,0.889-0.006,1.921-0.017,3.098c-0.015,1.176-0.025,2.541-0.04,4.093c-0.011,1.553-0.017,3.355-0.017,5.407v2.854
		c0,0.25,0.011,0.438,0.036,0.563c0,0.1,0,0.193,0,0.28c0,0.088-0.014,0.194-0.036,0.32c-0.051,0.225-0.091,0.488-0.113,0.788
		c0,0.124-0.014,0.244-0.039,0.357c-0.025,0.112-0.063,0.23-0.113,0.356c-0.099,0.099-0.149,0.175-0.149,0.226l-0.112,0.226
		c-0.124,0.248-0.361,0.488-0.714,0.713c-0.55,0.274-1.162,0.338-1.839,0.188c-0.427-0.051-0.751-0.164-0.977-0.339
		c-0.226-0.225-0.389-0.45-0.487-0.674c-0.15-0.276-0.24-0.539-0.263-0.79c-0.076-0.226-0.113-0.463-0.113-0.714v-19.3
		c-0.149,0-0.465,0-0.938,0c-0.478,0-0.982-0.006-1.521-0.02c-0.539-0.012-1.047-0.031-1.521-0.057
		c-0.477-0.023-0.801-0.049-0.977-0.073c-0.152-0.025-0.383-0.063-0.696-0.112c-0.313-0.051-0.569-0.102-0.771-0.151
		c-0.524-0.15-0.937-0.388-1.238-0.714c-0.276-0.325-0.411-0.688-0.411-1.089c0-0.15,0-0.3,0-0.449c0-0.151,0.022-0.288,0.073-0.415
		c0.076-0.299,0.276-0.55,0.601-0.75c0.102-0.075,0.257-0.17,0.471-0.282c0.212-0.113,0.418-0.193,0.618-0.243
		c0.302-0.102,0.677-0.175,1.128-0.226c0.2-0.025,0.401-0.038,0.601-0.038c0.201,0,0.412,0,0.638,0c0.878,0,1.71,0,2.497,0
		c0.789,0,1.621-0.013,2.499-0.038c1.45-0.023,2.896-0.03,4.335-0.018c1.439,0.013,2.872,0.043,4.299,0.094
		c0.328,0.025,0.641,0.063,0.939,0.113c0.302,0.051,0.602,0.138,0.902,0.263c0.224,0.074,0.438,0.169,0.638,0.281
		C507.34,153.83,507.501,153.974,507.628,154.148z"/>
</g>
<rect x="121.008" y="83.91" fill="none" width="96.764" height="56.325"/>
<text transform="matrix(1 0 0 1 147.3477 113.9502)" fill="#2B2C42" font-family="'BMJUA'" font-size="37.55">NE</text>
<g>
	<circle fill="#2B2C42" cx="169.194" cy="106.112" r="42.857"/>
	<circle fill="#FFFFFF" cx="169.193" cy="106.112" r="35.82"/>
	<ellipse fill="#2B2C42" cx="168.921" cy="62.424" rx="6.228" ry="4.333"/>
</g>
<path fill="#2B2C42" d="M243.432,181.922c-3.639-3.655-34.831-40.427-34.831-40.427c-0.851,15.87,32.43,38.862,34.924,40.56
	C243.494,182.01,243.46,181.967,243.432,181.922z"/>
<g>
	<path fill="#2B2C42" d="M168.744,114.784c-0.023,0.392-0.075,0.808-0.156,1.248c-0.082,0.438-0.307,0.797-0.676,1.075
		c-0.277,0.23-0.589,0.369-0.936,0.416c-0.347,0.046-0.688,0.028-1.022-0.052c-0.335-0.081-0.653-0.208-0.954-0.382
		c-0.3-0.173-0.543-0.387-0.728-0.641c-0.785-0.971-1.507-1.971-2.166-2.999c-0.659-1.027-1.323-2.062-1.993-3.102l-2.912-4.402
		c-0.393-0.624-0.809-1.323-1.248-2.097c-0.439-0.774-0.89-1.496-1.352-2.167l-0.104,13.241v0.312c0,0.37-0.063,0.733-0.19,1.092
		c-0.127,0.358-0.341,0.664-0.641,0.918c-0.231,0.185-0.532,0.312-0.901,0.381c-0.579,0.116-1.057,0.081-1.439-0.104
		c-0.381-0.186-0.682-0.439-0.901-0.763c-0.22-0.324-0.371-0.699-0.451-1.126c-0.081-0.428-0.099-0.849-0.052-1.265v-0.59
		l0.07-2.704l0.035-5.026c0.022-0.739,0.034-1.496,0.034-2.27s0-1.565,0-2.375c-0.023-0.994-0.018-2.045,0.017-3.154
		c0.035-1.109,0.075-2.148,0.121-3.12c0.047-0.531,0.174-0.981,0.382-1.352c0.092-0.323,0.335-0.6,0.728-0.831
		c0.254-0.162,0.583-0.266,0.988-0.313c0.404-0.046,0.757-0.035,1.057,0.035c0.116,0.046,0.231,0.098,0.347,0.156
		c0.115,0.058,0.23,0.122,0.346,0.19c0.116,0.092,0.226,0.186,0.33,0.277c0.104,0.093,0.202,0.197,0.294,0.313
		c0.116,0.115,0.219,0.237,0.312,0.364c0.092,0.127,0.185,0.248,0.278,0.364c0.069,0.138,0.138,0.266,0.208,0.381
		c0.069,0.116,0.149,0.231,0.243,0.346l0.38,0.555l8.007,12.617v-2.288c0-0.74-0.005-1.496-0.017-2.271
		c-0.012-0.773-0.029-1.577-0.052-2.409c0-0.97,0.005-2.011,0.018-3.119c0.011-1.109,0.04-2.149,0.086-3.12
		c0-0.393,0.115-0.844,0.346-1.352c0.116-0.3,0.312-0.543,0.59-0.728c0.277-0.185,0.589-0.313,0.936-0.382
		c0.347-0.069,0.693-0.069,1.04,0c0.347,0.069,0.647,0.208,0.901,0.416c0.07,0.069,0.139,0.15,0.208,0.243
		c0.069,0.093,0.127,0.197,0.173,0.312c0.116,0.301,0.185,0.567,0.208,0.797c0.069,0.324,0.104,0.612,0.104,0.867
		c0,2.889,0.005,5.835,0.018,8.838c0.011,3.004,0.029,5.95,0.052,8.839c0,0.323,0.011,0.641,0.034,0.953
		C168.767,114.142,168.767,114.459,168.744,114.784z"/>
	<path fill="#2B2C42" d="M176.993,97.037l-0.069,5.442h1.386c0.947-0.023,1.791-0.035,2.53-0.035c0.739,0,1.56,0.012,2.461,0.035
		h0.172c0.278,0,0.549,0.006,0.815,0.017c0.266,0.012,0.525,0.018,0.78,0.018c0.278,0.023,0.543,0.063,0.797,0.122
		c0.254,0.058,0.508,0.121,0.763,0.19c0.393,0.139,0.715,0.347,0.97,0.624c0.231,0.3,0.347,0.635,0.347,1.005
		c0,0.116,0,0.249,0,0.398c0,0.151-0.023,0.283-0.069,0.399c-0.047,0.254-0.197,0.485-0.451,0.693
		c-0.116,0.162-0.336,0.277-0.659,0.346c-0.3,0.093-0.602,0.151-0.901,0.173c-0.324,0.069-0.647,0.104-0.97,0.104h-1.63
		l-6.412,0.036l-0.069,6.793l6.897,0.07h1.629c0.185,0,0.358,0,0.521,0c0.161,0,0.312,0.012,0.45,0.035
		c0.185,0.046,0.352,0.075,0.502,0.086c0.15,0.012,0.294,0.041,0.434,0.087c0.277,0.092,0.508,0.219,0.693,0.381
		c0.231,0.231,0.381,0.474,0.451,0.729c0.023,0.115,0.041,0.236,0.052,0.364c0.012,0.126,0.005,0.259-0.017,0.398
		c0,0.37-0.116,0.705-0.347,1.005c-0.277,0.324-0.601,0.532-0.971,0.624c-0.485,0.208-1.017,0.312-1.594,0.312
		c-0.254,0.023-0.52,0.036-0.797,0.036c-0.278,0-0.544,0.011-0.797,0.034h-0.208c-1.803,0.046-3.674,0.046-5.615,0
		c-0.462,0-0.832-0.006-1.109-0.018c-0.277-0.012-0.526-0.017-0.746-0.017c-0.22,0-0.445,0-0.675,0c-0.231,0-0.533,0-0.901,0
		c-0.533,0.046-0.971-0.047-1.317-0.278c-0.254-0.162-0.451-0.381-0.589-0.659c-0.069-0.069-0.104-0.138-0.104-0.208
		c-0.023-0.047-0.046-0.082-0.07-0.104c-0.023-0.023-0.046-0.058-0.069-0.104c-0.046-0.116-0.081-0.238-0.104-0.364
		c-0.023-0.127-0.034-0.249-0.034-0.365c-0.023-0.116-0.041-0.231-0.052-0.346c-0.012-0.116-0.03-0.231-0.052-0.347v-0.555
		c0-0.092,0.006-0.185,0.018-0.277c0.011-0.092,0.017-0.185,0.017-0.277v-2.704l0.07-4.991v-4.61c0-0.832,0.005-1.571,0.017-2.219
		c0.012-0.646,0.029-1.352,0.052-2.114v-0.173c0.023-0.254,0.041-0.491,0.052-0.711c0.011-0.219,0.017-0.444,0.017-0.675
		c0.022-0.462,0.15-0.913,0.381-1.352c0.092-0.185,0.19-0.347,0.295-0.485c0.104-0.139,0.248-0.255,0.433-0.347
		c0.347-0.208,0.704-0.312,1.075-0.312c0.185,0,0.323,0.012,0.416,0.034v-0.034c0.415,0,0.75,0,1.005,0c0.254,0,0.503,0,0.745,0
		c0.243,0,0.502-0.006,0.78-0.018c0.277-0.011,0.658-0.017,1.144-0.017c0.924-0.023,1.803-0.035,2.634-0.035
		c0.833,0,1.687,0.012,2.565,0.035h0.139c0.254,0.023,0.52,0.035,0.797,0.035c0.277,0,0.542,0.012,0.797,0.034
		c0.254,0,0.508,0.029,0.762,0.087c0.255,0.058,0.509,0.133,0.763,0.225c0.393,0.116,0.716,0.313,0.97,0.589
		c0.208,0.324,0.312,0.647,0.312,0.97c0,0.139,0,0.272,0,0.398c0,0.128-0.023,0.249-0.069,0.364
		c-0.023,0.231-0.162,0.474-0.416,0.729c-0.092,0.046-0.19,0.104-0.295,0.172c-0.104,0.07-0.225,0.128-0.364,0.174
		c-0.138,0.046-0.283,0.075-0.433,0.086c-0.151,0.012-0.294,0.03-0.433,0.052c-0.186,0.046-0.353,0.069-0.502,0.069
		c-0.151,0-0.318,0-0.503,0h-1.56l-6.932,0.035V97.037z"/>
</g>
<path fill="#2B2C42" d="M100.476,171.315c0,2.408-2.089,4.361-4.664,4.361l0,0c-2.575,0-4.663-1.953-4.663-4.361v-64.514
	c0-2.409,2.087-4.362,4.663-4.362l0,0c2.575,0,4.664,1.954,4.664,4.362V171.315z"/>
<circle fill="#2B2C42" cx="95.813" cy="84.151" r="26.294"/>
<circle fill="#FFFFFF" cx="95.813" cy="83.91" r="19.916"/>
<rect x="84.372" y="93.791" fill="#FFFFFF" width="22.882" height="5.1"/>
<g>
	<defs>
		<rect id="SVGID_1_" x="72.298" y="48.75" width="47.029" height="73.726"/>
	</defs>
	<clipPath id="SVGID_2_">
		<use xlink:href="#SVGID_1_"  overflow="visible"/>
	</clipPath>
	<path clip-path="url(#SVGID_2_)" fill="#2B2C42" d="M107.51,82.41l-3.148,0.085c0.056,0.202,0.031,0.424-0.09,0.616
		c-0.065,0.104-0.154,0.185-0.252,0.246l-0.426,2.242c0.04,0.015,0.079,0.032,0.114,0.056c0.192,0.118,0.31,0.307,0.341,0.512
		l2.639,1.787c0.223-0.422,0.362-0.915,0.416-1.474c0.062-0.669-0.001-1.32-0.33-1.897c-0.082-0.145-0.082-0.255,0.025-0.393
		C107.202,83.681,107.437,83.07,107.51,82.41"/>
	<path clip-path="url(#SVGID_2_)" fill="#2B2C42" d="M103.947,86.664c-0.138,0.221-0.375,0.341-0.622,0.344l-0.724,3.811
		c0.108,0.017,0.214,0.054,0.313,0.114c0.079,0.049,0.146,0.111,0.202,0.18l2.357-0.681c0.068-0.334,0.084-0.682,0.041-1.044
		c-0.019-0.161,0.032-0.245,0.123-0.3c0.364-0.235,0.662-0.526,0.892-0.867l-2.511-1.703
		C104.001,86.567,103.978,86.617,103.947,86.664"/>
	<path clip-path="url(#SVGID_2_)" fill="#2B2C42" d="M103.501,77.124l0.195-1.682c-0.125-0.044-0.175-0.147-0.215-0.278
		c-0.156-0.53-0.397-0.977-0.753-1.365c-0.562-0.612-1.206-0.938-1.955-0.949c-0.279-0.006-0.559,0.064-0.824,0.178
		c-0.014,0.094-0.047,0.188-0.1,0.275c-0.019,0.029-0.041,0.054-0.063,0.081l3.111,3.98
		C103.07,77.217,103.284,77.134,103.501,77.124"/>
	<path clip-path="url(#SVGID_2_)" fill="#2B2C42" d="M104.435,78.521l2.096,0.871c-0.034-0.036-0.067-0.073-0.107-0.109
		c-0.062-0.054-0.116-0.115-0.12-0.197c-0.013-0.368-0.063-0.718-0.151-1.079c-0.079-0.335-0.183-0.652-0.332-0.937
		c-0.433-0.825-1.05-1.336-1.82-1.553l-0.189,1.64c0.088,0.023,0.175,0.061,0.257,0.111
		C104.503,77.534,104.655,78.079,104.435,78.521"/>
	<path clip-path="url(#SVGID_2_)" fill="#2B2C42" d="M106.951,79.9l-2.702-1.123c-0.146,0.146-0.336,0.239-0.533,0.273l0.028,2.88
		c0.096,0.019,0.188,0.051,0.273,0.103c0.071,0.043,0.13,0.099,0.181,0.158l3.333-0.09c0.004-0.042,0.004-0.083,0.004-0.126
		C107.538,81.188,107.34,80.485,106.951,79.9"/>
	<path clip-path="url(#SVGID_2_)" fill="#2B2C42" d="M103.039,85.599l0.056-0.08l0.063,0.042c0.041-0.01,0.084-0.016,0.128-0.019
		l0.394-2.072c-0.169,0.018-0.346-0.013-0.501-0.109c-0.162-0.1-0.273-0.248-0.33-0.415l-1.89,0.239
		c-0.022,0.105-0.065,0.21-0.124,0.307c-0.014,0.019-0.028,0.039-0.04,0.057l2.121,2.111
		C102.957,85.636,102.997,85.615,103.039,85.599"/>
	<path clip-path="url(#SVGID_2_)" fill="#2B2C42" d="M103.268,91.859l0.99,0.502c0.333-0.222,0.618-0.53,0.845-0.937
		c0.114-0.209,0.208-0.425,0.281-0.648l-2.115,0.611C103.313,91.54,103.315,91.703,103.268,91.859"/>
	<path clip-path="url(#SVGID_2_)" fill="#2B2C42" d="M102.811,82.643c0.008-0.124,0.043-0.245,0.113-0.358
		c0.118-0.189,0.309-0.309,0.513-0.35l-0.032-2.881c-0.128-0.018-0.257-0.063-0.374-0.135c-0.045-0.027-0.087-0.06-0.128-0.094
		l-2.689,3.235c0.107,0.022,0.213,0.063,0.31,0.122c0.26,0.158,0.415,0.417,0.45,0.693L102.811,82.643z"/>
	<path clip-path="url(#SVGID_2_)" fill="#2B2C42" d="M102.289,92.42l-0.522,2.635c0.821-0.386,1.284-1.18,1.565-2.165
		c0.034-0.122,0.072-0.16,0.169-0.186c0.149-0.042,0.296-0.096,0.435-0.162l-0.813-0.413
		C102.923,92.382,102.596,92.49,102.289,92.42"/>
	<path clip-path="url(#SVGID_2_)" fill="#2B2C42" d="M101.66,91.486l-3.856-1.141c0.042-0.094,0.082-0.19,0.114-0.286l3.849,1.143
		c0.003-0.004,0.003-0.005,0.003-0.006c0.121-0.191,0.308-0.317,0.513-0.365l0.739-3.884c-0.034-0.016-0.066-0.029-0.099-0.048
		c-0.09-0.055-0.164-0.125-0.219-0.207l-4.639,1.89c-0.014-0.105-0.031-0.208-0.054-0.311l4.575-1.864
		c-0.032-0.171-0.005-0.356,0.099-0.518c0-0.005,0.004-0.007,0.008-0.013l-2.122-2.11c-0.307,0.216-0.728,0.24-1.069,0.033
		c-0.087-0.054-0.164-0.119-0.227-0.193l-1.117,1.615c0.019-0.18,0.019-0.362,0.003-0.546l0.86-1.247l-1.151,0.146
		c-0.043-0.097-0.092-0.194-0.143-0.291l1.326-0.168c-0.023-0.17,0.001-0.349,0.078-0.514l-2.125-1.391
		c0.012-0.119,0.02-0.237,0.023-0.355l2.273,1.49c0.083-0.09,0.182-0.16,0.291-0.212l-2.409-3.351
		c0.068-0.085,0.133-0.172,0.193-0.263l2.492,3.468l2.828-3.402c-0.163-0.274-0.185-0.619-0.036-0.918l-4.53-2.332
		c-0.003-0.002-0.003-0.005-0.003-0.006c-0.003-0.014-0.004-0.03-0.009-0.044c-0.022-0.12-0.049-0.233-0.076-0.341l4.3,2.214
		l-2.805-3.587c-0.216,0.101-0.477,0.095-0.692-0.037c-0.298-0.183-0.413-0.54-0.3-0.853c-0.581-0.076-1.137,0.051-1.653,0.414
		c-0.001,0.003-0.002,0.004-0.005,0.005c-0.045-0.035-0.086-0.07-0.131-0.103c-0.58-0.411-1.217-0.521-1.881-0.376
		c-0.286,0.063-0.56,0.188-0.816,0.349c-0.079,0.048-0.125,0.068-0.212,0.024c-0.307-0.153-0.64-0.251-0.967-0.245
		c-0.748,0.013-1.394,0.336-1.958,0.95c-0.354,0.387-0.595,0.836-0.752,1.365c-0.043,0.15-0.103,0.262-0.267,0.294
		c-0.891,0.171-1.594,0.702-2.07,1.615c-0.149,0.284-0.257,0.6-0.334,0.936c-0.087,0.359-0.14,0.711-0.152,1.079
		c-0.001,0.082-0.058,0.141-0.117,0.197c-0.748,0.675-1.116,1.603-1.113,2.692c0,0.825,0.247,1.594,0.735,2.213
		c0.11,0.138,0.11,0.247,0.028,0.393c-0.329,0.576-0.392,1.229-0.33,1.897c0.11,1.167,0.589,2.046,1.467,2.606
		c0.087,0.055,0.144,0.138,0.121,0.301c-0.09,0.74,0.069,1.42,0.412,2.038c0.385,0.691,0.934,1.1,1.604,1.281
		c0.097,0.026,0.132,0.064,0.167,0.186c0.302,1.062,0.817,1.902,1.76,2.25c0.179,0.067,0.375,0.078,0.553,0.113
		c0.347-0.056,0.697-0.013,1.011-0.204c0.306-0.185,0.511,0.101,0.742,0.219c0.983,0.489,2.046,0.051,2.421-1.11
		c0.001,0.009,0.006,0.016,0.009,0.026c0.353,1.217,1.444,1.681,2.445,1.182c0.231-0.117,0.432-0.394,0.73-0.225l-2.202-2.26
		c0.037-0.113,0.063-0.231,0.085-0.354l2.712,2.782c0.14,0.013,0.284,0.019,0.426,0.042c0.132-0.025,0.272-0.039,0.409-0.07
		l0.571-2.891C101.73,92.106,101.603,91.79,101.66,91.486 M86.824,81.89c-0.025-0.62,0.182-1.179,0.498-1.667
		c0.199-0.306,0.229-0.293,0.396,0.042c0.037,0.072,0.083,0.137,0.123,0.206c0.663,1.115,1.639,1.501,2.637,1.117
		c0.739-0.285,1.286-0.888,1.662-1.702c0.285-0.617,0.482-1.288,0.874-1.838c0.46-0.651,1.02-1.088,1.732-1.212
		c0.274-0.046,0.388-0.175,0.364-0.498c-0.019-0.255-0.178-0.396-0.43-0.354c-0.65,0.106-1.231,0.415-1.728,0.922
		c-0.558,0.574-0.945,1.304-1.237,2.106c-0.203,0.551-0.461,1.048-0.876,1.411c-0.516,0.451-1.117,0.64-1.681,0.304
		c-0.9-0.537-1.24-1.396-1-2.579c0.226-1.116,1.13-2.021,2.173-1.966c0.455,0.023,0.909,0.031,1.36,0.038
		c0.234,0.004,0.402-0.176,0.409-0.411c0.008-0.251-0.155-0.43-0.402-0.438c-0.284-0.009-0.566-0.017-0.858-0.026
		c0.414-1.428,1.609-1.96,2.509-1.626c-0.158,0.242-0.316,0.464-0.457,0.7c-0.107,0.179-0.07,0.47,0.082,0.582
		c0.155,0.116,0.327,0.14,0.462-0.068c0.082-0.124,0.167-0.248,0.25-0.373c0.299-0.442,0.673-0.793,1.096-1.016
		c0.466-0.245,0.965-0.163,1.436,0.072c0.8,0.396,1.235,1.268,1.284,2.189c0.026,0.491-0.079,0.95-0.261,1.389
		c-0.351,0.844-0.866,1.486-1.574,1.916c-0.521,0.315-1.087,0.453-1.635,0.664c-0.497,0.191-0.905,0.519-1.257,0.965
		c-0.312,0.394-0.551,0.846-0.68,1.37c-0.072,0.284,0.013,0.503,0.208,0.579c0.203,0.077,0.4-0.052,0.465-0.337
		c0.04-0.18,0.107-0.335,0.179-0.491c0.362-0.753,0.918-1.223,1.609-1.426c0.508-0.146,1.007-0.302,1.47-0.594
		c0.146-0.095,0.205-0.008,0.226,0.111c0.09,0.564,0.104,1.134-0.028,1.692c-0.051,0.216-0.152,0.391-0.412,0.398
		c-0.609,0.017-1.092,0.383-1.503,0.901c-0.248,0.308-0.409,0.691-0.657,0.993c-0.499,0.603-1.097,0.916-1.827,0.423
		c-0.342-0.231-0.625-0.539-0.894-0.869c-0.521-0.633-1.169-0.886-1.877-0.74c-0.494,0.102-1.006,0.254-1.416,0.665
		c-0.148,0.149-0.257,0.136-0.384-0.066C86.973,82.915,86.851,82.412,86.824,81.89 M96.826,82.183
		c0.018,0.061,0.028,0.11,0.024,0.151c-0.051-0.05-0.059-0.112-0.038-0.196C96.819,82.154,96.82,82.167,96.826,82.183
		 M96.819,79.309c0.001,0.019,0.007,0.042,0.014,0.064C96.826,79.351,96.82,79.328,96.819,79.309 M94.629,88.333
		c0.28,0.053,0.557,0.013,0.831-0.042c0.443-0.089,0.86-0.274,1.235-0.583c0.144-0.121,0.257-0.136,0.375,0.083
		c0.367,0.696,0.417,1.419,0.118,2.151c-0.199,0.486-0.551,0.735-1.007,0.829c-0.509,0.102-0.935-0.092-1.332-0.427
		c-0.192-0.163-0.347-0.078-0.453,0.084c-0.113,0.171-0.113,0.383,0.032,0.568c0.131,0.162,0.291,0.259,0.452,0.358
		c0.341,0.208,0.35,0.267,0.053,0.578c-0.053,0.055-0.11,0.104-0.169,0.154c-0.14,0.124-0.193,0.391-0.11,0.556
		c0.099,0.195,0.299,0.264,0.471,0.157c0.36-0.227,0.573-0.609,0.753-1.021c0.045-0.102,0.082-0.18,0.19-0.167
		c0.294,0.039,0.561-0.085,0.823-0.22c0.092-0.046,0.137-0.036,0.19,0.069c0.328,0.625-0.014,1.575-0.625,1.689
		c-0.203,0.038-0.275,0.147-0.276,0.371c0,0.172-0.042,0.325-0.131,0.476c-0.367,0.633-1.094,0.688-1.639,0.235
		c-0.53-0.444-0.703-1.083-0.697-1.814c0-0.166,0-0.288-0.175-0.329c-0.559-0.125-0.959-0.549-1.309-1.051
		c-0.21-0.303-0.4-0.66-0.448-1.028c-0.119-0.911,0.073-1.756,0.577-2.478c0.143-0.203,0.13-0.512-0.008-0.647
		c-0.165-0.165-0.363-0.127-0.526,0.112c-0.169,0.248-0.323,0.51-0.445,0.798c-0.034,0.078-0.037,0.242-0.184,0.178
		c-0.299-0.133-0.57-0.326-0.797-0.589c-0.396-0.453-0.616-1.014-0.709-1.653c-0.042-0.3-0.226-0.481-0.44-0.431
		c-0.203,0.049-0.306,0.28-0.261,0.578c0.017,0.103,0.015,0.211,0.041,0.309c0.317,1.161,0.86,2.087,1.862,2.538
		c0.13,0.057,0.195,0.161,0.169,0.349c-0.051,0.416,0.002,0.827,0.096,1.229c0.251,1.119,0.857,1.884,1.704,2.398
		c0.085,0.05,0.167,0.085,0.172,0.209c0.02,0.382,0.134,0.733,0.272,1.069c0.069,0.166,0.024,0.239-0.092,0.262
		c-0.496,0.1-0.974,0.097-1.404-0.285c-0.535-0.47-0.793-1.128-0.903-1.88c-0.032-0.207-0.082-0.304-0.268-0.288
		c-0.257,0.021-0.499-0.053-0.742-0.168c-0.635-0.303-1.251-1.352-1.011-2.373c0.049-0.206,0.143-0.445,0.121-0.618
		c-0.027-0.228-0.314-0.186-0.483-0.271c-0.745-0.371-1.332-1.36-1.275-2.414c-0.022-0.216,0.016-0.475,0.087-0.712
		c0.274-0.896,0.852-1.386,1.609-1.596c0.577-0.16,1.097-0.018,1.526,0.496c0.217,0.26,0.436,0.519,0.687,0.733
		c0.792,0.676,1.662,0.831,2.505,0.16c0.462-0.368,0.773-0.903,1.097-1.42c0.412-0.653,1.063-0.884,1.692-0.553
		c0.619,0.324,0.937,0.947,1,1.717c0.071,0.896-0.275,1.591-0.907,2.063c-0.559,0.417-1.154,0.734-1.84,0.673
		c-0.205-0.018-0.36,0.152-0.367,0.39C94.334,88.123,94.413,88.292,94.629,88.333"/>
	<path clip-path="url(#SVGID_2_)" fill="#2B2C42" d="M80.453,83.816c0-3.387,1.094-6.526,2.953-9.096
		c-0.121-0.056-0.226-0.133-0.313-0.23c-1.91,2.634-3.037,5.852-3.037,9.326c0,4.534,1.914,8.633,4.981,11.563h0.574
		C82.441,92.503,80.453,88.385,80.453,83.816"/>
	<path clip-path="url(#SVGID_2_)" fill="#2B2C42" d="M84.092,73.833c-0.24,0.287-0.465,0.585-0.686,0.887
		c0.13,0.061,0.271,0.096,0.423,0.096c0.553,0,1.001-0.44,1.001-0.983c0-0.543-0.449-0.985-1.001-0.985
		c-0.55,0-0.999,0.441-0.999,0.985c0,0.253,0.1,0.483,0.262,0.657c0.161-0.223,0.324-0.443,0.497-0.657H84.092z"/>
	<path clip-path="url(#SVGID_2_)" fill="#2B2C42" d="M83.406,74.72c0.22-0.302,0.446-0.601,0.686-0.887H83.59
		c-0.172,0.214-0.336,0.435-0.497,0.657C83.181,74.587,83.285,74.664,83.406,74.72"/>
	<path clip-path="url(#SVGID_2_)" fill="#2B2C42" d="M112.735,83.816c0-3.768-1.326-7.236-3.535-9.983h-0.503
		c2.276,2.716,3.643,6.195,3.643,9.983c0,4.045-1.562,7.738-4.12,10.525c-0.178-0.166-0.42-0.27-0.686-0.27
		c-0.553,0-0.997,0.441-0.997,0.984c0,0.545,0.444,0.985,0.997,0.985s1.001-0.44,1.001-0.985c0-0.139-0.031-0.271-0.084-0.391
		C111.109,91.801,112.735,87.994,112.735,83.816"/>
</g>
</svg>
